<svg width="1300" height="284" viewBox="0 0 1300 284" fill="none" xmlns="http://www.w3.org/2000/svg">
<mask id="mask0_52_451" style="mask-type:luminance" maskUnits="userSpaceOnUse" x="0" y="0" width="1300" height="284">
<path d="M0 0H1300V283.292H0V0Z" fill="white"/>
</mask>
<g mask="url(#mask0_52_451)">
<path d="M1288.5 276.399C1282.22 275.803 1275.41 275.965 1269.23 275.965C1246.48 275.965 1225.93 276.182 1203.65 276.182C1199.07 276.182 1194.25 276.737 1190.66 275.965C1188.47 275.491 1187.24 274.53 1186.13 273.176C1185.51 272.417 1185.1 271.524 1184.77 270.576C1184.8 266.852 1184.8 263.141 1184.54 259.864C1184.1 259.783 1183.69 259.675 1183.27 259.58C1182.09 247.934 1181.36 236.613 1181.36 224.426C1181.36 218.887 1181.43 213.457 1182.23 208.243C1184.14 208.067 1186.21 208.04 1187.2 206.943C1187.74 206.767 1186.95 205.264 1187.85 205.44C1206.49 205.278 1226.82 205.657 1245.64 205.657C1254 205.657 1261.69 205.034 1267.93 203.274C1270.9 204.452 1274.14 207.336 1278.12 206.077C1279.62 202.976 1275.96 200.227 1276.15 197.451C1276.23 196.503 1276.93 195.988 1277.47 195.081C1278.71 192.941 1279.21 191.1 1279.84 188.405C1282.21 178.195 1284.33 166.386 1286.34 156.474C1288.86 155.729 1292.11 155.783 1291.96 153.021C1291.85 151.057 1289.88 150.759 1287.42 150.434C1291.52 127.562 1295.42 104.474 1299.54 81.6289C1299.42 80.9518 1298.28 81.2904 1297.81 80.9789C1297.75 80.2477 1297.97 79.232 1297.59 78.8258C1294.87 78.3925 1292.53 77.2685 1289.57 77.7425C1288.15 77.9727 1287.33 78.6227 1286.11 79.4758C1285.35 80.0039 1284.52 80.9248 1283.74 81.1956C1283.1 81.4258 1282.18 81.2768 1281.57 81.4122C1277.78 82.2518 1276.56 85.7998 1275.3 89.605C1273.26 95.78 1272.01 102.442 1270.75 108.807C1270.02 112.531 1269.17 116.282 1269.45 119.37C1269.6 120.94 1270.37 122.511 1270.53 123.689C1270.06 124.542 1269.26 125.165 1268.58 125.842C1266.66 127.792 1265.54 130.095 1264.47 132.965C1263.14 136.567 1262.06 140.616 1261.23 144.395C1260.78 146.426 1260.7 148.552 1259.93 150.434H1228.76C1221.74 150.434 1214.77 151.044 1207.77 151.084C1203.72 151.098 1199.72 151.721 1196.95 152.804C1196.03 153.17 1195.08 153.806 1194.13 154.104C1193.58 154.28 1192.95 154.172 1192.4 154.321C1189.09 155.16 1186.47 156.609 1184.31 158.491C1184.41 157.733 1184.31 156.893 1184.31 156.122C1184.37 151.815 1184.29 147.441 1184.31 143.379C1185.38 142.539 1186.99 142.675 1188.21 142.309C1189.51 141.93 1190.73 141.618 1191.25 140.373C1192.03 138.49 1191 135.768 1191.03 133.033C1186.22 130.189 1180.31 131.097 1175.01 131.097C1156.63 131.097 1138.76 130.663 1120.9 130.663C1113.92 130.663 1106.98 130.623 1100.02 130.609C1105.05 130.149 1108.44 129.336 1108.34 128.402C1108.33 128.212 1103.97 128.063 1098.36 127.996C1099.62 127.332 1100.11 126.452 1099.92 125.45C1099.8 124.746 1098.59 114.941 1098.59 114.941L1083.54 114.901C1083.54 114.901 1083.47 115.673 1083.36 116.783C1083.27 116.783 1083.18 116.756 1083.08 116.756C1082.03 116.756 1081.09 117.23 1080.44 117.961C1079.77 118.692 1079.38 119.667 1079.37 120.751C1079.38 121.834 1079.77 122.823 1080.44 123.54C1080.99 124.163 1081.76 124.583 1082.63 124.691C1082.59 125.192 1082.55 125.558 1082.53 125.734C1082.48 126.601 1082.86 127.373 1083.86 127.968C1080.68 127.996 1077.93 128.05 1076.17 128.158C1076.52 127.413 1076.66 126.574 1076.56 125.666C1076.45 124.637 1075.41 110.297 1075.41 110.297L1062.33 110.242C1062.33 110.242 1061.53 124.421 1061.45 126.073C1061.38 127.982 1062.18 129.566 1064.38 130.433C1050.51 130.352 1036.64 130.271 1022.8 130.176C1022.8 127.115 1022.8 123.987 1022.8 120.737C1022.8 116.106 1022.57 109.525 1022.57 103.472C1022.57 99.0841 1023.56 89.6998 1021.29 87.3029C1019.73 85.6373 1014.22 85.9622 1010.47 86.2195C1006.02 86.5175 1002.29 86.6123 998.766 86.8695C990.803 87.4248 983.491 88.3727 975.609 88.3727C963.72 88.3727 951.817 87.2216 940.55 86.4362C936.596 86.1518 932.384 85.4341 928.647 86.0029C924.368 86.6393 924.314 90.4581 924.314 95.4956V114.115L912.289 114.075C912.289 114.075 912.221 114.847 912.113 115.957C912.018 115.943 911.937 115.93 911.828 115.93C910.786 115.93 909.838 116.404 909.174 117.135C908.524 117.866 908.118 118.841 908.118 119.925C908.118 121.008 908.524 121.997 909.174 122.728C909.743 123.337 910.515 123.757 911.381 123.865C911.327 124.366 911.3 124.732 911.287 124.908C911.219 125.775 911.612 126.547 912.614 127.142C907.143 127.197 902.918 127.332 902.891 127.576C902.796 128.646 907.211 129.566 913.44 129.946C906.263 129.932 899.086 129.919 891.908 129.905L891.922 129.512V129.079L888.956 128.537L891.908 127.806L889.512 127.318L891.908 126.682L887.277 125.978L891.908 125.666L886.438 124.773L891.908 124.393L888.252 123.662L891.908 123.012L889.512 122.66L891.908 121.997H819.339V129.715C806.474 129.675 793.623 129.634 780.772 129.607C782.451 114.048 784.117 98.231 785.81 84.1341C785.769 83.4029 784.78 83.6331 784.428 83.2268C784.049 82.7529 783.941 82.0216 783.494 81.6154C780.406 79.7195 777.332 79.8279 774.272 80.0039C768.788 80.3289 763.303 80.9248 757.44 81.6154C752.226 82.2247 746.214 83.1998 740.147 82.9831C734.608 82.7935 728.935 82.3195 722.841 81.8456C718.589 81.507 709.069 80.0716 705.792 81.6154C703.07 82.8883 702.813 87.1539 702.325 90.58C700.876 100.479 699.847 108.793 699.332 118.611C699.143 121.983 698.953 125.274 698.398 127.806C698.29 128.334 698.181 128.876 698.073 129.404C683.732 129.39 669.405 129.377 655.105 129.377C657.732 128.483 658.789 126.668 658.558 124.488C658.45 123.459 657.394 109.118 657.394 109.118L644.313 109.051C644.313 109.051 643.514 123.229 643.446 124.895C643.419 125.693 643.541 126.438 643.852 127.102C642.051 127.007 639.14 126.939 635.768 126.899C637.014 126.235 637.515 125.355 637.325 124.353C637.203 123.649 635.998 113.845 635.998 113.845L620.94 113.804C620.94 113.804 620.872 114.562 620.764 115.686C620.669 115.673 620.574 115.646 620.479 115.646C619.437 115.646 618.489 116.133 617.825 116.851C617.175 117.582 616.769 118.571 616.769 119.654C616.769 120.724 617.175 121.712 617.825 122.443C618.394 123.053 619.166 123.473 620.019 123.595C619.978 124.082 619.951 124.461 619.938 124.637C619.87 125.49 620.263 126.262 621.265 126.858C615.794 126.912 611.555 127.048 611.542 127.305C611.461 128.172 614.386 128.93 618.814 129.404C616.958 129.445 615.117 129.499 613.356 129.58C604.283 130.013 595.062 129.58 585.867 129.58H567.288C568.655 128.605 569.183 127.21 569.007 125.599C568.899 124.583 567.87 110.419 567.87 110.419L554.938 110.351C554.938 110.351 554.152 124.366 554.085 126.005C554.017 127.44 554.464 128.686 555.642 129.58H503.195C491.942 129.58 480.689 129.634 469.422 129.688C474.703 129.255 478.292 128.415 478.197 127.454C478.17 127.278 473.864 127.129 468.339 127.061C469.571 126.411 470.058 125.531 469.869 124.542C469.855 124.448 469.815 124.177 469.761 123.798C469.896 123.825 470.031 123.852 470.18 123.852C472.293 123.852 473.85 121.915 473.85 119.898C473.85 117.88 472.293 115.943 470.18 115.943C469.693 115.943 469.232 116.065 468.813 116.241C468.65 115.023 468.555 114.156 468.555 114.156L453.687 114.115C453.687 114.115 452.766 123.703 452.685 124.827C452.63 125.68 453.01 126.438 453.998 127.034C448.595 127.075 444.424 127.21 444.397 127.454C444.302 128.483 448.405 129.363 454.282 129.77C443.287 129.837 432.304 129.891 421.349 129.946C421.038 119.749 420.699 109.755 420.591 98.6373C420.537 93.7758 421.024 84.4862 417.991 82.6852C416.136 81.5883 410.462 82.0352 406.738 82.2518C390.88 83.1862 376.052 84.7706 360.628 83.755C353.356 83.281 346.125 82.4414 338.867 81.8456C334.913 81.5206 324.012 79.056 321.466 83.3216C319.123 87.2352 320.924 95.6175 321.019 99.9372C321.276 110.5 321.398 120.453 321.574 130.284C308.249 130.365 294.911 130.46 281.586 130.555C284.321 129.688 285.418 127.847 285.174 125.612C285.052 124.583 284.01 110.256 284.01 110.256L270.942 110.188C270.942 110.188 270.129 124.366 270.062 126.032C269.967 128.104 270.928 129.81 273.596 130.596C266.026 130.65 258.47 130.69 250.927 130.731C256.994 130.338 261.26 129.417 261.151 128.375C261.138 128.199 256.777 128.05 251.171 127.982C252.43 127.318 252.918 126.425 252.728 125.436C252.715 125.341 252.674 125.071 252.62 124.678C252.755 124.691 252.904 124.732 253.04 124.732C254.082 124.732 255.03 124.258 255.694 123.527C256.357 122.796 256.75 121.807 256.75 120.737C256.75 119.654 256.357 118.665 255.694 117.934C255.03 117.203 254.082 116.729 253.04 116.729C252.552 116.729 252.092 116.851 251.658 117.027C251.51 115.795 251.401 114.928 251.401 114.928L236.343 114.887C236.343 114.887 235.422 124.583 235.341 125.707C235.273 126.574 235.666 127.346 236.668 127.955C231.197 127.996 226.972 128.131 226.945 128.375C226.85 129.485 231.563 130.42 238.13 130.785C221.217 130.853 204.303 131.097 187.403 131.097C183.395 131.097 178.967 130.745 175.73 133.25C175.365 135.362 175.365 138.91 175.73 141.009C176.638 141.7 177.843 142.187 179.183 142.526C180.66 142.905 182.393 142.81 183.3 143.609C183.449 148.782 183.016 154.537 183.517 159.358C184.329 160.306 185.819 160.211 186.983 160.428C192.183 161.443 198.169 165.046 201.649 168.959C214.202 183.056 215.407 206.673 212.09 224.277C209.679 237.047 203.261 253.229 190.085 258.077C190.179 256.438 188.812 256.235 187.864 255.206C187.539 251.144 182.041 252.173 179.305 251.929C178.276 251.848 177.085 251.428 176.015 251.279C174.688 251.089 173.388 251.292 172.507 251.062C171.776 250.859 171.099 250.277 170.53 249.965C169.758 249.546 169.054 249.261 168.567 248.868C168.296 248.665 168.174 248.246 167.903 248.002C166.942 247.095 166.021 246.959 165.06 246.038C165.208 245.077 164.68 244.806 164.829 243.845C164.531 243.019 163.854 242.531 163.732 241.664C163.611 240.676 164.193 239.552 164.179 238.604C164.166 237.263 163.529 235.882 163.516 234.447C163.502 231.955 164.342 229.206 164.829 226.362C167.836 209.056 170.625 191.357 175.135 174.362C176.326 169.893 175.189 161.701 171.844 158.18C169.474 155.675 166.739 153.454 163.597 151.951C162.757 151.545 157.53 150.204 157.449 149.608L153.346 116.038C153.346 116.038 142.133 116.946 128.199 118.137C128.05 116.648 127.522 115.266 126.71 114.075C125.951 112.964 124.963 112.03 123.825 111.245C123.906 111.163 123.988 111.082 124.055 110.987C124.638 110.093 124.164 108.577 124.272 106.613C124.326 105.598 124.732 104.406 124.705 103.553C124.651 102.145 123.717 100.601 123.825 99.4091C123.92 98.4477 124.841 97.1612 125.152 96.1185C125.477 94.9945 125.518 93.7487 125.802 93.0716C127.441 89.1175 129.093 86.2195 129.147 81.5883C129.188 77.6477 130.257 74.2623 127.779 71.0664C123.013 64.8914 116.716 61.6008 109.132 59.8539C107.426 59.4612 103.932 59.2175 103.932 59.2175C103.932 59.2175 101.495 58.1206 100.371 57.4435C98.3262 56.2383 96.1053 54.7893 92.6928 55.2633C90.9866 53.9768 89.5376 52.4331 86.9918 51.9862C86.7345 51.2956 86.3012 50.7675 85.8949 50.2393C85.8137 49.6435 84.4731 49.1966 84.798 48.9258C88.7387 49.4133 90.3231 46.9352 89.4022 43.2383C89.497 42.3175 90.3908 42.1956 90.9324 41.7081C91.7991 41.0039 90.1064 40.5435 90.3501 40.1779C90.5533 39.8935 92.2189 40.5977 92.2595 39.7445C92.4897 38.8643 92.1647 38.5529 92.2595 37.3477C93.5053 37.2122 94.6564 36.982 95.1033 36.0341C94.9137 33.4341 93.8981 31.7143 93.1262 29.6966C92.7741 28.7622 92.4356 28.356 92.4762 27.5164C92.5303 26.1487 93.8168 24.9706 94.0064 23.3591C94.196 21.7883 93.6949 20.8404 93.7897 18.9852C94.2231 18.0508 95.3741 17.5904 95.7668 16.3581C96.5793 13.7716 95.4418 10.806 94.0064 9.37058C94.2231 8.55808 93.9522 7.77266 93.5731 7.19037C93.2751 6.74349 92.3814 6.33725 92.0293 6.09349C91.8668 5.98516 91.7856 5.52474 91.596 5.42995C90.5397 4.94245 89.1314 5.10495 88.0887 4.77995C85.5428 3.981 83.2272 2.65391 80.6272 1.94974C77.7564 1.16433 74.8043 0.351824 71.8658 0.189327C66.0564 -0.135673 60.3283 4.15704 57.8231 9.15391C56.1574 12.4987 55.1418 16.3175 54.5324 20.5154C53.896 24.9977 54.2481 28.5727 54.7626 32.3237C54.9522 33.7997 54.8845 35.4925 55.4126 36.9008C55.6699 37.5779 56.1033 37.9435 56.5095 38.431C56.9293 38.932 57.3897 39.7445 57.3897 39.7445C57.3897 39.7445 55.6564 40.557 54.7626 40.8414C53.3001 41.3018 51.0793 41.8706 50.1585 42.805C49.5897 43.3737 49.4949 44.3216 49.0616 44.9852C43.6991 53.0154 37.4835 60.4768 34.8022 70.1185C33.8678 73.4904 32.8658 77.1737 32.6085 81.0466C32.4189 83.9987 32.9064 89.6727 32.9064 89.6727C32.9064 89.6727 30.171 93.9248 30.0355 95.1164C29.7105 98.2581 32.2293 102.077 32.771 104.663C33.8814 109.958 41.1126 118.422 41.1126 118.422C41.1126 118.422 43.8074 130.907 43.7939 138.301C43.7803 143.474 42.9001 148.078 42.697 152.506C42.6835 152.655 42.697 152.817 42.6835 152.966C40.0293 152.939 37.4699 152.885 35.0324 152.763C34.5043 148.755 33.6512 144.665 32.6491 140.901C31.3355 135.89 29.7647 130.812 26.8126 127.955C26.1085 127.264 24.7543 126.763 24.646 125.802C26.1491 123.459 26.2574 119.898 25.7293 116.512C25.5126 115.117 25.1605 113.736 24.8626 112.423C22.7095 103.092 20.922 93.1123 15.1262 85.2445C13.948 83.6466 12.4991 82.2518 11.2262 81.7914C7.86784 80.5727 5.37617 82.1029 2.35638 82.6581C1.55742 83.0508 2.80326 84.3372 2.13972 84.5945C1.74701 85.0685 0.514717 84.7029 0.62305 85.6779C3.20951 98.7998 5.76888 111.542 6.45951 124.935C6.89284 133.02 7.33972 141.334 7.97617 148.66C8.12513 150.231 8.46367 151.964 8.40951 153.4C8.38242 154.348 7.88138 155.065 7.97617 155.986C8.04388 156.528 8.39597 156.758 8.63972 157.286C12.5668 166.156 11.6595 176.082 16.1012 184.952C18.1324 188.987 23.3189 193.943 23.346 198.697C23.3595 200.159 21.9376 201.622 21.1793 203.016C20.2991 204.669 19.4189 206.212 19.6626 207.756C21.6126 207.891 23.0074 206.686 24.646 205.82C25.9053 205.156 28.2616 203.612 29.6293 203.666C30.4553 203.693 31.2678 204.52 32.2293 204.953C43.5637 210.139 58.446 206.781 70.5387 206.767C74.0053 206.767 110.473 205.576 110.798 206.686C111.177 208.027 111.611 209.327 112.518 210.139C113.669 210.491 115.565 210.126 116.635 210.559C117.691 229.016 116.675 248.896 114.685 266.215C113.71 274.652 109.376 276.141 101.481 276.141H18.5928C14.3137 276.141 7.56992 275.559 7.55638 278.945C7.5293 281.721 10.3595 281.287 12.296 281.314C28.1939 281.49 44.0783 280.908 59.9491 281.233C75.2918 281.531 90.7428 283.251 106.031 281.314C115.402 280.136 118.72 273.69 119.654 265.132C121.442 249.139 122.931 231.833 121.821 214.879C121.645 212.062 121.32 209.395 121.401 206.686C122.796 206.564 124.678 206.93 125.721 206.47C125.789 204.533 125.802 202.014 125.721 199.78C125.68 198.697 125.64 197.519 125.504 196.435C126.574 196.733 127.63 197.017 128.646 197.302C128.104 197.166 125.423 237.791 125.369 239.037C125.071 245.564 125.843 252.037 125.586 257.616C125.518 258.971 125.125 260.243 125.152 261.544C125.22 265.985 126.886 270.291 128.66 272.688C129.377 273.663 129.756 274.056 130.623 274.652C128.822 276.047 130.244 280.15 131.287 281.436C134.022 282.073 137.827 280.895 140.062 280.556C141.131 280.407 142.269 280.488 143.352 280.339C145.18 280.082 146.318 278.389 147.956 278.159C149.324 277.956 151.518 278.714 153.211 278.809C158.857 279.161 162.988 278.674 167.47 277.496C172.914 276.074 178.087 274.449 182.826 272.377C182.853 275.207 182.935 278.01 183.083 280.57C185.088 281.517 187.688 281.22 190.22 281.22C223.627 281.22 257.035 280.57 290.428 280.57C292.527 280.57 294.558 280.678 296.062 280.353C298.716 279.784 302.155 279.757 305.148 279.5C305.798 274.868 305.581 270.21 305.581 265.471C305.581 241.421 306.015 216.842 306.015 192.576V163.231C311.35 163.353 316.74 163.339 322.156 163.299C322.292 170.571 322.752 178.154 322.752 185.141C322.752 187.687 321.818 203.545 325.136 204.98C326.449 205.535 329.036 204.831 330.336 205.413C330.796 206.74 330.823 208.514 330.769 210.37C330.931 211.615 328.805 210.586 329.252 212.103C328.981 213.43 331.189 212.32 330.769 213.823C331.107 232.104 330.336 251.265 330.336 268.612C330.336 271.063 330.39 273.609 329.686 275.952C325.948 276.453 317.701 274.53 317.566 278.308C317.471 280.691 320.247 280.962 322.969 281.125C325.528 281.274 328.21 281.815 330.769 281.545C331.744 281.45 332.746 280.813 333.789 280.691C342.171 279.689 351.041 280.691 359.491 280.691C383.541 280.691 407.807 279.73 431.844 281.125C434.417 281.26 436.881 281.626 438.114 281.125C441.147 279.892 441.364 272.445 441.364 267.312C441.364 261.665 441.58 255.558 441.58 250.493C441.58 220.797 442 194.255 440.714 166.156C440.673 165.384 440.619 164.545 440.565 163.664H465.969C481 163.664 496.234 164.071 511.415 163.881C513.798 179.224 513.798 196.476 513.798 213.484C513.798 226.552 513.324 239.2 511.848 250.588C511.469 253.527 511.306 256.547 510.331 258.781C510.142 259.214 509.573 259.431 509.465 259.648C509.234 260.122 509.343 260.487 509.248 261.164C508.801 264.279 509.248 267.962 509.248 271.294C509.248 274.828 509.086 278.24 509.465 281.22C516.114 281.937 523.629 281.639 529.601 280.786C531.795 280.475 533.731 279.811 535.654 279.5C536.169 241.326 535.532 202.014 536.088 163.881C558.607 163.732 598.488 163.773 635.578 163.854C635.01 165.723 634.644 167.727 634.292 169.866C631.76 185.426 630.338 199.157 629.674 216.748C629.322 226.416 629.769 235.679 630.135 245.47C630.297 249.776 630.5 254.813 630.839 259.499C631.191 264.482 631.109 269.33 632.22 272.824C632.721 274.422 633.466 275.234 634.292 276.277C637.88 280.8 643.243 280.163 648.592 279.947C668.972 279.134 689.772 277.617 710.166 278.579C712.034 278.66 713.849 278.254 715.244 278.579C716.287 278.809 716.679 279.689 717.546 280.177C720.011 281.599 724.019 281.734 728.149 281.558C743.614 280.908 759.769 280.678 775.193 279.947C778.389 279.798 781.246 280.339 781.652 278.118C782.248 274.882 779.188 275.017 776.588 274.896C773.744 274.774 770.169 274.909 768.056 274.896C750.831 274.801 734.69 274.178 718.237 273.745C717.289 271.551 717.031 269.113 716.855 266.622C715.542 248.151 715.122 227.974 715.691 208.704C716.192 207.973 717.736 208.284 718.237 207.553C719.171 206.618 717.857 205.237 718.697 204.804C732.13 206.442 744.995 205.305 758.401 204.52C761.489 204.33 764.468 204.344 767.122 202.502C769.614 200.782 770.629 198.846 771.74 196.07C773.622 191.344 774.001 185.507 774.746 179.982C775.464 174.565 776.114 169.216 776.737 163.895C794.788 163.813 812.622 163.759 830.01 163.881C829.888 202.529 830.145 240.825 830.226 279.27C832.528 281.26 840.437 281.165 843.267 281.355C848.44 281.68 853.626 281.45 858.799 281.22C860.004 281.165 859.585 262.315 859.083 260.582C858.149 257.386 856.944 254.746 856.416 251.238C854.682 239.579 854.249 226.904 854.249 213.714C854.249 196.584 854.195 179.413 856.849 163.881C877.866 163.8 899.058 163.732 920.211 163.705C920.211 201.094 920.211 236.844 920.211 274.516C920.211 277.157 919.885 280.664 921.294 281.423C922.404 282.018 924.056 281.098 924.964 280.989C927.55 280.678 931.206 280.989 933.197 280.989C959.522 280.989 984.885 280.989 1010.47 280.989C1014.84 280.989 1019.23 280.719 1023.45 280.989C1023.9 281.03 1024.35 280.935 1024.75 280.989C1025.16 281.044 1025.46 281.355 1025.82 281.423C1030.22 282.154 1029.51 279.215 1029.72 274.733C1029.83 272.526 1029.95 268.87 1029.95 266.757C1029.95 238.59 1029.72 212.563 1029.72 185.439C1029.72 179.278 1029.79 170.259 1029.59 163.272C1039.78 163.163 1049.9 163.597 1059.87 163.664C1059.87 182.934 1059.87 202.461 1059.87 221.907C1059.87 238.739 1060.3 256.303 1060.3 272.594C1060.3 274.828 1059.97 277.306 1060.73 279.5C1063.13 280.285 1065.58 279.757 1068.1 279.933C1075.71 280.434 1083.16 280.786 1090.82 280.786C1121.53 280.786 1153.79 281.978 1184.31 280.786C1184.39 280.664 1184.42 280.529 1184.49 280.394C1187.06 280.881 1189.7 281.016 1192.4 281.355C1195.54 281.761 1198.74 281.572 1202.15 281.572C1229.07 281.572 1254.55 281.355 1281.35 281.355C1282.49 281.355 1289.53 281.856 1291.09 281.152C1292.39 280.556 1292.39 279.703 1292.39 278.985C1292.4 277.428 1291.28 276.656 1288.5 276.399ZM1082.79 122.999C1082.37 122.931 1082.01 122.728 1081.69 122.403C1081.33 121.997 1081.09 121.401 1081.09 120.751C1081.09 120.087 1081.33 119.518 1081.69 119.099C1082.07 118.692 1082.56 118.462 1083.08 118.462C1083.13 118.462 1083.16 118.476 1083.2 118.476C1083.06 119.952 1082.9 121.617 1082.79 122.999ZM911.53 122.173C911.124 122.105 910.758 121.902 910.447 121.577C910.081 121.157 909.838 120.588 909.838 119.925C909.838 119.261 910.081 118.692 910.447 118.286C910.826 117.88 911.3 117.636 911.828 117.636C911.869 117.636 911.923 117.65 911.964 117.65C911.815 119.126 911.666 120.791 911.53 122.173ZM620.181 121.902C619.775 121.834 619.409 121.631 619.112 121.292C618.732 120.886 618.489 120.304 618.489 119.654C618.489 118.99 618.732 118.408 619.112 118.002C619.477 117.596 619.965 117.365 620.479 117.365C620.533 117.365 620.561 117.379 620.601 117.379C620.466 118.841 620.303 120.521 620.181 121.902ZM470.18 117.636C470.695 117.65 471.169 117.88 471.548 118.273C471.914 118.679 472.157 119.248 472.157 119.898C472.157 120.548 471.914 121.13 471.548 121.523C471.169 121.929 470.695 122.159 470.18 122.159C469.95 122.159 469.733 122.105 469.53 122.024C469.381 120.832 469.205 119.383 469.029 118.07C469.368 117.799 469.747 117.65 470.18 117.636ZM253.04 118.449C253.568 118.449 254.055 118.679 254.435 119.085C254.8 119.491 255.044 120.074 255.044 120.737C255.044 121.387 254.8 121.97 254.435 122.376C254.055 122.782 253.568 123.012 253.04 123.012C252.81 123.012 252.593 122.958 252.39 122.877C252.227 121.672 252.051 120.223 251.889 118.868C252.214 118.598 252.62 118.449 253.04 118.449ZM104.989 119.058C105.056 119.491 105.151 119.843 105.341 120.141C105.205 120.155 105.056 120.168 104.935 120.182C104.907 119.803 104.935 119.424 104.989 119.058ZM72.5158 189.651C74.5064 189.217 75.6303 188.419 77.1199 187.904C79.1918 188.798 81.4397 189.448 83.7689 189.976C80.0314 189.867 76.2668 189.773 72.5022 189.651H72.5158ZM124.787 118.435C119.857 118.855 114.698 119.302 109.633 119.762C110.311 118.53 110.541 116.742 110.243 115.145C110.906 116.878 111.936 118.259 114.833 117.758C115.754 117.216 116.377 116.39 116.811 115.361C117.935 115.537 119.289 115.442 120.101 114.698C120.535 114.318 120.724 113.872 120.819 113.411C121.103 113.547 121.361 113.696 121.618 113.858C122.566 114.454 123.324 115.185 123.866 115.984C124.367 116.742 124.678 117.555 124.787 118.435ZM88.3053 98.7456C88.7116 94.1685 89.8897 89.2393 90.9324 84.757C91.3116 83.1862 91.3522 81.48 92.2595 80.3966C96.3762 80.9383 99.8293 82.1706 103.878 82.807C106.18 87.5331 105.517 89.7404 105.192 94.5883C105.124 95.5904 105.273 96.3352 105.408 97.432C104.339 98.1497 104.894 100.845 104.528 102.47C104.339 103.39 103.58 104.067 103.431 104.866C103.012 107.25 104.041 110.771 104.312 113.222C103.458 114.115 102.754 115.131 102.253 116.241C101.671 117.555 101.414 119.017 101.508 120.493C98.1637 120.805 94.9678 121.103 92.0293 121.387C91.6772 120.521 91.3387 119.627 91.0543 118.733C89.1585 112.788 87.7637 105.015 88.3053 98.7456ZM46.5158 188.987C43.4553 188.852 40.4491 188.31 37.6324 189.204C38.3366 179.346 36.8335 169.907 36.1158 160.739C38.3637 160.726 40.6793 160.726 43.0355 160.726C43.6178 165.181 44.7824 169.23 46.2043 172.615C46.9085 174.281 47.5855 175.622 47.7887 177.45C47.9647 179.115 47.8699 180.93 48.3981 182.447C48.7637 183.476 49.9283 184.248 51.0251 185.06C53.1105 186.604 55.0335 187.796 56.9022 189.245C53.4491 189.204 49.9824 189.163 46.5158 188.987ZM182.149 262.207C182.393 262.153 182.677 262.072 182.975 262.004C182.935 263.074 182.894 264.184 182.867 265.308C180.497 263.71 175.419 264.807 172.291 263.954C174.864 263.521 178.398 263.114 182.149 262.207ZM305.798 154.388V147.265C305.798 146.9 305.961 146.71 306.231 146.629C311.458 146.67 316.699 146.71 321.94 146.751C321.994 148.471 322.048 150.19 322.102 151.91C319.746 152.127 317.81 152.682 317.417 154.375C313.544 154.388 309.685 154.388 305.798 154.388ZM437.03 242.734C436.8 248.611 437.085 254.434 436.814 260.203C436.556 265.796 436.881 271.388 435.73 276.588C419.467 275.586 402.567 275.952 385.518 275.952H334.886C335.671 254.8 335.522 230.858 335.522 208.216C335.522 207.851 335.685 207.661 335.955 207.566C369.281 207.932 403.176 207.729 436.814 207.783C436.868 219.09 437.504 231.048 437.03 242.734ZM436.597 200.024C436.963 200.254 436.963 201.933 436.597 202.177C435.568 201.974 436.678 200.647 436.597 200.024ZM436.597 193.117C436.367 193.943 435.554 192.874 435.297 192.684C434.864 192.359 434.444 191.831 433.997 191.601C433.74 191.479 433.103 191.33 432.711 191.167C430.205 190.274 426.265 189.624 422.961 189.231C422.568 180.862 422.432 172.236 422.243 163.664H435.581C436.543 172.859 436.299 183.259 436.597 193.117ZM509.248 153.738C485.469 153.657 462.055 153.955 438.615 154.063C438.236 153.278 437.789 152.669 437.247 152.344C436.827 152.1 436.137 152.046 435.527 151.91C432.453 151.287 428.621 152.127 425.561 152.574C424.233 152.75 423.015 153.129 421.877 152.993C421.864 150.962 421.823 148.985 421.796 147.022C451.046 147.089 480.012 147.414 509.248 147.482C509.6 149.107 509.6 152.127 509.248 153.738ZM695.243 147.523C695.216 147.685 695.202 147.861 695.175 148.037C695.04 149.134 695.189 150.502 694.484 151.477H690.706C690.801 150.217 691.018 148.863 690.842 147.482C692.318 147.509 693.767 147.509 695.243 147.523ZM646.628 129.363C644.204 129.35 641.726 129.336 639.234 129.309C641.658 129.025 643.554 128.646 644.665 128.212C645.152 128.686 645.789 129.065 646.628 129.363ZM535.871 153.738V147.482C583.375 147.157 630.73 147.956 678.505 147.482C678.532 148.362 678.587 149.974 678.532 151.477H676.271C667.374 151.477 658.626 151.328 649.743 151.937C647.495 152.086 645.301 152.574 643.324 153.576C607.506 153.495 571.513 154.145 535.871 153.738ZM693.374 164.003C692.629 171.749 691.885 179.481 691.018 187.105C672.412 188.094 652.776 188.066 636.364 191.235C636.797 185.751 637.596 179.522 638.436 173.766C638.991 170.11 639.532 166.738 640.792 163.867C660.4 163.908 678.952 163.962 693.374 164.003ZM647.901 275.126C642.39 275.207 639.207 275.925 637.284 272.147C635.876 269.344 635.957 264.401 635.673 260.42C634.522 243.885 633.913 225.441 634.752 208.474C634.739 208.081 634.928 207.878 635.213 207.783C660.657 207.783 686.021 207.878 711.087 208.243C710.166 224.642 710.626 241.976 711.547 258.117C711.845 263.493 712.156 268.761 712.928 273.745C691.113 273.569 669.961 274.787 647.901 275.126ZM829.793 153.955C813.719 153.982 797.686 153.874 781.666 153.779C781.761 152.696 781.07 152.371 780.501 151.937C777.617 152.046 778.348 150.001 778.768 147.496C795.844 147.428 812.92 147.387 830.01 147.482C829.874 149.581 830.28 152.222 829.793 153.955ZM859.016 153.738V147.482C880.75 147.374 902.525 147.32 924.341 147.279C924.341 149.54 924.327 151.802 924.314 154.104C902.62 153.955 880.913 153.643 859.016 153.738ZM924.964 203.775C925.844 203.68 925.207 205.115 925.411 205.711C924.693 205.63 925.072 204.465 924.964 203.775ZM1025.19 276.25C992.212 276.751 958.303 276.317 924.964 276.453V210.248C924.95 209.936 924.937 209.638 925.18 209.598H1025.19V276.25ZM1024.75 205.711C1023.66 205.779 1024.09 204.316 1024.1 203.775C1024.13 202.57 1024.75 201.351 1024.75 200.538V199.888C1025 199.861 1025.13 199.942 1025.19 200.105C1025.09 201.419 1025.29 203.071 1025.19 204.628C1025.16 204.966 1025.44 205.887 1024.75 205.711ZM1025.19 197.085C1024.49 196.828 1024.73 195.677 1024.1 195.365C1023.56 194.648 1023.21 194.445 1023.02 193.632C1022.49 191.425 1023.02 188.188 1023.02 185.439C1023.02 178.641 1022.69 170.652 1022.78 163.434C1023.45 163.407 1024.13 163.393 1024.81 163.366C1025.08 174.457 1025.13 185.778 1025.19 197.085ZM1059.87 154.605C1047.49 154.483 1035.22 154.266 1022.8 154.199C1022.8 151.721 1022.8 149.283 1022.8 146.9C1035.06 146.778 1047.53 146.886 1059.87 146.846V154.605ZM1075.28 129.336C1076.56 129.837 1078.86 130.257 1081.82 130.541C1078.97 130.528 1076.14 130.514 1073.3 130.501C1074.13 130.189 1074.78 129.797 1075.28 129.336ZM1176.23 257.156C1176.22 256.885 1176.2 256.614 1176.16 256.344C1174.86 242.301 1173.67 223.925 1175.08 209.53C1175.08 209.164 1175.24 208.975 1175.51 208.88H1176.83C1176.96 213.917 1176.59 219.036 1176.59 224.196C1176.59 235.584 1177.31 247.338 1178.37 258.09C1177.64 257.806 1176.92 257.495 1176.23 257.156ZM1257.55 202.854C1257.61 202.123 1258.54 202.231 1259.28 202.204C1259.05 202.759 1258.4 202.908 1257.55 202.854ZM1192.61 161.443C1198.94 154.51 1214.62 158.627 1222.92 158.627C1234.53 158.627 1247.57 158.329 1258.85 158.41C1257.89 167.754 1256.65 176.786 1256.68 187.105C1232.29 187.525 1207.9 187.958 1184.61 189.475C1185.23 183.53 1186.74 177.044 1188.06 171.139C1188.89 167.51 1190.04 164.247 1192.61 161.443ZM1184.83 164.883C1182.78 170.882 1181.54 178.777 1180.28 185.805C1180.16 186.496 1179.98 187.823 1179.64 188.608C1179.38 189.177 1179.78 189.542 1179.19 189.908C1178.88 190.098 1178.5 189.8 1177.89 190.125C1177.69 189.028 1177.91 187.796 1178.11 186.672C1178.71 183.489 1179.59 180.05 1180.28 176.746C1180.77 174.43 1181.12 172.169 1181.79 170.056C1182.46 168.011 1183.42 166.373 1184.39 164.666C1184.64 164.639 1184.77 164.721 1184.83 164.883ZM1159.22 237.642C1150.87 218.264 1152.76 191.763 1162.02 175.743C1165.96 168.919 1171.42 162.405 1179.99 160.645C1180.83 160.468 1181.71 160.347 1182.63 160.143C1178.42 164.815 1176.49 171.41 1175.08 178.046C1174.23 182.122 1173.53 186.509 1172.71 190.991C1170.66 191.831 1168.86 191.723 1167.73 193.361C1166.14 195.65 1166.76 201.297 1166.43 203.707C1166.36 204.181 1166.03 204.696 1166.21 205.224C1167.67 205.346 1169.63 204.966 1170.76 205.44C1169.07 220.959 1169.8 238.292 1171.18 254.041C1165.95 250.047 1162.13 244.413 1159.22 237.642Z" fill="black" fill-opacity="0.2"/>
</g>
</svg>
