<svg width="545" height="550" viewBox="0 0 545 550" fill="none" xmlns="http://www.w3.org/2000/svg">
<path d="M297.772 321.647H253.981C253.612 321.647 253.318 321.351 253.318 320.985C253.318 320.619 253.612 320.322 253.981 320.322H297.772C298.135 320.322 298.435 320.619 298.435 320.985C298.435 321.351 298.135 321.647 297.772 321.647Z" fill="#2B2B2B"/>
<path d="M331.328 336.002H277.839C277.477 336.002 277.189 335.706 277.189 335.34C277.189 334.974 277.477 334.671 277.839 334.671H331.328C331.69 334.671 331.984 334.974 331.984 335.34C331.984 335.706 331.69 336.002 331.328 336.002Z" fill="#2B2B2B"/>
<path d="M479.464 326.593H467.565V245.855C467.565 245.483 467.859 245.193 468.222 245.193C468.585 245.193 468.878 245.483 468.878 245.855V325.268H478.151V245.729C478.151 245.363 478.451 245.066 478.807 245.066C479.17 245.066 479.464 245.363 479.464 245.729V326.593Z" fill="#2B2B2B"/>
<path d="M424.556 331.988H522.217V330.392L478.751 326.587L468.222 326.594L424.556 330.392V331.988ZM523.53 333.32H423.243V329.174L468.166 325.269H478.807L523.53 329.174V333.32Z" fill="#2B2B2B"/>
<mask id="mask0_151_139" style="mask-type:luminance" maskUnits="userSpaceOnUse" x="345" y="104" width="200" height="145">
<path d="M345.427 104.343H545V248.102H345.427V104.343Z" fill="white"/>
</mask>
<g mask="url(#mask0_151_139)">
<path d="M347.915 245.193H474.487C512.644 245.193 543.681 212.951 543.681 173.326V105.87H441.106V142.214C441.106 167.97 421.886 189.151 397.54 191.113V191.259C371.111 191.259 347.915 213.557 347.915 238.978V245.193ZM474.487 246.518H346.602V238.978C346.602 214.043 368.292 192.028 393.857 190.072V189.933C419.185 189.933 439.793 168.525 439.793 142.214V104.545H545V173.326C545 213.683 513.37 246.518 474.487 246.518Z" fill="#2B2B2B"/>
</g>
<path d="M461.901 283.512L474.612 309.659H454.336L441.7 283.663L461.901 283.512Z" fill="#DFE3E8"/>
<path d="M407.769 306.977H429.014L445.476 293.746H448.221C450.197 293.746 451.91 295.115 452.366 297.059L452.479 297.526C453.373 301.292 455.924 304.441 459.406 306.069L460.857 306.744L470.692 298.409L488.204 332.961H457.568C456.268 330.626 451.247 328.891 445.245 328.891C439.249 328.891 434.222 330.626 432.928 332.961H415.303L402.717 325.219C394.307 320.051 397.934 306.977 407.769 306.977Z" fill="white"/>
<path d="M457.924 332.298H487.129L470.485 299.457L461.276 307.255C461.082 307.42 460.813 307.457 460.582 307.35L459.131 306.675C455.442 304.952 452.785 301.671 451.841 297.677L451.728 297.21C451.341 295.564 449.896 294.415 448.221 294.415H445.707L429.426 307.495C429.308 307.584 429.164 307.634 429.014 307.634H407.768C403.592 307.634 400.166 310.265 399.034 314.335C397.909 318.405 399.484 322.455 403.054 324.651L415.49 332.298H432.565C434.272 329.882 439.374 328.222 445.245 328.222C451.122 328.222 456.224 329.882 457.924 332.298ZM488.204 333.63H457.568C457.33 333.63 457.112 333.497 456.999 333.289C455.961 331.434 451.597 329.547 445.245 329.547C438.899 329.547 434.528 331.434 433.497 333.289C433.384 333.497 433.159 333.63 432.928 333.63H415.309C415.184 333.63 415.065 333.598 414.965 333.529L402.373 325.787C398.284 323.269 396.477 318.632 397.771 313.975C399.065 309.319 402.985 306.309 407.768 306.309H428.789L445.063 293.229C445.182 293.134 445.326 293.084 445.476 293.084H448.221C450.509 293.084 452.479 294.655 453.01 296.901L453.116 297.368C453.973 300.965 456.361 303.918 459.681 305.47L460.75 305.968L470.273 297.905C470.429 297.778 470.629 297.722 470.823 297.759C471.023 297.804 471.185 297.93 471.279 298.106L488.786 332.658C488.886 332.866 488.879 333.112 488.761 333.308C488.642 333.51 488.429 333.63 488.204 333.63Z" fill="#2B2B2B"/>
<path d="M482.165 321.048L488.204 332.96H457.568C456.268 330.626 451.247 328.891 445.245 328.891C439.249 328.891 434.222 330.626 432.928 332.96H415.303L402.71 325.219C400.929 324.121 399.684 322.657 398.934 321.048H482.165Z" fill="#2B2B2B"/>
<path d="M442.425 304.441H433.678C433.315 304.441 433.021 304.144 433.021 303.778C433.021 303.412 433.315 303.109 433.678 303.109H442.425C442.788 303.109 443.088 303.412 443.088 303.778C443.088 304.144 442.788 304.441 442.425 304.441Z" fill="#2B2B2B"/>
<path d="M446.358 300.964H437.611C437.248 300.964 436.954 300.667 436.954 300.301C436.954 299.935 437.248 299.639 437.611 299.639H446.358C446.72 299.639 447.014 299.935 447.014 300.301C447.014 300.667 446.72 300.964 446.358 300.964Z" fill="#2B2B2B"/>
<path d="M357.031 306L335.542 297.557L367.004 248.405L381.503 267.77L357.031 306Z" fill="#DFE3E8"/>
<path d="M306.181 272.294L325.038 282.193L345.671 278.13L348.259 279.493C349.923 280.364 350.779 282.276 350.329 284.112L350.098 285.039C349.216 288.617 350.004 292.403 352.242 295.318L353.399 296.832L365.928 294.024L365.722 332.847L338.537 318.569C338.45 315.893 334.786 312.007 329.459 309.211C324.132 306.416 318.886 305.615 316.667 307.085L301.03 298.87L293.383 286.131C288.281 277.625 297.453 267.707 306.181 272.294Z" fill="white"/>
<path d="M339.156 318.146L365.072 331.756L365.266 294.851L353.136 297.576L351.723 295.728C349.347 292.636 348.528 288.68 349.46 284.881L349.685 283.954C350.066 282.408 349.354 280.812 347.959 280.08L345.571 278.824L324.938 282.894L305.881 272.887C302.174 270.937 297.941 271.669 295.084 274.754C292.22 277.84 291.776 282.168 293.946 285.79L301.498 298.365L316.654 306.328C319.268 304.978 324.551 305.886 329.759 308.618C334.98 311.363 338.75 315.212 339.156 318.146ZM366.372 333.933L337.893 318.979L337.881 318.594C337.812 316.461 334.792 312.757 329.159 309.798C323.525 306.839 318.792 306.473 317.029 307.64L316.704 307.855L300.567 299.375L292.82 286.478C290.338 282.332 290.851 277.379 294.127 273.846C297.391 270.319 302.243 269.479 306.488 271.707L325.138 281.499L345.771 277.436L348.566 278.9C350.504 279.922 351.492 282.124 350.967 284.269L350.735 285.197C349.897 288.604 350.635 292.144 352.761 294.914L353.661 296.094L366.591 293.197L366.372 333.933Z" fill="#2B2B2B"/>
<path d="M365.79 319.458L365.722 332.847L338.537 318.568C338.449 315.893 334.785 312.006 329.458 309.211C324.131 306.416 318.886 305.614 316.666 307.085L301.029 298.869L293.383 286.13C292.295 284.326 291.863 282.452 291.932 280.666L365.79 319.458Z" fill="#2B2B2B"/>
<path d="M338.399 286.276C338.299 286.276 338.193 286.251 338.099 286.2L330.327 282.118C330.009 281.954 329.884 281.55 330.052 281.222C330.215 280.9 330.615 280.774 330.934 280.944L338.706 285.02C339.024 285.191 339.149 285.588 338.981 285.916C338.868 286.143 338.637 286.276 338.399 286.276Z" fill="#2B2B2B"/>
<path d="M343.47 285.026C343.37 285.026 343.263 285.001 343.169 284.95L335.404 280.868C335.085 280.704 334.954 280.3 335.123 279.972C335.292 279.65 335.685 279.524 336.004 279.688L343.776 283.77C344.095 283.941 344.22 284.338 344.057 284.666C343.939 284.894 343.707 285.026 343.47 285.026Z" fill="#2B2B2B"/>
<path d="M489.286 190.76H405.805C397.434 190.76 392.044 199.745 395.908 207.247L438.349 289.714H477.482L441.919 220.68C440.968 218.844 442.288 216.642 444.338 216.642H489.286V190.76Z" fill="#020202"/>
<path d="M438.748 289.051H476.393L441.331 220.982C440.78 219.916 440.818 218.66 441.443 217.626C442.062 216.597 443.144 215.979 444.338 215.979H488.629V191.428H405.805C402.104 191.428 398.752 193.334 396.833 196.533C394.913 199.732 394.782 203.625 396.495 206.943L438.748 289.051ZM477.481 290.376H438.348C438.104 290.376 437.879 290.237 437.76 290.023L395.326 207.555C393.407 203.82 393.55 199.441 395.714 195.838C397.871 192.248 401.647 190.097 405.805 190.097H489.286C489.648 190.097 489.936 190.393 489.936 190.759V216.641C489.936 217.007 489.648 217.304 489.286 217.304H444.338C443.606 217.304 442.944 217.682 442.562 218.313C442.181 218.944 442.162 219.714 442.5 220.377L478.063 289.411C478.169 289.613 478.157 289.859 478.038 290.054C477.919 290.256 477.706 290.376 477.481 290.376Z" fill="white"/>
<path d="M411.37 203.001H460.638V190.69H499.99L506.536 203.127C514.889 218.996 503.516 238.152 485.741 238.152H420.386C416.134 238.152 412.17 240.328 409.851 243.931L378.983 291.91L348.09 275.688L386.254 216.737C391.8 208.168 401.241 203.001 411.37 203.001Z" fill="#020202"/>
<path d="M349.034 275.436L378.764 291.046L409.3 243.572C411.751 239.761 415.896 237.483 420.385 237.483H485.741C493.85 237.483 501.19 233.287 505.367 226.258C509.549 219.223 509.775 210.686 505.954 203.436L499.596 191.353H461.288V203.001C461.288 203.373 460.994 203.663 460.638 203.663H411.37C401.429 203.663 392.244 208.686 386.804 217.103L349.034 275.436ZM378.983 292.579C378.883 292.579 378.783 292.554 378.683 292.503L347.784 276.275C347.621 276.187 347.502 276.035 347.452 275.852C347.402 275.676 347.44 275.48 347.54 275.322L385.704 216.371C391.394 207.588 400.985 202.338 411.37 202.338H459.981V190.691C459.981 190.325 460.275 190.028 460.638 190.028H499.99C500.234 190.028 500.459 190.161 500.571 190.382L507.117 202.818C511.15 210.484 510.919 219.501 506.492 226.946C502.072 234.373 494.313 238.815 485.741 238.815H420.385C416.34 238.815 412.608 240.859 410.401 244.291L379.533 292.276C379.414 292.466 379.202 292.579 378.983 292.579Z" fill="white"/>
<path d="M379.214 292.78L347.146 275.94L385.704 216.371C391.394 207.588 400.985 202.338 411.37 202.338H460.638C460.994 202.338 461.288 202.634 461.288 203C461.288 203.373 460.994 203.663 460.638 203.663H411.37C401.429 203.663 392.244 208.685 386.805 217.102L349.034 275.435L378.764 291.045L409.3 243.571C411.751 239.76 415.896 237.483 420.386 237.483H485.741C493.85 237.483 501.19 233.287 505.367 226.258C509.55 219.223 509.775 210.686 505.955 203.436C505.786 203.114 505.911 202.71 506.223 202.54C506.548 202.363 506.949 202.496 507.117 202.817C511.15 210.484 510.919 219.5 506.492 226.946C502.072 234.372 494.313 238.814 485.741 238.814H420.386C416.34 238.814 412.608 240.858 410.401 244.291L379.214 292.78Z" fill="white"/>
<path d="M469.191 111.845L485.522 119.984C493.475 123.94 490.693 136.055 481.827 136.055H468.966V127.209L460.507 117.877L469.191 111.845Z" fill="#2B2B2B"/>
<path d="M465.902 133.759H472.574V118.174H465.902V133.759Z" fill="#DFE3E8"/>
<path d="M472.574 118.142C472.574 121.72 469.954 124.616 466.728 124.616C463.502 124.616 460.882 121.72 460.882 118.142C460.882 114.571 463.502 111.675 466.728 111.675C469.954 111.675 472.574 114.571 472.574 118.142Z" fill="#DFE3E8"/>
<path d="M467.997 121.827C467.578 122.212 467.04 122.477 466.428 122.54C465.071 122.679 463.845 121.789 463.508 120.489L467.997 121.827Z" fill="white"/>
<path d="M466.728 125.121C463.233 125.121 460.394 121.992 460.394 118.143C460.394 114.3 463.233 111.177 466.728 111.177C469.998 111.177 472.705 113.871 473.03 117.436C473.061 117.714 472.861 117.953 472.586 117.979C472.317 118.004 472.08 117.808 472.048 117.531C471.773 114.477 469.485 112.167 466.728 112.167C463.777 112.167 461.376 114.849 461.376 118.143C461.376 121.443 463.777 124.118 466.728 124.118C467.265 124.118 467.797 124.036 468.309 123.859C468.566 123.771 468.841 123.91 468.935 124.168C469.016 124.433 468.885 124.711 468.622 124.799C468.016 125.008 467.378 125.121 466.728 125.121Z" fill="#2B2B2B"/>
<path d="M466.503 115.858L460.907 118.647C460.894 118.483 460.882 118.319 460.882 118.142C460.882 114.571 463.502 111.675 466.728 111.675C469.954 111.675 472.78 114.716 472.78 118.287C472.78 118.533 472.761 118.767 472.742 119.007L466.503 115.858Z" fill="#2B2B2B"/>
<path d="M386.992 92.0459H357.538C355.856 92.0459 354.493 90.6641 354.493 88.9668C354.493 87.2632 355.856 85.8877 357.538 85.8877H386.992V92.0459Z" fill="#DFE3E8"/>
<path d="M386.436 99.2199C386.442 100.558 385.373 101.643 384.053 101.649L376.526 101.655L376.532 104.817L374.713 104.823C371.812 104.835 370.205 102.722 370.236 102.747C368.417 100.69 369.242 96.8474 372.274 96.8348L384.035 96.8096C385.354 96.8096 386.429 97.8885 386.436 99.2199Z" fill="#DFE3E8"/>
<path d="M382.378 104.021C382.378 105.358 381.315 106.444 379.996 106.45H376.526L376.532 109.617H374.713C371.812 109.636 370.205 107.523 370.236 107.541C368.417 105.485 369.242 101.642 372.274 101.629L379.971 101.61C381.296 101.604 382.372 102.683 382.378 104.021Z" fill="#DFE3E8"/>
<path d="M391.831 85.9437L385.898 79.7855C384.479 78.3154 383.685 76.3467 383.685 74.2961V73.7282C383.685 72.1382 382.409 70.8447 380.84 70.8447H380.496C378.92 70.8447 377.651 72.1382 377.651 73.7282V77.3374C377.651 79.3943 378.445 81.3692 379.864 82.8394L386.761 89.9693H374.4V109.693H386.079L409 144.049L425.731 133.619L398.815 94.4933C396.721 91.4584 394.388 88.5938 391.831 85.9437Z" fill="#DFE3E8"/>
<path d="M388.799 94.4049C388.805 95.7362 387.736 96.8215 386.417 96.8278L376.526 96.8341L376.532 99.9952L374.713 100.002C371.812 100.014 370.205 97.9067 370.236 97.9257C368.417 95.8687 369.242 92.0261 372.274 92.0135L386.398 91.9883C387.717 91.9883 388.793 93.0672 388.799 94.4049Z" fill="#DFE3E8"/>
<path d="M370.086 98.4052C369.886 98.4052 369.692 98.3168 369.567 98.1528C368.529 96.8088 368.323 94.8907 369.048 93.3764C369.667 92.0955 370.842 91.3573 372.274 91.351L386.398 91.332C387.223 91.351 387.98 91.6412 388.555 92.2217C389.13 92.8022 389.449 93.5783 389.455 94.3985C389.462 96.0453 388.193 97.4019 386.567 97.4903H384.035C383.672 97.4903 383.378 97.1937 383.378 96.8277C383.378 96.4618 383.672 96.1652 384.035 96.1652H386.529C387.423 96.1147 388.149 95.345 388.142 94.4048C388.142 93.9379 387.961 93.4962 387.63 93.1681C387.298 92.8337 386.867 92.6571 386.404 92.6571H386.398L372.274 92.676C371.03 92.6823 370.461 93.4836 370.23 93.9568C369.723 95.0106 369.88 96.3987 370.599 97.3325C370.824 97.6228 370.774 98.0392 370.486 98.2663C370.367 98.361 370.223 98.4052 370.086 98.4052Z" fill="#2B2B2B"/>
<path d="M370.086 103.226C369.892 103.226 369.698 103.144 369.567 102.974C368.529 101.63 368.323 99.7178 369.048 98.1971C369.667 96.9163 370.842 96.1717 372.274 96.1717L384.035 96.1465C384.035 96.1465 384.041 96.1465 384.047 96.1465C384.854 96.1465 385.617 96.4683 386.192 97.0425C386.767 97.6229 387.086 98.3927 387.092 99.2193C387.092 100.046 386.779 100.816 386.204 101.402C385.635 101.989 384.866 102.311 384.053 102.317H380.483C380.121 102.317 379.827 102.021 379.827 101.655C379.827 101.289 380.121 100.992 380.483 100.992L384.053 100.986C384.51 100.986 384.948 100.803 385.273 100.469C385.598 100.134 385.779 99.6925 385.779 99.2256C385.773 98.7524 385.598 98.317 385.266 97.9826C384.935 97.6545 384.504 97.4778 384.041 97.4778C384.041 97.4778 384.041 97.4778 384.035 97.4778L372.274 97.4968C371.03 97.5031 370.461 98.3044 370.23 98.7776C369.723 99.8313 369.88 101.219 370.605 102.16C370.83 102.45 370.774 102.86 370.492 103.093C370.367 103.182 370.23 103.226 370.086 103.226Z" fill="#2B2B2B"/>
<path d="M408.807 144.951L385.636 110.273L374.719 110.286C374.707 110.286 374.7 110.286 374.688 110.286C372.006 110.286 370.249 108.658 369.749 107.983C368.611 106.696 368.298 104.695 368.992 103.112C369.598 101.755 370.786 100.973 372.274 100.966L379.971 100.941C379.977 100.941 379.977 100.941 379.984 100.941C381.659 100.941 383.022 102.323 383.028 104.014C383.041 105.718 381.678 107.106 379.996 107.112H376.776C376.413 107.112 376.12 106.815 376.12 106.45C376.12 106.084 376.413 105.787 376.77 105.787L379.99 105.781C380.946 105.781 381.722 104.986 381.722 104.02C381.715 103.055 380.934 102.273 379.984 102.273H379.977L372.274 102.291C370.986 102.298 370.418 103.15 370.192 103.654C369.705 104.771 369.917 106.191 370.724 107.099L370.986 107.402C371.474 107.888 372.756 108.954 374.694 108.954C374.7 108.954 374.707 108.954 374.713 108.954L386.336 108.942L386.53 109.238L409.188 143.153L424.8 133.423L398.278 94.8713C396.208 91.8742 393.882 89.0223 391.356 86.4038L385.423 80.2455C383.879 78.6492 383.028 76.5355 383.028 74.2955V73.7277C383.028 72.5036 382.047 71.513 380.84 71.513H380.496C379.29 71.513 378.302 72.5036 378.302 73.7277V77.3368C378.302 79.2297 379.027 81.0153 380.334 82.3719L384.379 86.5552L357.306 86.5489C356.112 86.5489 355.149 87.5269 355.149 88.732V89.1926C355.149 90.3978 356.112 91.3758 357.306 91.3758H372.418C372.781 91.3758 373.075 91.6723 373.075 92.0446C373.075 92.4106 372.781 92.7071 372.418 92.7071H357.306C355.393 92.7071 353.836 91.1297 353.836 89.1926V88.732C353.836 86.795 355.393 85.2175 357.306 85.2175L381.259 85.2302L379.396 83.2994C377.845 81.6968 376.995 79.5767 376.995 77.3368V73.7277C376.995 71.7717 378.564 70.1816 380.496 70.1816H380.84C382.772 70.1816 384.341 71.7717 384.341 73.7277V74.2955C384.341 76.1821 385.06 77.9678 386.367 79.3243L392.301 85.4826C394.876 88.1515 397.246 91.054 399.353 94.1142L426.663 133.815L408.807 144.951Z" fill="#2B2B2B"/>
<path d="M503.06 205.417H465.227V186.217H447.964L452.178 168.146C452.747 165.679 452.153 163.048 450.434 161.212C449.452 160.165 448.721 158.884 448.321 157.451H426.413C418.741 157.451 411.57 153.577 407.3 147.129L387.048 116.514L406.962 102.93L427.119 133.153H481.214C481.27 133.153 481.333 133.153 481.389 133.159H485.872C494.982 133.159 503.147 138.832 506.423 147.419L519.378 181.371C523.799 192.956 515.339 205.417 503.06 205.417Z" fill="white"/>
<path d="M465.89 204.76H503.059C508.693 204.76 513.751 202.066 516.933 197.372C520.128 192.671 520.797 186.929 518.765 181.61L505.81 147.652C502.659 139.386 494.644 133.821 485.872 133.821H481.389C481.364 133.821 481.339 133.821 481.32 133.821C481.283 133.815 481.245 133.815 481.214 133.815H427.119C426.9 133.815 426.694 133.707 426.575 133.524L406.78 103.85L387.955 116.697L407.843 146.756C412.001 153.04 418.947 156.788 426.413 156.788H448.321C448.614 156.788 448.877 156.984 448.958 157.274C449.308 158.561 449.984 159.766 450.909 160.757C452.747 162.713 453.46 165.533 452.816 168.297L448.789 185.548H465.227C465.589 185.548 465.89 185.85 465.89 186.216V204.76ZM503.059 206.085H465.227C464.864 206.085 464.577 205.789 464.577 205.417V186.879H447.964C447.764 186.879 447.577 186.784 447.445 186.627C447.326 186.469 447.276 186.261 447.326 186.059L451.54 167.988C452.078 165.666 451.49 163.3 449.952 161.666C449.002 160.65 448.277 159.426 447.839 158.113H426.413C418.503 158.113 411.151 154.144 406.755 147.494L386.498 116.886C386.298 116.583 386.379 116.173 386.679 115.965L406.593 102.38C406.737 102.279 406.912 102.241 407.087 102.279C407.255 102.311 407.406 102.412 407.506 102.557L427.463 132.49H481.214C481.283 132.49 481.351 132.49 481.42 132.496H485.872C495.182 132.496 503.691 138.396 507.036 147.179L519.991 181.131C522.148 186.778 521.41 193.132 518.015 198.123C514.582 203.183 509.13 206.085 503.059 206.085Z" fill="#2B2B2B"/>
<path d="M426.413 156.783H430.014C427.663 150.164 421.405 145.432 414.052 145.432C411.732 145.432 409.525 145.905 407.512 146.757C411.807 153.028 418.86 156.783 426.413 156.783Z" fill="#DFE3E8"/>
<path d="M476.644 133.796H462.195V127.209H476.644V133.796Z" fill="#2B2B2B"/>
<path d="M447.965 186.879C447.914 186.879 447.864 186.873 447.814 186.86C447.464 186.778 447.245 186.419 447.327 186.059L451.541 167.994C452.079 165.672 451.491 163.306 449.953 161.666C448.277 159.867 447.346 157.52 447.333 155.047C447.308 151.406 449.271 148.087 452.447 146.384C454.911 145.059 456.611 142.825 457.112 140.244C457.18 139.891 457.524 139.645 457.881 139.721C458.237 139.79 458.468 140.144 458.4 140.503C457.824 143.469 455.88 146.043 453.066 147.551C450.322 149.028 448.627 151.898 448.646 155.041C448.659 157.173 449.459 159.205 450.909 160.751C452.748 162.719 453.46 165.54 452.816 168.297L448.608 186.368C448.533 186.671 448.265 186.879 447.965 186.879Z" fill="#2B2B2B"/>
<path d="M471.992 163.313C471.861 163.313 471.729 163.269 471.617 163.193C468.928 161.313 467.365 158.228 467.447 154.928C467.578 149.609 471.804 145.438 477.075 145.432C477.438 145.432 477.732 145.728 477.732 146.094C477.732 146.46 477.438 146.757 477.075 146.757C472.523 146.763 468.872 150.366 468.76 154.966C468.691 157.811 470.035 160.48 472.367 162.102C472.661 162.31 472.736 162.72 472.53 163.023C472.405 163.212 472.198 163.313 471.992 163.313Z" fill="#2B2B2B"/>
<path d="M459.263 183.731C457.106 183.731 455.849 180.722 450.985 180.722H439.249C435.766 180.722 432.44 182.192 430.071 184.779L428.839 186.129C427.876 187.176 427.67 188.691 428.251 189.94L428.27 189.959L426.882 191.48C425.819 192.641 425.675 194.376 426.513 195.694L425.681 196.603C424.575 197.815 424.462 199.638 425.413 200.976L426.244 202.13C425.506 203.222 425.5 204.679 426.282 205.777C427.457 207.418 429.827 207.55 431.165 206.036L432.647 204.364C433.359 203.563 434.372 203.108 435.435 203.108H466.64V183.731H459.263Z" fill="#DFE3E8"/>
<path d="M426.513 196.356C426.294 196.356 426.088 196.249 425.963 196.054C424.956 194.476 425.137 192.407 426.4 191.031L428.582 188.64C430.464 186.589 433.128 185.409 435.898 185.409H441.912C442.275 185.409 442.569 185.706 442.569 186.072C442.569 186.438 442.275 186.734 441.912 186.734H435.898C433.491 186.734 431.177 187.756 429.545 189.542L427.363 191.927C426.507 192.861 426.382 194.262 427.063 195.334C427.263 195.643 427.176 196.054 426.869 196.249C426.757 196.325 426.638 196.356 426.513 196.356Z" fill="#2B2B2B"/>
<path d="M426.25 202.811C426.05 202.811 425.844 202.71 425.719 202.533L424.881 201.353C423.756 199.776 423.887 197.586 425.2 196.154L427.82 193.29C429.427 191.535 431.696 190.532 434.053 190.532H441.969C442.331 190.532 442.619 190.829 442.619 191.201C442.619 191.567 442.331 191.857 441.969 191.857H434.053C432.059 191.857 430.139 192.709 428.783 194.192L426.163 197.056C425.275 198.028 425.181 199.511 425.944 200.584L426.782 201.757C426.994 202.054 426.926 202.47 426.632 202.685C426.519 202.767 426.382 202.811 426.25 202.811Z" fill="#2B2B2B"/>
<path d="M467.297 203.764H447.746C447.383 203.764 447.089 203.474 447.089 203.108C447.089 202.742 447.383 202.439 447.746 202.439H465.984V184.393H459.263C458.2 184.393 457.356 183.825 456.455 183.226C455.167 182.362 453.71 181.384 450.984 181.384H439.249C435.96 181.384 432.79 182.784 430.552 185.226L429.32 186.576C428.551 187.416 428.364 188.627 428.845 189.662C428.995 189.996 428.858 190.387 428.526 190.545C428.201 190.697 427.807 190.558 427.657 190.223C426.951 188.703 427.22 186.917 428.351 185.68L429.589 184.33C432.071 181.617 435.591 180.059 439.249 180.059H450.984C454.104 180.059 455.886 181.251 457.181 182.122C457.975 182.652 458.6 183.068 459.263 183.068H467.297V203.764Z" fill="#2B2B2B"/>
<path d="M428.833 207.758C428.764 207.758 428.695 207.758 428.626 207.752C427.47 207.688 426.425 207.108 425.75 206.162C424.7 204.685 424.819 202.647 426.044 201.316L428.776 198.325C430.408 196.546 432.715 195.523 435.116 195.523H441.7C442.062 195.523 442.356 195.82 442.356 196.186C442.356 196.552 442.062 196.855 441.7 196.855H435.116C433.084 196.855 431.127 197.719 429.739 199.227L427.007 202.218C426.207 203.089 426.125 204.42 426.813 205.385C427.257 206.004 427.945 206.382 428.695 206.427C429.451 206.464 430.171 206.168 430.677 205.594L432.159 203.922C432.99 202.981 434.184 202.439 435.435 202.439H454.236C457.287 202.439 460.138 200.912 461.851 198.356C462.057 198.047 462.464 197.972 462.764 198.18C463.064 198.382 463.145 198.792 462.939 199.095C460.982 202.022 457.724 203.764 454.236 203.764H435.435C434.56 203.764 433.722 204.149 433.14 204.805L431.652 206.483C430.927 207.297 429.908 207.758 428.833 207.758Z" fill="#2B2B2B"/>
<path d="M510.394 199.203C510.394 200.704 510.569 202.162 510.9 203.556C518.165 199.871 522.298 191.259 519.853 182.816C514.207 186.053 510.394 192.174 510.394 199.203Z" fill="#DFE3E8"/>
<path d="M503.06 206.086H464.577V180.664H493.162L483.834 156.214C483.703 155.873 483.871 155.488 484.209 155.356C484.547 155.223 484.928 155.4 485.059 155.741L495.076 181.995H465.89V204.761H503.06C508.693 204.761 513.751 202.066 516.934 197.372C520.129 192.678 520.798 186.929 518.766 181.61L505.811 147.658C502.66 139.386 494.644 133.827 485.878 133.827H470.31C469.941 133.827 469.648 133.531 469.648 133.165C469.648 132.799 469.941 132.496 470.31 132.496H485.878C495.182 132.496 503.691 138.396 507.036 147.185L519.991 181.131C522.148 186.778 521.41 193.132 518.015 198.123C514.583 203.183 509.131 206.086 503.06 206.086Z" fill="#2B2B2B"/>
<mask id="mask1_151_139" style="mask-type:luminance" maskUnits="userSpaceOnUse" x="0" y="319" width="106" height="4">
<path d="M0 319.174H105.339V322.404H0V319.174Z" fill="white"/>
</mask>
<g mask="url(#mask1_151_139)">
<path d="M104.101 321.647H0.693967C0.331333 321.647 0.0374756 321.351 0.0374756 320.985C0.0374756 320.619 0.331333 320.322 0.693967 320.322H104.101C104.463 320.322 104.757 320.619 104.757 320.985C104.757 321.351 104.463 321.647 104.101 321.647Z" fill="#2B2B2B"/>
</g>
<mask id="mask2_151_139" style="mask-type:luminance" maskUnits="userSpaceOnUse" x="30" y="0" width="303" height="32">
<path d="M30.1112 0H332.622V31.6555H30.1112V0Z" fill="white"/>
</mask>
<g mask="url(#mask2_151_139)">
<path d="M332.428 30.5888H31.2366V0.662109H332.428V30.5888Z" fill="#B9BEC6"/>
</g>
<path d="M323.3 15.5222C323.3 19.1692 320.374 22.1284 316.766 22.1284C313.159 22.1284 310.239 19.1692 310.239 15.5222C310.239 11.8752 313.159 8.91602 316.766 8.91602C320.374 8.91602 323.3 11.8752 323.3 15.5222Z" fill="white"/>
<path d="M301.817 15.5222C301.817 19.1692 298.897 22.1284 295.29 22.1284C291.682 22.1284 288.756 19.1692 288.756 15.5222C288.756 11.8752 291.682 8.91602 295.29 8.91602C298.897 8.91602 301.817 11.8752 301.817 15.5222Z" fill="white"/>
<path d="M280.34 15.5222C280.34 19.1692 277.414 22.1284 273.813 22.1284C270.205 22.1284 267.279 19.1692 267.279 15.5222C267.279 11.8752 270.205 8.91602 273.813 8.91602C277.414 8.91602 280.34 11.8752 280.34 15.5222Z" fill="white"/>
<mask id="mask3_151_139" style="mask-type:luminance" maskUnits="userSpaceOnUse" x="30" y="0" width="305" height="208">
<path d="M30.1112 0H334.223V207.72H30.1112V0Z" fill="white"/>
</mask>
<g mask="url(#mask3_151_139)">
<path d="M31.8931 205.133H331.772V1.32503H31.8931V205.133ZM332.428 206.465H31.2366C30.8739 206.465 30.5801 206.168 30.5801 205.802V0.662514C30.5801 0.296555 30.8739 0 31.2366 0H332.428C332.791 0 333.085 0.296555 333.085 0.662514V205.802C333.085 206.168 332.791 206.465 332.428 206.465Z" fill="#2B2B2B"/>
</g>
<path d="M54.5514 175.207C56.7334 164.903 67.4123 155.407 74.5775 156.934C80.3984 158.177 80.3233 165.919 85.2814 166.323C91.9338 166.872 95.6039 153.205 102.288 153.64C108.09 154.012 109.159 164.562 114.355 164.802C121.57 165.136 124.99 145.046 133.562 144.756C139.97 144.542 142.39 155.64 148.924 155.924C153.338 156.114 159.321 151.343 167.03 132.326C167.03 148.82 167.03 165.319 167.03 181.819C129.441 181.819 91.8588 181.819 54.2763 181.819C54.0825 180.216 53.9824 177.895 54.5514 175.207Z" fill="#DFE3E8"/>
<path d="M54.1262 159.817C53.7636 159.817 53.4697 159.521 53.4697 159.148V120.47C53.4697 120.098 53.7636 119.808 54.1262 119.808H106.077C106.439 119.808 106.733 120.098 106.733 120.47C106.733 120.836 106.439 121.133 106.077 121.133H54.7827V159.148C54.7827 159.521 54.4889 159.817 54.1262 159.817Z" fill="#2B2B2B"/>
<path d="M167.03 182.488H114.355C113.992 182.488 113.698 182.191 113.698 181.819C113.698 181.453 113.992 181.156 114.355 181.156H166.374V132.326C166.374 131.96 166.668 131.657 167.03 131.657C167.393 131.657 167.687 131.96 167.687 132.326V181.819C167.687 182.191 167.393 182.488 167.03 182.488Z" fill="#2B2B2B"/>
<path d="M159.502 75.7724C159.502 89.4391 148.555 100.519 135.037 100.519C121.532 100.519 110.578 89.4391 110.578 75.7724C110.578 62.112 121.532 51.0322 135.037 51.0322C148.555 51.0322 159.502 62.112 159.502 75.7724Z" fill="#020202"/>
<path d="M135.037 77.4453C128.028 77.4453 121.614 80.0449 116.693 84.3355C119.894 91.3455 126.903 96.2102 135.037 96.2102C143.178 96.2102 150.187 91.3455 153.388 84.3355C148.467 80.0449 142.052 77.4453 135.037 77.4453Z" fill="white"/>
<path d="M141.902 66.9836C141.902 70.8136 138.832 73.9242 135.037 73.9242C131.248 73.9242 128.178 70.8136 128.178 66.9836C128.178 63.1536 131.248 60.043 135.037 60.043C138.832 60.043 141.902 63.1536 141.902 66.9836Z" fill="white"/>
<path d="M96.0729 75.7724C96.0729 89.4391 85.1189 100.519 71.6077 100.519C58.0965 100.519 47.1425 89.4391 47.1425 75.7724C47.1425 62.112 58.0965 51.0322 71.6077 51.0322C85.1189 51.0322 96.0729 62.112 96.0729 75.7724Z" fill="#020202"/>
<path d="M71.6077 77.4453C64.5989 77.4453 58.184 80.0449 53.2572 84.3355C56.4646 91.3455 63.4735 96.2102 71.6077 96.2102C79.7419 96.2102 86.757 91.3455 89.9582 84.3355C85.0314 80.0449 78.6228 77.4453 71.6077 77.4453Z" fill="white"/>
<path d="M78.4726 66.9836C78.4726 70.8136 75.3964 73.9242 71.6075 73.9242C67.8187 73.9242 64.7488 70.8136 64.7488 66.9836C64.7488 63.1536 67.8187 60.043 71.6075 60.043C75.3964 60.043 78.4726 63.1536 78.4726 66.9836Z" fill="white"/>
<path d="M85.8503 210.585V224.094C85.8503 229.041 81.8801 233.054 76.9846 233.054H72.9893L60.5973 235.502V231.344C60.5973 226.921 63.0169 222.851 66.8808 220.775L85.8503 210.585Z" fill="#2B2B2B"/>
<path d="M62.3667 253.85H73.8834V239.18H62.3667V253.85Z" fill="#DFE3E8"/>
<path d="M62.3667 243.596V239.18H73.8834V248.928C72.8455 249.136 70.7698 249.401 68.3939 248.606C64.6675 247.37 62.8419 244.417 62.3667 243.596Z" fill="#2B2B2B"/>
<path d="M60.5973 235.974C60.5973 241.621 64.6925 246.196 69.7381 246.196C74.79 246.196 78.879 241.621 78.879 235.974C78.879 230.333 74.79 225.759 69.7381 225.759C64.6925 225.759 60.5973 230.333 60.5973 235.974Z" fill="#DFE3E8"/>
<path d="M69.7383 246.859C66.781 246.859 64.7115 246.341 62.2543 243.622C62.0105 243.351 62.0292 242.934 62.2981 242.688C62.5669 242.436 62.9796 242.455 63.2234 242.726C65.3805 245.111 67.0436 245.534 69.7383 245.534C74.4213 245.534 78.2227 241.243 78.2227 235.975C78.2227 230.706 74.4213 226.422 69.7383 226.422C66.7435 226.422 64.03 228.151 62.4731 231.047C62.3043 231.368 61.9042 231.482 61.5853 231.312C61.2664 231.135 61.1477 230.731 61.3227 230.409C63.0796 227.135 66.3058 225.097 69.7383 225.097C75.1403 225.097 79.5356 229.98 79.5356 235.975C79.5356 241.981 75.1403 246.859 69.7383 246.859Z" fill="#2B2B2B"/>
<path d="M69.7381 225.759C64.6925 225.759 60.5973 230.333 60.5973 235.974C60.5973 236.485 60.6348 236.984 60.6973 237.47L66.6182 233.053H78.5039C77.3722 228.838 73.8772 225.759 69.7381 225.759Z" fill="#2B2B2B"/>
<path d="M66.8495 240.581C67.5998 241.281 68.5689 241.754 69.663 241.862C72.1014 242.114 74.296 240.511 74.9024 238.189L66.8495 240.581Z" fill="white"/>
<path d="M114.029 395.389L130.348 419.05L82.8491 452.56L66.5306 428.893L114.029 395.389Z" fill="#DFE3E8"/>
<path d="M109.534 433.732L84.3872 416.299L114.029 395.389L130.348 419.05L109.534 433.732Z" fill="#B9BEC6"/>
<path d="M81.9676 418.002L98.286 441.669L82.8491 452.56L66.5306 428.892L81.9676 418.002Z" fill="#020202"/>
<path d="M74.2774 421.366L73.5709 421.322C65.5117 420.817 61.1413 424.142 52.2318 427.177L61.4164 462.013L89.5768 503.953L98.6051 508.149L102.775 501.631L94.4348 473.338L93.4157 450.554L95.9854 443.898L92.9593 439.512L87.0258 438.225L82.7868 441.216C77.4536 438.793 75.7654 438.869 74.3399 436.799C74.3212 436.749 71.5952 433.531 74.1023 430.117L76.6845 426.609C78.2289 424.514 76.8533 421.524 74.2774 421.366Z" fill="white"/>
<path d="M98.605 508.148L87.2008 496.911L64.1798 462.056L52.2317 427.176L45.5855 425.637L34.9379 430.546L37.8014 445.178C37.8014 445.178 43.3972 453.216 50.4185 463.469L54.5388 464.239L57.1898 468.075L56.4958 472.278C67.4811 488.298 79.4667 505.58 79.4667 505.58L90.602 511.562L94.4972 511.038L98.605 508.148Z" fill="#020202"/>
<path d="M73.3333 408.335C73.0894 408.335 72.8518 408.36 72.608 408.411C71.6639 408.607 70.8573 409.155 70.3259 409.969C69.4631 411.282 68.3502 417.068 67.775 420.456C70.6323 418.595 75.4715 415.301 76.3281 413.995C77.4285 412.317 76.9721 410.051 75.3152 408.947C74.7213 408.543 74.0335 408.335 73.3333 408.335ZM66.0181 423.138L66.2369 421.705C66.4057 420.645 67.8875 411.282 69.2255 409.238C69.9508 408.127 71.0637 407.376 72.3454 407.111C73.6334 406.846 74.9463 407.105 76.0405 407.837C78.2976 409.351 78.9228 412.443 77.4223 414.727C76.0843 416.771 68.1376 421.806 67.231 422.368L66.0181 423.138Z" fill="#2B2B2B"/>
<path d="M93.7781 456.623C93.6968 456.623 93.6218 456.61 93.5468 456.579L87.2507 454.206C86.9131 454.08 86.738 453.695 86.8631 453.355C86.9943 453.008 87.3695 452.837 87.7071 452.963L94.0032 455.342C94.347 455.468 94.5159 455.847 94.3908 456.188C94.2908 456.459 94.0407 456.623 93.7781 456.623Z" fill="#2B2B2B"/>
<path d="M93.8783 462.441C93.8033 462.441 93.722 462.429 93.647 462.397L87.3509 460.025C87.0133 459.899 86.8382 459.514 86.9695 459.173C87.0946 458.826 87.476 458.656 87.8136 458.782L94.1034 461.154C94.4473 461.28 94.6161 461.665 94.491 462.012C94.391 462.277 94.1409 462.441 93.8783 462.441Z" fill="#2B2B2B"/>
<path d="M93.9784 468.258C93.9033 468.258 93.8283 468.239 93.747 468.214L87.4572 465.841C87.1133 465.715 86.9445 465.33 87.0696 464.989C87.1946 464.642 87.576 464.472 87.9136 464.598L94.2097 466.971C94.5473 467.103 94.7224 467.482 94.5973 467.822C94.4973 468.094 94.2472 468.258 93.9784 468.258Z" fill="#2B2B2B"/>
<path d="M159.377 321.048L102.907 334.26L111.835 375.898L146.304 366.402L95.4351 402.278L119.4 437.032L240.607 351.53C251.286 343.99 253.912 329.124 246.459 318.322L245.102 316.354C239.588 308.366 229.828 304.573 220.45 306.763L159.377 321.048Z" fill="#2B2B2B"/>
<path d="M120.207 395.515C125.015 392.158 128.697 388.259 138.57 387.722C150.88 387.054 168.124 388.36 176.671 380.555H126.24L101.206 398.209C112.879 398.872 118.275 396.865 120.207 395.515Z" fill="#2B2B2B"/>
<path d="M199.78 465.325L224.326 455.999L243.796 508.401L219.249 517.726L199.78 465.325Z" fill="#DFE3E8"/>
<path d="M235.218 485.307L212.234 498.842L199.78 465.325L224.326 455.999L235.218 485.307Z" fill="#B9BEC6"/>
<path d="M213.322 501.775L237.869 492.449L243.796 508.4L219.249 517.726L213.322 501.775Z" fill="#020202"/>
<path d="M212.453 531.728C211.753 522.415 209.689 517.392 212.122 509.751L212.334 509.083C213.109 506.634 216.261 506.041 217.861 508.035L220.537 511.379C223.138 514.622 226.827 512.78 226.883 512.774C229.178 511.903 229.522 510.256 233.092 505.701L231.31 500.893L233.961 495.492L238.825 493.643L244.471 497.731L266.435 501.177L285.367 492.709L292.632 494.741L291.263 504.394L270.212 527.86L247.497 531.343L212.453 531.728Z" fill="white"/>
<path d="M215.392 507.498C215.235 507.498 215.066 507.517 214.91 507.548C213.972 507.719 213.247 508.375 212.959 509.284L212.741 509.952C211.059 515.265 211.609 519.348 212.303 524.528C212.566 526.459 212.859 528.623 213.059 531.058L247.441 530.68L269.88 527.241L290.638 504.103L291.901 495.226L285.417 493.409L266.523 501.857L244.215 498.362L238.725 494.387L234.436 496.021L232.023 500.93L233.842 505.826L233.611 506.116C232.454 507.586 231.641 508.747 230.985 509.681C229.609 511.65 228.853 512.735 227.115 513.391L227.096 513.398C226.039 513.846 222.563 514.956 220.025 511.795L217.349 508.451C216.855 507.839 216.148 507.498 215.392 507.498ZM211.847 532.396L211.803 531.778C211.603 529.128 211.284 526.78 211.009 524.704C210.283 519.36 209.715 515.139 211.496 509.549L211.703 508.88C212.147 507.498 213.253 506.514 214.666 506.242C216.079 505.971 217.461 506.488 218.368 507.618L221.044 510.962C222.969 513.353 225.552 512.615 226.577 512.18L226.689 512.136C228.021 511.618 228.578 510.823 229.909 508.918C230.535 508.028 231.297 506.943 232.354 505.586L230.591 500.854L233.486 494.961L238.919 492.897L244.727 497.1L266.348 500.488L285.311 492.008L293.364 494.26L291.882 504.69L270.543 528.478L270.305 528.515L247.503 532.005L211.847 532.396Z" fill="#2B2B2B"/>
<mask id="mask4_151_139" style="mask-type:luminance" maskUnits="userSpaceOnUse" x="209" y="493" width="91" height="57">
<path d="M209.377 493.623H299.01V550H209.377V493.623Z" fill="white"/>
</mask>
<g mask="url(#mask4_151_139)">
<path d="M209.39 537.76L212.453 531.728L248.204 528.693L272.113 521.128L284.392 508.161L292.639 494.709L296.253 498.078L297.572 501.757L294.202 513.777C294.202 513.777 289.938 518.686 281.316 528.15C281.316 528.15 261.152 536.618 255.969 538.574L252.174 536.889L247.922 538.504L246.197 542.29C234.83 546.562 225.902 550 225.902 550H211.565L209.39 537.76Z" fill="#020202"/>
</g>
<path d="M203.262 504.148C202.38 504.148 201.549 504.476 200.899 505.075C199.454 506.394 199.342 508.659 200.649 510.117C201.668 511.259 206.826 513.726 209.877 515.108C208.827 511.896 206.907 506.464 205.882 505.322C205.25 504.615 204.381 504.198 203.437 504.154C203.381 504.154 203.318 504.148 203.262 504.148ZM212.015 517.487L210.696 516.919C209.733 516.502 201.274 512.798 199.673 511.007C197.885 509.006 198.035 505.902 200.011 504.091C200.974 503.214 202.218 502.76 203.506 502.829C204.794 502.892 205.988 503.466 206.857 504.432C208.458 506.217 211.265 515.101 211.584 516.105L212.015 517.487Z" fill="#2B2B2B"/>
<path d="M245.89 504.854C245.759 504.854 245.628 504.81 245.515 504.735C245.215 504.526 245.14 504.11 245.346 503.807L249.11 498.324C249.316 498.021 249.729 497.945 250.023 498.154C250.323 498.362 250.398 498.772 250.192 499.081L246.428 504.564C246.297 504.754 246.097 504.854 245.89 504.854Z" fill="#2B2B2B"/>
<path d="M251.392 506.167C251.261 506.167 251.13 506.129 251.017 506.047C250.717 505.839 250.642 505.428 250.854 505.126L254.612 499.636C254.818 499.333 255.231 499.264 255.525 499.472C255.825 499.674 255.9 500.09 255.694 500.393L251.93 505.876C251.799 506.066 251.599 506.167 251.392 506.167Z" fill="#2B2B2B"/>
<path d="M256.894 507.479C256.763 507.479 256.632 507.442 256.519 507.359C256.219 507.151 256.144 506.741 256.357 506.438L260.114 500.949C260.321 500.652 260.733 500.577 261.027 500.785C261.327 500.987 261.402 501.403 261.196 501.706L257.432 507.195C257.307 507.378 257.101 507.479 256.894 507.479Z" fill="#2B2B2B"/>
<path d="M120.244 384.473H157.439L197.466 496.513L243.69 479.622L209.696 384.473V384.466L199.93 357.297C195.822 345.864 185.074 338.248 173.045 338.248H51.7816V351.833C51.7816 369.859 66.2307 384.473 84.056 384.473H120.244Z" fill="#020202"/>
<path d="M52.4381 338.911V351.833C52.4381 369.462 66.6246 383.81 84.056 383.81H157.439C157.714 383.81 157.964 383.987 158.058 384.246L197.86 495.668L242.852 479.225L209.077 384.7L199.311 357.524C195.316 346.394 184.755 338.911 173.045 338.911H52.4381ZM197.466 497.182C197.373 497.182 197.279 497.157 197.185 497.113C197.029 497.044 196.91 496.905 196.847 496.741L156.976 385.142H84.056C65.8993 385.142 51.1251 370.194 51.1251 351.833V338.248C51.1251 337.882 51.419 337.586 51.7816 337.586H173.045C185.306 337.586 196.36 345.416 200.549 357.07L210.309 384.24L244.309 479.402C244.427 479.742 244.252 480.127 243.915 480.247L197.691 497.138C197.616 497.17 197.541 497.182 197.466 497.182Z" fill="white"/>
<path d="M199.93 357.297C195.822 345.864 185.074 338.248 173.045 338.248H167.949L199.93 357.297Z" fill="#020202"/>
<path d="M199.93 357.96C199.667 357.96 199.411 357.796 199.311 357.524C195.315 346.394 184.755 338.911 173.045 338.911H167.949C167.586 338.911 167.293 338.614 167.293 338.248C167.293 337.882 167.586 337.586 167.949 337.586H173.045C185.305 337.586 196.36 345.416 200.549 357.07C200.674 357.417 200.499 357.796 200.155 357.922C200.08 357.947 200.005 357.96 199.93 357.96Z" fill="white"/>
<path d="M167.949 338.248C169.024 354.306 182.236 366.995 198.385 366.995C200.048 366.995 201.68 366.856 203.275 366.597L167.949 338.248Z" fill="#2B2B2B"/>
<path d="M117.625 342.804H51.7816V351.833C51.7816 354.798 52.1818 357.669 52.9133 360.401C55.8644 359.953 59.1656 359.158 61.1538 357.77C65.9618 354.407 69.6444 350.514 79.5168 349.978C91.8338 349.309 109.071 350.609 117.625 342.804Z" fill="#2B2B2B"/>
<path d="M120.244 384.473H157.439L197.466 496.513L243.69 479.622L209.696 384.473V384.466L199.93 357.297C195.822 345.864 185.074 338.248 173.045 338.248H51.7816V351.833C51.7816 369.859 66.2307 384.473 84.056 384.473H120.244Z" fill="#020202"/>
<path d="M52.4381 338.911V351.833C52.4381 369.462 66.6246 383.81 84.056 383.81H157.439C157.714 383.81 157.964 383.987 158.058 384.246L197.86 495.668L242.852 479.225L209.077 384.7L199.311 357.524C195.316 346.394 184.755 338.911 173.045 338.911H52.4381ZM197.466 497.182C197.373 497.182 197.279 497.157 197.185 497.113C197.029 497.044 196.91 496.905 196.847 496.741L156.976 385.142H84.056C65.8993 385.142 51.1251 370.194 51.1251 351.833V338.248C51.1251 337.882 51.419 337.586 51.7816 337.586H173.045C185.306 337.586 196.36 345.416 200.549 357.07L210.309 384.24L244.309 479.402C244.427 479.742 244.252 480.127 243.915 480.247L197.691 497.138C197.616 497.17 197.541 497.182 197.466 497.182Z" fill="white"/>
<path d="M214.748 225.375C213.735 223.539 211.472 222.832 209.615 223.766L203.4 227.154L203.212 226.832C202.106 224.933 199.78 224.151 197.773 225.003L185.675 230.113C182.711 231.432 179.435 231.893 176.221 231.445L169.95 230.555L175.721 218.724C176.621 216.888 175.902 214.667 174.108 213.715L173.726 213.519C171.957 212.579 169.775 213.222 168.775 214.97L166.786 218.453C165.055 221.494 162.935 224.29 160.484 226.763C158.321 228.94 155.789 231.552 154.682 232.921C149.886 238.821 153.669 244.651 153.669 244.651L130.711 276.849L118.969 267.555L103.77 288.288L125.359 304.466C129.967 307.924 136.475 306.914 139.845 302.22L171.363 258.336L213.472 230.587C215.179 229.457 215.736 227.186 214.748 225.375Z" fill="#DFE3E8"/>
<path d="M104.688 288.15L125.752 303.936C127.834 305.501 130.398 306.145 132.968 305.741C135.537 305.343 137.788 303.955 139.32 301.829L170.9 257.844L171 257.781L213.11 230.031C214.529 229.098 214.998 227.198 214.172 225.703C213.328 224.17 211.453 223.583 209.908 224.359L203.156 228.044L202.643 227.167C201.705 225.564 199.723 224.895 198.023 225.615L185.931 230.719C182.861 232.088 179.466 232.574 176.127 232.101L168.962 231.085L175.133 218.434C175.865 216.926 175.271 215.077 173.801 214.308L173.426 214.106C171.963 213.33 170.169 213.86 169.343 215.305L167.355 218.788C165.592 221.879 163.435 224.725 160.947 227.236C158.071 230.132 156.076 232.246 155.188 233.344C150.774 238.777 154.075 244.064 154.219 244.285L154.463 244.663L154.2 245.036L130.842 277.795L119.094 268.495L104.688 288.15ZM131.48 307.186C129.141 307.186 126.878 306.435 124.965 305.003L102.857 288.427L118.837 266.615L130.579 275.903L152.887 244.607C152.112 243.118 149.874 237.792 154.175 232.498C155.332 231.079 157.989 228.34 160.015 226.296C162.428 223.867 164.517 221.116 166.224 218.125L168.206 214.642C169.387 212.579 171.944 211.828 174.033 212.926L174.414 213.128C176.502 214.232 177.359 216.876 176.315 219.015L170.938 230.031L176.309 230.782C179.403 231.224 182.555 230.776 185.412 229.501L197.516 224.391C199.742 223.45 202.318 224.264 203.637 226.271L209.302 223.185C211.503 222.075 214.135 222.901 215.317 225.053C216.473 227.154 215.823 229.829 213.829 231.142L171.819 258.822L140.383 302.605C138.645 305.022 136.081 306.599 133.168 307.053C132.599 307.142 132.036 307.186 131.48 307.186Z" fill="#2B2B2B"/>
<path d="M184.211 237.653L187.581 235.912C189.726 234.807 191.501 233.098 192.702 230.984L199.279 219.437C200.223 217.778 202.312 217.191 203.969 218.118C205.544 219.008 206.182 220.964 205.438 222.63L199.354 236.221C198.86 237.325 198.154 238.309 197.279 239.13L192.558 243.534L184.211 237.653Z" fill="#DFE3E8"/>
<path d="M197.279 239.792C197.104 239.792 196.922 239.716 196.797 239.577C196.553 239.306 196.566 238.89 196.835 238.637C197.648 237.88 198.292 236.971 198.754 235.949L204.838 222.358C205.438 221.021 204.919 219.412 203.65 218.699C202.312 217.948 200.605 218.427 199.848 219.765L194.328 229.343C194.146 229.658 193.746 229.766 193.427 229.583C193.115 229.4 193.008 228.99 193.196 228.674L198.71 219.102C199.823 217.14 202.33 216.44 204.287 217.544C206.144 218.585 206.913 220.945 206.038 222.901L199.948 236.498C199.417 237.684 198.667 238.732 197.723 239.615C197.598 239.735 197.441 239.792 197.279 239.792Z" fill="#2B2B2B"/>
<path d="M167.374 236.41C167.274 236.41 167.174 236.385 167.08 236.334C166.755 236.177 166.624 235.773 166.786 235.445L169.362 230.258C169.525 229.93 169.919 229.798 170.244 229.968C170.569 230.126 170.7 230.53 170.538 230.858L167.962 236.044C167.849 236.271 167.618 236.41 167.374 236.41Z" fill="#2B2B2B"/>
<path d="M216.836 180.468L169.612 256.02L156.583 248.02L205.238 172.796L216.836 180.468Z" fill="white"/>
<path d="M169.612 256.684C169.5 256.684 169.381 256.658 169.275 256.589L156.245 248.588C156.089 248.494 155.982 248.342 155.945 248.166C155.901 247.995 155.938 247.806 156.032 247.655L204.688 172.431C204.888 172.128 205.294 172.04 205.6 172.242C205.901 172.443 205.988 172.854 205.788 173.163L157.502 247.812L169.406 255.119L216.279 180.11C216.473 179.801 216.873 179.712 217.18 179.902C217.492 180.097 217.58 180.514 217.386 180.823L170.169 256.381C170.044 256.576 169.831 256.684 169.612 256.684Z" fill="#2B2B2B"/>
<path d="M163.466 250.165C160.04 247.881 156.651 246.966 155.901 248.121C155.151 249.275 157.327 252.058 160.753 254.336C164.185 256.62 169.031 257.787 169.775 256.639C170.525 255.484 166.899 252.443 163.466 250.165Z" fill="#2B2B2B"/>
<path d="M249.404 47.31C244.634 47.31 239.832 47.8084 235.055 48.8243C216.911 52.6605 201.33 63.4122 191.176 79.1043C170.225 111.492 179.241 155.085 211.265 176.273C226.777 186.539 245.315 190.079 263.466 186.242C281.61 182.406 297.197 171.648 307.344 155.962C328.296 123.568 319.28 79.975 287.256 58.7872C275.826 51.2283 262.753 47.31 249.404 47.31ZM249.117 189.075C235.518 189.075 222.194 185.094 210.546 177.383C177.915 155.792 168.731 111.378 190.076 78.3787C200.417 62.39 216.298 51.4302 234.793 47.5245C253.281 43.6125 272.169 47.2216 287.975 57.6767C320.611 79.2684 329.79 123.682 308.445 156.682C298.103 172.67 282.222 183.63 263.734 187.536C258.87 188.571 253.975 189.075 249.117 189.075Z" fill="#2B2B2B"/>
<path d="M191.445 117.757C191.445 85.3692 217.411 59.1084 249.435 59.1084C281.453 59.1084 307.419 85.3692 307.419 117.757C307.419 150.144 281.453 176.399 249.435 176.399C217.411 176.399 191.445 150.144 191.445 117.757Z" fill="white"/>
<path d="M224.876 107.415C224.876 107.415 226.808 90.9977 232.76 83.2432H263.234C263.234 83.2432 269.236 91.6981 273.169 107.415H224.876Z" fill="#2B2B2B"/>
<path d="M236.924 100.481L235.699 120.552L248.028 132.452L260.446 120.552L258.976 100.734L236.924 100.481Z" fill="#DFE3E8"/>
<path d="M247.266 100.74L236.631 105.384L236.625 105.435C238.694 107.656 245.859 114.76 257.407 116.161C258.332 116.275 259.245 116.344 260.139 116.369L258.989 100.873L247.266 100.74Z" fill="#2B2B2B"/>
<path d="M230.641 92.1086C230.641 82.4548 238.375 74.6309 247.922 74.6309C257.463 74.6309 265.198 82.4548 265.198 92.1086C265.198 101.756 257.463 109.58 247.922 109.58C238.375 109.58 230.641 101.756 230.641 92.1086Z" fill="#DFE3E8"/>
<path d="M247.922 74.6309C238.375 74.6309 230.403 82.1772 230.403 91.831C230.403 93.6292 230.91 95.6294 231.404 97.2573C239.013 95.0426 245.409 89.8119 249.142 82.7451L253.012 75.4069C251.405 74.9022 249.692 74.6309 247.922 74.6309Z" fill="#2B2B2B"/>
<path d="M248.104 74.637L252.262 80.2589C255.419 84.5243 259.583 87.9315 264.372 90.1588L265.129 90.5121C264.872 81.0603 257.07 74.4414 248.104 74.637Z" fill="#2B2B2B"/>
<path d="M244.533 101.453C245.709 102.342 247.172 102.872 248.754 102.872C252.286 102.872 255.206 100.254 255.744 96.834L244.533 101.453Z" fill="white"/>
<path d="M290.951 144.005C280.716 124.716 260.596 120.621 260.446 120.552L257.007 127.316L248.035 131.165L239.569 127.713L235.699 120.552C223.62 124.237 213.56 132.767 207.864 144.156L203.3 153.286C213.897 167.332 230.616 176.399 249.435 176.399C268.361 176.399 285.167 167.224 295.746 153.04L290.951 144.005Z" fill="#2B2B2B"/>
<path d="M248.028 131.165L240.607 133.499C238.194 134.25 235.749 132.439 235.736 129.89L235.699 120.552L248.028 131.165Z" fill="white"/>
<path d="M248.066 131.165L255.494 133.499C257.901 134.25 260.346 132.439 260.358 129.89L260.446 120.552L248.066 131.165Z" fill="white"/>
<path d="M248.066 157.483C247.704 157.483 247.41 157.18 247.41 156.814V136.276C247.41 135.91 247.704 135.613 248.066 135.613C248.429 135.613 248.723 135.91 248.723 136.276V156.814C248.723 157.18 248.429 157.483 248.066 157.483Z" fill="white"/>
<path d="M249.379 59.9098C245.465 59.9098 241.526 60.3199 237.606 61.1465C222.713 64.295 209.927 73.1222 201.599 86.0002C184.405 112.577 191.802 148.346 218.08 165.735C230.81 174.159 246.028 177.061 260.915 173.913C275.808 170.764 288.594 161.937 296.922 149.065C314.115 122.483 306.719 86.7132 280.441 69.3301C271.062 63.1214 260.333 59.9098 249.379 59.9098ZM249.142 176.481C237.937 176.481 226.958 173.193 217.361 166.846C190.476 149.053 182.911 112.463 200.499 85.2683C209.021 72.1001 222.1 63.071 237.337 59.853C252.574 56.6225 268.136 59.6006 281.16 68.2133C308.044 86.0066 315.61 122.596 298.022 149.791C289.5 162.959 276.42 171.988 261.183 175.212C257.176 176.058 253.143 176.481 249.142 176.481Z" fill="#2B2B2B"/>
<path d="M301.179 69.9238C322.106 93.238 325.732 128.742 307.894 156.322C286.712 189.069 243.289 198.25 210.909 176.828C207.726 174.727 204.775 172.405 202.056 169.9C205.976 174.267 210.502 178.21 215.617 181.592C247.997 203.013 291.42 193.833 312.602 161.079C331.703 131.544 326.189 92.9351 301.179 69.9238Z" fill="#2B2B2B"/>
<path d="M179.741 239.824C181.673 238.373 182.342 236.215 183.18 233.937L187.775 221.45C188.432 219.652 191.051 218.725 192.84 219.368H192.183C193.884 219.974 194.834 221.81 194.371 223.57L191.452 237.231C191.145 238.398 190.408 240.253 189.676 241.206L185.524 246.235L179.741 239.824Z" fill="#DFE3E8"/>
<path d="M188.038 244.013C187.894 244.013 187.75 243.963 187.631 243.868C187.344 243.641 187.294 243.225 187.519 242.941L187.631 242.796C189.276 240.676 190.833 238.675 191.439 236.082L194.39 223.419C194.765 221.98 193.984 220.478 192.621 219.993C191.176 219.469 189.576 220.232 189.044 221.677L184.111 234.107C183.586 235.546 182.723 236.707 181.892 237.824C181.348 238.556 180.785 239.306 180.31 240.146C180.129 240.467 179.728 240.581 179.416 240.398C179.097 240.209 178.991 239.811 179.172 239.489C179.685 238.574 180.272 237.792 180.841 237.022C181.654 235.937 182.417 234.902 182.886 233.628L187.819 221.198C188.594 219.09 190.945 217.98 193.058 218.743C195.065 219.463 196.209 221.658 195.666 223.74L192.714 236.385C192.045 239.269 190.401 241.376 188.663 243.616L188.55 243.755C188.419 243.925 188.232 244.013 188.038 244.013Z" fill="#2B2B2B"/>
<path d="M169.95 230.555C171.019 227.444 175.721 218.724 175.721 218.724C176.621 216.888 175.902 214.667 174.108 213.715L173.726 213.519C171.957 212.579 169.775 213.222 168.774 214.97L166.786 218.453C165.054 221.494 162.935 224.29 160.484 226.763C158.321 228.94 155.788 231.552 154.682 232.921C149.886 238.821 153.669 244.651 153.669 244.651C153.669 244.651 166.023 242.013 169.95 230.555Z" fill="#DFE3E8"/>
<path d="M153.669 245.313C153.456 245.313 153.244 245.206 153.119 245.01C153.075 244.947 149.136 238.701 154.175 232.498C155.332 231.079 157.989 228.34 160.015 226.296C162.428 223.867 164.517 221.116 166.223 218.125L168.205 214.642C169.387 212.579 171.944 211.828 174.033 212.926L174.414 213.128C176.502 214.232 177.359 216.876 176.315 219.015C176.077 219.532 170.35 232.032 167.937 236.089C166.405 238.663 163.491 242.077 160.309 243.225C159.965 243.351 159.59 243.174 159.471 242.827C159.346 242.48 159.521 242.102 159.865 241.982C162.722 240.947 165.392 237.792 166.811 235.401C169.187 231.407 175.07 218.573 175.127 218.447C175.865 216.926 175.271 215.077 173.801 214.308L173.426 214.106C171.963 213.33 170.169 213.86 169.343 215.305L167.355 218.788C165.592 221.879 163.435 224.725 160.947 227.236C158.07 230.132 156.076 232.246 155.188 233.344C150.755 238.802 154.182 244.228 154.213 244.285C154.413 244.588 154.332 245.004 154.025 245.206C153.919 245.275 153.794 245.313 153.669 245.313Z" fill="#2B2B2B"/>
<path d="M107.627 287.373L123.027 344.816H42.2595V299.235H11.8608L17.3754 274.747C20.0513 262.86 30.2926 254.329 42.2595 253.875C42.5909 253.856 42.9347 253.85 43.2786 253.85H97.1797C97.6736 253.85 98.1613 253.862 98.6489 253.9C104.076 254.184 109.309 256.083 113.692 259.364L125.102 267.914L107.627 287.373Z" fill="white"/>
<path d="M42.9157 344.154H122.164L106.996 287.55C106.933 287.329 106.989 287.096 107.139 286.932L124.133 268.015L113.304 259.895C109.015 256.683 103.932 254.841 98.6174 254.557C98.1548 254.531 97.6859 254.513 97.1794 254.513H43.2784C42.947 254.513 42.6156 254.519 42.2968 254.538C30.5925 254.979 20.6138 263.352 18.0129 274.893L12.6797 298.573H42.2593C42.6219 298.573 42.9157 298.869 42.9157 299.235V344.154ZM123.026 345.485H42.2593C41.8966 345.485 41.6028 345.189 41.6028 344.816V299.898H11.8606C11.6605 299.898 11.473 299.81 11.3479 299.652C11.2229 299.488 11.1728 299.286 11.2166 299.09L16.7374 274.602C19.4696 262.475 29.9547 253.68 42.2342 253.213C42.5656 253.194 42.922 253.188 43.2784 253.188H97.1794C97.7171 253.188 98.211 253.206 98.6987 253.232C104.263 253.528 109.584 255.465 114.086 258.828L125.496 267.384C125.646 267.498 125.74 267.662 125.759 267.851C125.777 268.034 125.715 268.223 125.59 268.362L108.352 287.55L123.658 344.646C123.708 344.842 123.67 345.056 123.545 345.22C123.42 345.384 123.226 345.485 123.026 345.485Z" fill="#2B2B2B"/>
<path d="M42.2593 253.85H43.2784C42.9345 253.85 42.5906 253.856 42.2593 253.875V253.85Z" fill="white"/>
<path d="M42.2593 254.544C42.0905 254.544 41.9279 254.475 41.8091 254.361C41.6778 254.235 41.6028 254.058 41.6028 253.875C41.6028 253.509 41.8966 253.188 42.2593 253.188H43.2784C43.641 253.188 43.9349 253.484 43.9349 253.85C43.9349 254.216 43.641 254.513 43.2784 254.513C42.947 254.513 42.6157 254.519 42.2968 254.538C42.2843 254.538 42.2718 254.544 42.2593 254.544Z" fill="#2B2B2B"/>
<path d="M98.6487 253.9C98.1611 253.862 97.6734 253.85 97.1794 253.85H98.6362L98.6487 253.9Z" fill="white"/>
<path d="M98.6425 254.557C98.63 254.557 98.6175 254.557 98.605 254.557C98.1548 254.531 97.6859 254.513 97.1794 254.513C96.8168 254.513 96.5229 254.216 96.5229 253.85C96.5229 253.484 96.8168 253.188 97.1794 253.188H98.6362C98.9301 253.188 99.1927 253.383 99.274 253.673C99.3302 253.875 99.2927 254.121 99.1552 254.292C99.0301 254.449 98.8426 254.557 98.6425 254.557Z" fill="#2B2B2B"/>
<path d="M157.839 322.071C157.702 322.071 157.564 322.033 157.445 321.938C157.151 321.717 157.095 321.301 157.314 321.011L187.469 280.629H264.585L241.889 311.023C241.67 311.313 241.257 311.37 240.97 311.155C240.682 310.934 240.619 310.518 240.845 310.221L261.946 281.954H188.119L158.364 321.812C158.233 321.982 158.039 322.071 157.839 322.071Z" fill="#2B2B2B"/>
<path d="M221.088 338.885H143.966L157.314 321.01C157.533 320.714 157.946 320.657 158.233 320.878C158.527 321.098 158.583 321.515 158.365 321.811L146.604 337.554H220.431L240.845 310.221C241.057 309.93 241.47 309.867 241.764 310.094C242.052 310.315 242.108 310.732 241.889 311.022L221.088 338.885Z" fill="white"/>
<path d="M104.176 344.16H219.987V338.885H104.176V344.16ZM221.306 345.485H102.863V337.554H221.306V345.485Z" fill="white"/>
<path d="M203.637 307.123C201.73 307.123 200.18 308.694 200.18 310.618C200.18 312.549 201.73 314.12 203.637 314.12C205.544 314.12 207.089 312.549 207.089 310.618C207.089 308.694 205.544 307.123 203.637 307.123ZM203.637 315.445C201.005 315.445 198.867 313.281 198.867 310.618C198.867 307.962 201.005 305.798 203.637 305.798C206.263 305.798 208.402 307.962 208.402 310.618C208.402 313.281 206.263 315.445 203.637 315.445Z" fill="white"/>
<path d="M16.0685 322.979V299.715H42.2593V309.804C42.2593 312.618 44.5164 314.902 47.2987 314.902L90.377 314.883V338.759L31.6805 338.772C23.0585 338.772 16.0685 331.698 16.0685 322.979Z" fill="#DFE3E8"/>
<path d="M116.286 322.31L118.85 325.111C120.144 326.525 120.275 328.664 119.162 330.222L116.649 333.755L110.547 326.878H72.2515V318.776H108.283C111.322 318.776 114.223 320.057 116.286 322.31Z" fill="#DFE3E8"/>
<path d="M115.111 317.256L116.555 318.84C117.849 320.253 117.981 322.392 116.868 323.957L114.354 327.49L108.258 320.606H72.2515V314.972H78.3662C80.8921 314.972 85.4 312.505 91.1021 312.505H104.357C108.44 312.505 112.335 314.227 115.111 317.256Z" fill="#DFE3E8"/>
<path d="M117.187 327.761L120.257 331.118C121.551 332.531 121.682 334.67 120.569 336.235L118.05 339.762L111.954 332.884H88.2324V324.776H110.441C113.004 324.776 115.449 325.855 117.187 327.761Z" fill="#DFE3E8"/>
<path d="M116.061 333.661L119.269 337.163C120.457 338.463 120.576 340.432 119.55 341.864C118.181 343.795 115.399 343.94 113.829 342.173L112.091 340.211C111.26 339.271 110.072 338.734 108.827 338.734H88.9014C83.6932 338.734 80.0294 338.431 75.0088 330.62L109.196 330.626C111.804 330.626 114.292 331.731 116.061 333.661Z" fill="#DFE3E8"/>
<path d="M16.0685 314.05V299.715H42.2593V308.176C40.5025 308.1 38.1078 307.886 36.2509 307.305C33.4624 306.441 30.7301 306.037 28.0479 309.747C24.5341 314.606 20.0199 315.136 16.0685 314.05Z" fill="#2B2B2B"/>
<path d="M119.163 330.891C119.025 330.891 118.894 330.847 118.781 330.765C118.481 330.55 118.419 330.134 118.631 329.837C119.557 328.537 119.444 326.739 118.369 325.559L115.805 322.764C113.873 320.644 111.135 319.439 108.284 319.439H101.237C100.875 319.439 100.581 319.142 100.581 318.776C100.581 318.41 100.875 318.107 101.237 318.107H108.284C111.497 318.107 114.592 319.477 116.774 321.862L119.331 324.657C120.832 326.297 120.982 328.802 119.694 330.613C119.569 330.796 119.363 330.891 119.163 330.891Z" fill="#2B2B2B"/>
<path d="M119.588 338.273C119.456 338.273 119.319 338.229 119.206 338.147C118.912 337.932 118.844 337.522 119.056 337.219L120.032 335.844C120.963 334.544 120.851 332.746 119.775 331.566L116.699 328.209C115.092 326.449 112.81 325.446 110.441 325.446H101.168C100.806 325.446 100.512 325.149 100.512 324.777C100.512 324.411 100.806 324.114 101.168 324.114H110.441C113.173 324.114 115.811 325.275 117.668 327.307L120.738 330.664C122.239 332.304 122.389 334.809 121.101 336.62L120.119 337.995C119.994 338.172 119.794 338.273 119.588 338.273Z" fill="#2B2B2B"/>
<path d="M116.562 344.072C115.336 344.072 114.167 343.548 113.342 342.614L111.603 340.652C110.897 339.857 109.884 339.396 108.827 339.396H86.7881C82.7366 339.396 78.9602 337.371 76.6844 333.97C76.4781 333.673 76.5531 333.257 76.8532 333.055C77.1596 332.847 77.566 332.929 77.7661 333.232C79.7981 336.26 83.1743 338.071 86.7881 338.071H108.827C110.253 338.071 111.622 338.69 112.579 339.769L114.317 341.731C114.93 342.419 115.811 342.785 116.73 342.74C117.649 342.69 118.481 342.229 119.019 341.472C119.857 340.305 119.756 338.677 118.781 337.617L115.58 334.109C113.936 332.317 111.61 331.295 109.196 331.295H101.481C101.118 331.295 100.825 330.992 100.825 330.626C100.825 330.26 101.118 329.97 101.481 329.97H109.196C111.979 329.97 114.655 331.15 116.543 333.213L119.75 336.715C121.144 338.235 121.282 340.57 120.082 342.248C119.313 343.334 118.118 343.996 116.799 344.065C116.718 344.072 116.643 344.072 116.562 344.072Z" fill="#2B2B2B"/>
<path d="M31.6805 339.434C27.3351 339.434 23.2524 337.724 20.1762 334.613C17.1001 331.509 15.412 327.376 15.412 322.978V299.052H42.9158V309.803C42.9158 310.99 43.3722 312.1 44.1976 312.939C45.0291 313.778 46.1233 314.233 47.2924 314.233C47.2987 314.233 47.2987 314.233 47.2987 314.233H77.2159C79.4355 314.233 81.1299 313.76 83.0931 313.211C85.4064 312.573 88.0324 311.835 91.9901 311.835H104.357C108.609 311.835 112.704 313.652 115.593 316.807L117.043 318.391C118.337 319.804 118.65 321.849 117.837 323.59C117.681 323.924 117.293 324.063 116.968 323.905C116.637 323.754 116.499 323.357 116.649 323.028C117.231 321.773 117.006 320.309 116.074 319.287L114.63 317.703C111.985 314.82 108.24 313.166 104.357 313.166H91.9901C88.2075 313.166 85.7878 313.842 83.4432 314.491C81.4737 315.04 79.6105 315.564 77.2159 315.564H47.2987H47.2924C45.7731 315.564 44.3476 314.965 43.2722 313.879C42.1968 312.788 41.6028 311.343 41.6028 309.803V300.383H16.725V322.978C16.725 327.022 18.2818 330.821 21.1078 333.679C23.9276 336.531 27.6852 338.102 31.6805 338.102H94.3972C94.7599 338.102 95.0537 338.405 95.0537 338.771C95.0537 339.137 94.7599 339.434 94.3972 339.434H31.6805Z" fill="#2B2B2B"/>
<path d="M487.76 72.9273H410.344L418.453 63.2231V15.623H487.76V72.9273Z" fill="#B9BEC6"/>
<path d="M452.009 54.3135C451.647 54.3135 451.353 54.0169 451.353 53.6509V45.6251C451.353 45.2591 451.647 44.9625 452.009 44.9625C456.818 44.9625 460.725 41.0064 460.725 36.1543C460.725 31.2958 456.818 27.3397 452.009 27.3397C449.427 27.3397 446.995 28.488 445.332 30.4882C445.101 30.7721 444.688 30.81 444.413 30.5765C444.132 30.3368 444.094 29.9203 444.325 29.6427C446.239 27.3334 449.04 26.0146 452.009 26.0146C457.537 26.0146 462.032 30.5639 462.032 36.1543C462.032 41.5175 457.887 45.9279 452.666 46.2686V53.6509C452.666 54.0169 452.372 54.3135 452.009 54.3135Z" fill="#2B2B2B"/>
<path d="M451.979 62.0873C451.616 62.0873 451.322 61.7908 451.322 61.4248V57.6264C451.322 57.2604 451.616 56.9639 451.979 56.9639C452.341 56.9639 452.635 57.2604 452.635 57.6264V61.4248C452.635 61.7908 452.341 62.0873 451.979 62.0873Z" fill="#2B2B2B"/>
<path d="M281.854 441.934H364.797V366.237H268.736L281.854 383.526V441.934Z" fill="white"/>
<path d="M282.51 441.266H364.14V366.9H270.068L282.373 383.122C282.466 383.236 282.51 383.381 282.51 383.526V441.266ZM364.797 442.591H281.854C281.491 442.591 281.197 442.301 281.197 441.935V383.753L268.217 366.642C268.067 366.44 268.036 366.168 268.149 365.941C268.261 365.714 268.486 365.575 268.736 365.575H364.797C365.159 365.575 365.453 365.872 365.453 366.238V441.935C365.453 442.301 365.159 442.591 364.797 442.591Z" fill="#2B2B2B"/>
<path d="M313.859 387.431C318.185 387.475 321.874 390.144 323.469 393.936C325.125 390.182 328.871 387.576 333.197 387.62C339.018 387.671 343.695 392.498 343.645 398.385C343.601 402.221 342.157 404.581 339.024 408.064L323.175 424.753L307.644 407.761C304.58 404.215 303.174 401.83 303.211 398C303.267 392.107 308.038 387.374 313.859 387.431Z" fill="#020202"/>
<path d="M313.759 388.094C311.152 388.094 308.695 389.11 306.831 390.959C304.943 392.827 303.893 395.332 303.868 398.007C303.83 401.692 305.218 403.944 308.138 407.326L323.187 423.782L338.549 407.604C341.525 404.298 342.951 402.064 342.988 398.379C343.007 395.71 342.007 393.186 340.156 391.281C338.305 389.375 335.83 388.309 333.191 388.284C333.16 388.284 333.129 388.284 333.097 388.284C329.196 388.284 325.663 390.599 324.063 394.209C323.963 394.448 323.75 394.593 323.463 394.6C323.2 394.593 322.962 394.436 322.862 394.196C321.324 390.53 317.785 388.132 313.853 388.094C313.821 388.094 313.79 388.094 313.759 388.094ZM323.175 425.416C323.175 425.416 323.175 425.416 323.169 425.416C322.987 425.416 322.819 425.334 322.694 425.202L307.163 408.21C304.068 404.638 302.517 402.077 302.555 397.988C302.586 394.966 303.774 392.133 305.912 390.013C308.044 387.893 310.877 386.732 313.865 386.769C317.873 386.807 321.524 389.003 323.481 392.473C325.488 389.072 329.127 386.959 333.097 386.959C333.129 386.959 333.166 386.959 333.204 386.959C336.192 386.984 338.999 388.189 341.094 390.347C343.189 392.511 344.326 395.37 344.295 398.392C344.258 402.48 342.657 405.011 339.512 408.506L323.65 425.208C323.525 425.34 323.356 425.416 323.175 425.416Z" fill="white"/>
<path d="M450.296 373.184C450.296 382.605 457.849 390.239 467.165 390.239C476.481 390.239 484.04 382.605 484.04 373.184C484.04 363.758 476.481 356.123 467.165 356.123C457.849 356.123 450.296 363.758 450.296 373.184Z" fill="#B9BEC6"/>
<path d="M425.319 393.742C425.319 401.143 431.252 407.144 438.567 407.144C445.883 407.144 451.816 401.143 451.816 393.742C451.816 386.341 445.883 380.347 438.567 380.347C431.252 380.347 425.319 386.341 425.319 393.742Z" fill="#B9BEC6"/>
<path d="M416.09 431.359C417.378 437.359 423.224 441.17 429.151 439.871C435.085 438.571 438.855 432.659 437.567 426.658C436.285 420.664 430.439 416.853 424.506 418.153C418.572 419.446 414.809 425.365 416.09 431.359Z" fill="#B9BEC6"/>
<path d="M439.549 461.545C439.48 461.545 439.418 461.538 439.349 461.513C439.005 461.406 438.811 461.034 438.924 460.68L471.529 357.581C471.642 357.227 472.011 357.038 472.355 357.145C472.705 357.259 472.892 357.631 472.78 357.984L440.174 461.084C440.087 461.368 439.83 461.545 439.549 461.545Z" fill="#2B2B2B"/>
<path d="M442.45 451.336C442.25 451.336 442.05 451.241 441.918 451.071L419.898 420.917C419.685 420.62 419.748 420.204 420.042 419.989C420.329 419.769 420.742 419.832 420.954 420.128L442.975 450.282C443.194 450.579 443.131 450.989 442.837 451.21C442.719 451.292 442.587 451.336 442.45 451.336Z" fill="#2B2B2B"/>
<path d="M452.872 420.797C452.641 420.797 452.416 420.671 452.291 420.45L435.235 388.789C435.06 388.467 435.178 388.063 435.497 387.886C435.81 387.716 436.21 387.829 436.385 388.158L453.448 419.813C453.623 420.135 453.504 420.539 453.185 420.715C453.085 420.766 452.979 420.797 452.872 420.797Z" fill="#2B2B2B"/>
<path d="M470.998 449.765C470.998 455.084 475.262 459.4 480.527 459.4C485.791 459.4 490.055 455.084 490.055 449.765C490.055 444.44 485.791 440.124 480.527 440.124C475.262 440.124 470.998 444.44 470.998 449.765Z" fill="#B9BEC6"/>
<path d="M464.427 408.266C464.427 416.607 471.117 423.371 479.37 423.371C487.617 423.371 494.306 416.607 494.306 408.266C494.306 399.918 487.617 393.154 479.37 393.154C471.117 393.154 464.427 399.918 464.427 408.266Z" fill="#B9BEC6"/>
<path d="M442.45 425.958C442.45 431.283 446.714 435.599 451.978 435.599C457.243 435.599 461.507 431.283 461.507 425.958C461.507 420.639 457.243 416.323 451.978 416.323C446.714 416.323 442.45 420.639 442.45 425.958Z" fill="#B9BEC6"/>
<path d="M457.631 452.813C457.293 452.813 457.005 452.56 456.974 452.213C456.943 451.847 457.206 451.526 457.568 451.488L488.961 448.535C489.33 448.503 489.642 448.768 489.674 449.134C489.711 449.5 489.449 449.822 489.086 449.86L457.693 452.813C457.674 452.813 457.649 452.813 457.631 452.813Z" fill="#2B2B2B"/>
<path d="M451.547 465.109C451.453 465.109 451.353 465.084 451.259 465.04C450.934 464.876 450.803 464.479 450.965 464.15L485.053 395.205C485.209 394.877 485.603 394.744 485.928 394.908C486.253 395.072 486.385 395.47 486.222 395.798L452.141 464.744C452.022 464.977 451.791 465.109 451.547 465.109Z" fill="#2B2B2B"/>
<path d="M460.557 446.9C460.294 446.9 460.05 446.749 459.944 446.496L448.165 417.844C448.027 417.51 448.183 417.118 448.521 416.973C448.852 416.834 449.24 416.999 449.378 417.333L461.163 445.985C461.301 446.326 461.138 446.711 460.807 446.849C460.725 446.887 460.638 446.9 460.557 446.9Z" fill="#2B2B2B"/>
<path d="M420.429 527.746H470.998V460.15H420.429V527.746Z" fill="#DFE3E8"/>
</svg>
