<svg width="25" height="25" viewBox="0 0 25 25" fill="none" xmlns="http://www.w3.org/2000/svg">
<path d="M7.32321 0.0873507C5.99312 0.150501 5.0849 0.362738 4.29128 0.674583C3.469 0.994892 2.77303 1.42457 2.07967 2.11988C1.38695 2.81583 0.959864 3.51244 0.642153 4.33535C0.334207 5.13156 0.125871 6.04041 0.0672772 7.37112C0.00803182 8.70183 -0.00498914 9.12956 0.00152134 12.5241C0.00803182 15.9185 0.023006 16.3437 0.0874598 17.6776C0.151262 19.007 0.362853 19.9152 0.674705 20.7095C0.995672 21.5311 1.42471 22.2271 2.12068 22.9204C2.816 23.6138 3.51262 24.0395 4.3375 24.3579C5.13308 24.6652 6.04195 24.8748 7.37269 24.9328C8.70278 24.9914 9.13117 25.005 12.5251 24.9985C15.9183 24.992 16.3454 24.977 17.6788 24.9139C19.0121 24.8501 19.9151 24.6372 20.7101 24.3266C21.5317 24.005 22.2283 23.5767 22.921 22.8807C23.6137 22.1847 24.0402 21.4875 24.3585 20.6639C24.6665 19.869 24.8755 18.9595 24.9334 17.6301C24.9914 16.2961 25.005 15.8697 24.9985 12.4759C24.992 9.08204 24.977 8.65626 24.9139 7.32359C24.8507 5.99028 24.6385 5.08534 24.3273 4.29043C24.0057 3.46882 23.5773 2.77287 22.8813 2.07951C22.186 1.38551 21.4881 0.959085 20.6645 0.642032C19.8689 0.334743 18.9607 0.125111 17.6299 0.0671686C16.2992 0.00987759 15.8708 -0.0050962 12.4763 0.00141414C9.08169 0.00792448 8.65655 0.0228983 7.32321 0.0873507ZM7.46904 22.6841C6.25028 22.6314 5.58882 22.4289 5.14806 22.2596C4.56407 22.0344 4.14805 21.7622 3.70794 21.3273C3.26848 20.8918 2.99895 20.4745 2.77043 19.8918C2.5992 19.4504 2.39347 18.7896 2.33618 17.5709C2.27433 16.2538 2.26131 15.858 2.25415 12.5208C2.24699 9.1836 2.25936 8.78907 2.3173 7.47073C2.36938 6.25329 2.57316 5.59054 2.74243 5.14979C2.96705 4.56516 3.23853 4.1498 3.67473 3.71101C4.11094 3.27156 4.52696 3.00138 5.1103 2.77287C5.55106 2.60099 6.21187 2.39657 7.42998 2.33863C8.74835 2.27613 9.14354 2.26376 12.4802 2.2566C15.8168 2.24878 16.2126 2.2618 17.5316 2.31975C18.7491 2.37248 19.4119 2.5743 19.8526 2.74487C20.4366 2.96948 20.8526 3.23966 21.2914 3.6765C21.7309 4.114 22.0017 4.5287 22.2296 5.11333C22.4021 5.55213 22.6066 6.21293 22.6639 7.43232C22.727 8.75001 22.7407 9.14519 22.7472 12.4817C22.753 15.8183 22.7413 16.2148 22.6834 17.5318C22.63 18.7505 22.4282 19.4126 22.2583 19.854C22.0336 20.438 21.7622 20.854 21.3259 21.2928C20.8891 21.7323 20.4737 22.0025 19.8897 22.2303C19.4496 22.4022 18.7882 22.6073 17.5707 22.6652C16.2523 22.7271 15.8578 22.7401 12.5199 22.7479C9.1813 22.7551 8.78807 22.7414 7.46969 22.6841M17.6599 5.81905C17.6599 5.91801 17.6697 6.01502 17.6892 6.11202C17.7081 6.20837 17.7367 6.30212 17.7745 6.39327C17.8129 6.48441 17.8591 6.57035 17.9138 6.65238C17.9685 6.73376 18.031 6.80993 18.1007 6.87959C18.1703 6.9486 18.2465 7.0111 18.3285 7.06513C18.4106 7.11982 18.4971 7.16604 18.5883 7.2038C18.6794 7.24091 18.7732 7.26956 18.8695 7.28844C18.9666 7.30732 19.0636 7.31708 19.1625 7.31708C19.2608 7.31643 19.3585 7.30667 19.4548 7.28714C19.5512 7.26826 19.6449 7.23961 19.7361 7.20185C19.8272 7.16344 19.9132 7.11722 19.9952 7.06253C20.0772 7.00784 20.1528 6.94534 20.2224 6.87568C20.2921 6.80602 20.3539 6.72985 20.4086 6.64782C20.4627 6.56579 20.5089 6.4792 20.5466 6.38806C20.5844 6.29691 20.6124 6.20316 20.6313 6.10681C20.6502 6.00981 20.6599 5.91215 20.6599 5.81385C20.6593 5.71554 20.6495 5.61788 20.63 5.52153C20.6111 5.42453 20.5825 5.33078 20.5447 5.24028C20.5063 5.14914 20.4601 5.06255 20.4054 4.98117C20.3507 4.89914 20.2882 4.82362 20.2185 4.75396C20.1482 4.6843 20.0727 4.62245 19.9907 4.56777C19.9086 4.51373 19.822 4.46751 19.7309 4.42975C19.6397 4.39264 19.546 4.36399 19.4496 4.34511C19.3526 4.32623 19.255 4.31647 19.1567 4.31712C19.0583 4.31712 18.9607 4.32688 18.8643 4.34642C18.7673 4.3653 18.6736 4.39394 18.5831 4.43235C18.4919 4.47011 18.406 4.51634 18.324 4.57102C18.2419 4.62571 18.1664 4.68821 18.0968 4.75787C18.0277 4.82753 17.9652 4.9037 17.9112 4.98573C17.8565 5.06776 17.8103 5.15435 17.7725 5.24549C17.7354 5.33599 17.7068 5.43039 17.6879 5.52674C17.669 5.62309 17.6592 5.72075 17.6599 5.81905ZM6.08231 12.5123C6.08882 16.0572 8.96776 18.9244 12.5121 18.9179C16.0564 18.9113 18.9262 16.0325 18.919 12.4876C18.9125 8.94271 16.0329 6.07426 12.488 6.08142C8.94302 6.08858 6.07515 8.96811 6.08231 12.5123ZM8.33363 12.5078C8.33298 12.3717 8.33949 12.2356 8.35252 12.0996C8.36619 11.9635 8.38572 11.8287 8.41176 11.6946C8.43845 11.5612 8.47101 11.429 8.51072 11.2982C8.54978 11.1673 8.59536 11.039 8.64744 10.9127C8.69952 10.7864 8.75747 10.6634 8.82192 10.543C8.88572 10.4225 8.95539 10.3053 9.03091 10.1914C9.10708 10.0781 9.18781 9.96874 9.2744 9.86263C9.36034 9.75716 9.45214 9.65625 9.54784 9.55924C9.64419 9.46289 9.74511 9.3711 9.85058 9.28386C9.95605 9.19727 10.0654 9.11589 10.1787 9.03972C10.292 8.96355 10.4085 8.89324 10.529 8.82878C10.6488 8.76433 10.7725 8.70574 10.8981 8.65366C11.0244 8.60092 11.1527 8.5547 11.2829 8.51499C11.4131 8.47527 11.5453 8.44142 11.6794 8.41473C11.8128 8.38803 11.9476 8.36785 12.0837 8.35418C12.2197 8.34051 12.3558 8.33335 12.4919 8.33335C12.6286 8.3327 12.7647 8.33921 12.9007 8.35223C13.0362 8.36525 13.1709 8.38543 13.305 8.41147C13.4392 8.43816 13.5713 8.47072 13.7022 8.50978C13.8324 8.54949 13.9613 8.59506 14.0869 8.64715C14.2132 8.69923 14.3369 8.75717 14.4574 8.82097C14.5778 8.88542 14.695 8.95508 14.8083 9.0306C14.9222 9.10612 15.0316 9.1875 15.1371 9.27344C15.2432 9.36003 15.3441 9.45117 15.4411 9.54753C15.5375 9.64388 15.6293 9.74479 15.7159 9.85026C15.8031 9.95507 15.8845 10.0644 15.96 10.1777C16.0362 10.291 16.1065 10.4082 16.171 10.528C16.2361 10.6484 16.294 10.7715 16.3467 10.8978C16.3995 11.0234 16.4457 11.1517 16.4854 11.2825C16.5251 11.4127 16.5583 11.5449 16.5857 11.679C16.6124 11.8125 16.6325 11.9472 16.6462 12.0833C16.6599 12.2187 16.667 12.3548 16.667 12.4915C16.6677 12.6282 16.6612 12.7643 16.6482 12.8997C16.6345 13.0358 16.615 13.1705 16.5889 13.3046C16.5622 13.4381 16.5297 13.5709 16.49 13.7011C16.4509 13.832 16.4053 13.9602 16.3532 14.0865C16.3012 14.2128 16.2432 14.3359 16.1788 14.4563C16.115 14.5768 16.0453 14.6939 15.9698 14.8079C15.8936 14.9212 15.8129 15.0312 15.7263 15.1367C15.6403 15.2421 15.5485 15.3437 15.4528 15.44C15.3565 15.537 15.2556 15.6288 15.1501 15.7154C15.0446 15.802 14.9353 15.8834 14.822 15.9596C14.7087 16.0357 14.5922 16.106 14.4717 16.1705C14.3519 16.2349 14.2282 16.2935 14.1026 16.3463C13.9763 16.3984 13.848 16.4446 13.7178 16.4843C13.5876 16.5247 13.4554 16.5579 13.3213 16.5846C13.1878 16.6119 13.0524 16.6321 12.917 16.6457C12.7809 16.6594 12.6449 16.6659 12.5088 16.6666C12.3721 16.6666 12.236 16.6601 12.0999 16.6471C11.9645 16.634 11.8291 16.6145 11.6956 16.5878C11.5615 16.5618 11.4294 16.5286 11.2985 16.4895C11.1676 16.4504 11.0394 16.4042 10.9131 16.3528C10.7874 16.3007 10.6637 16.2428 10.5433 16.1783C10.4228 16.1145 10.3057 16.0448 10.1924 15.9687C10.0784 15.8932 9.96907 15.8124 9.86295 15.7258C9.75748 15.6399 9.65656 15.5481 9.55956 15.4518C9.4632 15.3554 9.37141 15.2551 9.28417 15.1497C9.19758 15.0442 9.11619 14.9348 9.04002 14.8216C8.96385 14.7083 8.89419 14.5917 8.82908 14.4713C8.76463 14.3509 8.70603 14.2278 8.65395 14.1022C8.60122 13.9759 8.55499 13.8476 8.51528 13.7174C8.47556 13.5865 8.44171 13.4544 8.41502 13.3209C8.38832 13.1868 8.36814 13.052 8.35447 12.9166C8.3408 12.7806 8.33363 12.6445 8.33363 12.5078Z" fill="black"/>
</svg>
