<svg width="25" height="25" viewBox="0 0 25 25" fill="none" xmlns="http://www.w3.org/2000/svg">
<mask id="mask0_151_360" style="mask-type:luminance" maskUnits="userSpaceOnUse" x="0" y="0" width="25" height="25">
<path d="M0 0H25V25H0V0Z" fill="white"/>
</mask>
<g mask="url(#mask0_151_360)">
<path fill-rule="evenodd" clip-rule="evenodd" d="M21.3574 3.63021C19.0078 1.29036 15.8821 0.00130208 12.5523 0C5.69122 0 0.106653 5.55273 0.10469 12.3783C0.103382 14.5599 0.677214 16.6895 1.76599 18.5664L0 24.9818L6.59875 23.2604C8.41709 24.2467 10.4644 24.7663 12.5471 24.7669H12.5523C19.4128 24.7669 24.9974 19.2135 25 12.388C25.0013 9.08008 23.7077 5.9707 21.3574 3.63086V3.63021ZM12.5523 22.6764H12.5484C10.6921 22.6758 8.87118 22.179 7.28251 21.2422L6.90431 21.0189L2.98825 22.0404L4.03384 18.2435L3.78782 17.8542C2.75204 16.2161 2.20504 14.3223 2.20634 12.3789C2.20831 6.70638 6.84935 2.09049 12.5569 2.09049C15.3201 2.0918 17.9177 3.16341 19.8715 5.10807C21.8246 7.05273 22.8997 9.63802 22.8983 12.3867C22.8964 18.0599 18.2547 22.6758 12.5523 22.6758V22.6764ZM18.2272 14.9707C17.9164 14.8158 16.3873 14.0677 16.102 13.9648C15.8167 13.8613 15.61 13.8099 15.4025 14.1198C15.1958 14.4297 14.599 15.1263 14.4178 15.332C14.2365 15.5391 14.0546 15.5645 13.7438 15.4095C13.4331 15.2546 12.4306 14.9277 11.2424 13.8743C10.3179 13.054 9.69365 12.0417 9.51241 11.7318C9.33051 11.4219 9.49343 11.2546 9.6485 11.1009C9.78787 10.9616 9.9593 10.7396 10.115 10.5586C10.2708 10.3783 10.3224 10.2493 10.4258 10.043C10.5299 9.83659 10.4782 9.65625 10.4003 9.5013C10.3224 9.34635 9.70085 7.82357 9.44109 7.20443C9.18852 6.60156 8.93203 6.68359 8.74162 6.67383C8.56038 6.66471 8.35296 6.66276 8.14555 6.66276C7.93747 6.66276 7.60116 6.74023 7.31588 7.05013C7.0306 7.35937 6.2271 8.10807 6.2271 9.63021C6.2271 11.1517 7.34139 12.623 7.49712 12.8301C7.65285 13.0365 9.69038 16.1602 12.8101 17.5006C13.5521 17.819 14.1319 18.0098 14.584 18.1523C15.3286 18.388 16.0065 18.3548 16.5423 18.2747C17.1397 18.1862 18.3829 17.5267 18.642 16.804C18.9005 16.082 18.9005 15.4622 18.8233 15.3333C18.7454 15.2044 18.538 15.127 18.2272 14.972V14.9707Z" fill="black"/>
</g>
</svg>
