<svg width="324" height="68" viewBox="0 0 324 68" fill="none" xmlns="http://www.w3.org/2000/svg">
<mask id="mask0_55_39" style="mask-type:luminance" maskUnits="userSpaceOnUse" x="54" y="26" width="24" height="37">
<path d="M54.0298 26.5821H77.3134V63H54.0298V26.5821Z" fill="white"/>
</mask>
<g mask="url(#mask0_55_39)">
<mask id="mask1_55_39" style="mask-type:luminance" maskUnits="userSpaceOnUse" x="54" y="26" width="24" height="37">
<path d="M61.285 62.7028L54.3109 42.8042L54.3692 42.6736L61.6325 26.8399L77.1444 62.7028H61.285Z" fill="white"/>
</mask>
<g mask="url(#mask1_55_39)">
<path d="M54.3109 26.8399V62.7028H77.1444V26.8399H54.3109Z" fill="url(#paint0_linear_55_39)"/>
</g>
</g>
<mask id="mask2_55_39" style="mask-type:luminance" maskUnits="userSpaceOnUse" x="0" y="3" width="47" height="55">
<path d="M0 3H46.8656V57.6268H0V3Z" fill="white"/>
</mask>
<g mask="url(#mask2_55_39)">
<mask id="mask3_55_39" style="mask-type:luminance" maskUnits="userSpaceOnUse" x="0" y="3" width="47" height="55">
<path d="M0.132935 57.5557L29.0532 3.5259C29.1756 3.29735 29.4135 3.15393 29.6735 3.15393H34.4228C34.705 3.15393 34.9603 3.32184 35.0723 3.58187L46.6243 30.2878L40.6436 39.8832L32.0697 20.0581L17.5583 57.5557H0.132935Z" fill="white"/>
</mask>
<g mask="url(#mask3_55_39)">
<path d="M0.132935 3.15393V57.5557H46.6243V3.15393H0.132935Z" fill="url(#paint1_linear_55_39)"/>
</g>
</g>
<mask id="mask4_55_39" style="mask-type:luminance" maskUnits="userSpaceOnUse" x="26" y="11" width="43" height="52">
<path d="M26.5671 11.0597H68.6567V63H26.5671V11.0597Z" fill="white"/>
</mask>
<g mask="url(#mask4_55_39)">
<mask id="mask5_55_39" style="mask-type:luminance" maskUnits="userSpaceOnUse" x="26" y="11" width="43" height="52">
<path d="M27.0627 62.7025L26.7712 62.1382L57.9255 12.1545C58.2637 11.6123 58.8584 11.2823 59.4974 11.2823H67.6632C68.1786 11.2823 68.5191 11.8164 68.3045 12.2828L45.1853 62.7025H27.0627Z" fill="white"/>
</mask>
<g mask="url(#mask5_55_39)">
<path d="M26.7712 11.2823V62.7025H68.5191V11.2823H26.7712Z" fill="url(#paint2_linear_55_39)"/>
</g>
</g>
<mask id="mask6_55_39" style="mask-type:luminance" maskUnits="userSpaceOnUse" x="20" y="34" width="16" height="29">
<path d="M20.2985 34.3433H35.8209V62.4029H20.2985V34.3433Z" fill="white"/>
</mask>
<g mask="url(#mask6_55_39)">
<mask id="mask7_55_39" style="mask-type:luminance" maskUnits="userSpaceOnUse" x="20" y="34" width="16" height="29">
<path d="M26.7712 62.1383L20.5013 49.9508L26.496 34.4576L35.8022 47.649L26.7712 62.1383Z" fill="white"/>
</mask>
<g mask="url(#mask7_55_39)">
<path d="M20.5013 34.4576V62.1383H35.8022V34.4576H20.5013Z" fill="url(#paint3_linear_55_39)"/>
</g>
</g>
<path d="M87.85 28L97.3 7H101.14L110.62 28H106.54L98.41 9.07H99.97L91.87 28H87.85ZM92.2 23.14L93.25 20.08H104.59L105.64 23.14H92.2ZM110.848 28L120.298 7H124.138L133.618 28H129.538L121.408 9.07H122.968L114.868 28H110.848ZM115.198 23.14L116.248 20.08H127.588L128.638 23.14H115.198ZM90.82 62V41H100.66C103.18 41 105.1 41.5 106.42 42.5C107.74 43.48 108.4 44.8 108.4 46.46C108.4 47.58 108.14 48.54 107.62 49.34C107.1 50.12 106.4 50.73 105.52 51.17C104.66 51.59 103.72 51.8 102.7 51.8L103.24 50.72C104.42 50.72 105.48 50.94 106.42 51.38C107.36 51.8 108.1 52.42 108.64 53.24C109.2 54.06 109.48 55.08 109.48 56.3C109.48 58.1 108.79 59.5 107.41 60.5C106.03 61.5 103.98 62 101.26 62H90.82ZM94.72 58.94H101.02C102.48 58.94 103.6 58.7 104.38 58.22C105.16 57.74 105.55 56.97 105.55 55.91C105.55 54.87 105.16 54.11 104.38 53.63C103.6 53.13 102.48 52.88 101.02 52.88H94.42V49.85H100.24C101.6 49.85 102.64 49.61 103.36 49.13C104.1 48.65 104.47 47.93 104.47 46.97C104.47 45.99 104.1 45.26 103.36 44.78C102.64 44.3 101.6 44.06 100.24 44.06H94.72V58.94ZM120.062 62.21C118.702 62.21 117.502 61.96 116.462 61.46C115.422 60.94 114.612 60.16 114.032 59.12C113.452 58.06 113.162 56.73 113.162 55.13V45.98H116.912V54.62C116.912 56.06 117.232 57.14 117.872 57.86C118.532 58.56 119.462 58.91 120.662 58.91C121.542 58.91 122.302 58.73 122.942 58.37C123.602 58.01 124.112 57.47 124.472 56.75C124.852 56.03 125.042 55.14 125.042 54.08V45.98H128.792V62H125.222V57.68L125.852 59C125.312 60.04 124.522 60.84 123.482 61.4C122.442 61.94 121.302 62.21 120.062 62.21ZM138.652 62.21C137.312 62.21 136.022 62.04 134.782 61.7C133.562 61.34 132.592 60.91 131.872 60.41L133.312 57.56C134.032 58.02 134.892 58.4 135.892 58.7C136.892 59 137.892 59.15 138.892 59.15C140.072 59.15 140.922 58.99 141.442 58.67C141.982 58.35 142.252 57.92 142.252 57.38C142.252 56.94 142.072 56.61 141.712 56.39C141.352 56.15 140.882 55.97 140.302 55.85C139.722 55.73 139.072 55.62 138.352 55.52C137.652 55.42 136.942 55.29 136.222 55.13C135.522 54.95 134.882 54.7 134.302 54.38C133.722 54.04 133.252 53.59 132.892 53.03C132.532 52.47 132.352 51.73 132.352 50.81C132.352 49.79 132.642 48.91 133.222 48.17C133.802 47.41 134.612 46.83 135.652 46.43C136.712 46.01 137.962 45.8 139.402 45.8C140.482 45.8 141.572 45.92 142.672 46.16C143.772 46.4 144.682 46.74 145.402 47.18L143.962 50.03C143.202 49.57 142.432 49.26 141.652 49.1C140.892 48.92 140.132 48.83 139.372 48.83C138.232 48.83 137.382 49 136.822 49.34C136.282 49.68 136.012 50.11 136.012 50.63C136.012 51.11 136.192 51.47 136.552 51.71C136.912 51.95 137.382 52.14 137.962 52.28C138.542 52.42 139.182 52.54 139.882 52.64C140.602 52.72 141.312 52.85 142.012 53.03C142.712 53.21 143.352 53.46 143.932 53.78C144.532 54.08 145.012 54.51 145.372 55.07C145.732 55.63 145.912 56.36 145.912 57.26C145.912 58.26 145.612 59.13 145.012 59.87C144.432 60.61 143.602 61.19 142.522 61.61C141.442 62.01 140.152 62.21 138.652 62.21ZM149.142 62V45.98H152.892V62H149.142ZM151.032 43.34C150.332 43.34 149.752 43.12 149.292 42.68C148.852 42.24 148.632 41.71 148.632 41.09C148.632 40.45 148.852 39.92 149.292 39.5C149.752 39.06 150.332 38.84 151.032 38.84C151.732 38.84 152.302 39.05 152.742 39.47C153.202 39.87 153.432 40.38 153.432 41C153.432 41.66 153.212 42.22 152.772 42.68C152.332 43.12 151.752 43.34 151.032 43.34ZM166.904 45.8C168.184 45.8 169.324 46.05 170.324 46.55C171.344 47.05 172.144 47.82 172.724 48.86C173.304 49.88 173.594 51.2 173.594 52.82V62H169.844V53.3C169.844 51.88 169.504 50.82 168.824 50.12C168.164 49.42 167.234 49.07 166.034 49.07C165.154 49.07 164.374 49.25 163.694 49.61C163.014 49.97 162.484 50.51 162.104 51.23C161.744 51.93 161.564 52.82 161.564 53.9V62H157.814V45.98H161.384V50.3L160.754 48.98C161.314 47.96 162.124 47.18 163.184 46.64C164.264 46.08 165.504 45.8 166.904 45.8ZM185.91 62.21C184.13 62.21 182.57 61.86 181.23 61.16C179.91 60.44 178.88 59.46 178.14 58.22C177.42 56.98 177.06 55.57 177.06 53.99C177.06 52.39 177.41 50.98 178.11 49.76C178.83 48.52 179.81 47.55 181.05 46.85C182.31 46.15 183.74 45.8 185.34 45.8C186.9 45.8 188.29 46.14 189.51 46.82C190.73 47.5 191.69 48.46 192.39 49.7C193.09 50.94 193.44 52.4 193.44 54.08C193.44 54.24 193.43 54.42 193.41 54.62C193.41 54.82 193.4 55.01 193.38 55.19H180.03V52.7H191.4L189.93 53.48C189.95 52.56 189.76 51.75 189.36 51.05C188.96 50.35 188.41 49.8 187.71 49.4C187.03 49 186.24 48.8 185.34 48.8C184.42 48.8 183.61 49 182.91 49.4C182.23 49.8 181.69 50.36 181.29 51.08C180.91 51.78 180.72 52.61 180.72 53.57V54.17C180.72 55.13 180.94 55.98 181.38 56.72C181.82 57.46 182.44 58.03 183.24 58.43C184.04 58.83 184.96 59.03 186 59.03C186.9 59.03 187.71 58.89 188.43 58.61C189.15 58.33 189.79 57.89 190.35 57.29L192.36 59.6C191.64 60.44 190.73 61.09 189.63 61.55C188.55 61.99 187.31 62.21 185.91 62.21ZM201.992 62.21C200.652 62.21 199.362 62.04 198.122 61.7C196.902 61.34 195.932 60.91 195.212 60.41L196.652 57.56C197.372 58.02 198.232 58.4 199.232 58.7C200.232 59 201.232 59.15 202.232 59.15C203.412 59.15 204.262 58.99 204.782 58.67C205.322 58.35 205.592 57.92 205.592 57.38C205.592 56.94 205.412 56.61 205.052 56.39C204.692 56.15 204.222 55.97 203.642 55.85C203.062 55.73 202.412 55.62 201.692 55.52C200.992 55.42 200.282 55.29 199.562 55.13C198.862 54.95 198.222 54.7 197.642 54.38C197.062 54.04 196.592 53.59 196.232 53.03C195.872 52.47 195.692 51.73 195.692 50.81C195.692 49.79 195.982 48.91 196.562 48.17C197.142 47.41 197.952 46.83 198.992 46.43C200.052 46.01 201.302 45.8 202.742 45.8C203.822 45.8 204.912 45.92 206.012 46.16C207.112 46.4 208.022 46.74 208.742 47.18L207.302 50.03C206.542 49.57 205.772 49.26 204.992 49.1C204.232 48.92 203.472 48.83 202.712 48.83C201.572 48.83 200.722 49 200.162 49.34C199.622 49.68 199.352 50.11 199.352 50.63C199.352 51.11 199.532 51.47 199.892 51.71C200.252 51.95 200.722 52.14 201.302 52.28C201.882 52.42 202.522 52.54 203.222 52.64C203.942 52.72 204.652 52.85 205.352 53.03C206.052 53.21 206.692 53.46 207.272 53.78C207.872 54.08 208.352 54.51 208.712 55.07C209.072 55.63 209.252 56.36 209.252 57.26C209.252 58.26 208.952 59.13 208.352 59.87C207.772 60.61 206.942 61.19 205.862 61.61C204.782 62.01 203.492 62.21 201.992 62.21ZM217.431 62.21C216.091 62.21 214.801 62.04 213.561 61.7C212.341 61.34 211.371 60.91 210.651 60.41L212.091 57.56C212.811 58.02 213.671 58.4 214.671 58.7C215.671 59 216.671 59.15 217.671 59.15C218.851 59.15 219.701 58.99 220.221 58.67C220.761 58.35 221.031 57.92 221.031 57.38C221.031 56.94 220.851 56.61 220.491 56.39C220.131 56.15 219.661 55.97 219.081 55.85C218.501 55.73 217.851 55.62 217.131 55.52C216.431 55.42 215.721 55.29 215.001 55.13C214.301 54.95 213.661 54.7 213.081 54.38C212.501 54.04 212.031 53.59 211.671 53.03C211.311 52.47 211.131 51.73 211.131 50.81C211.131 49.79 211.421 48.91 212.001 48.17C212.581 47.41 213.391 46.83 214.431 46.43C215.491 46.01 216.741 45.8 218.181 45.8C219.261 45.8 220.351 45.92 221.451 46.16C222.551 46.4 223.461 46.74 224.181 47.18L222.741 50.03C221.981 49.57 221.211 49.26 220.431 49.1C219.671 48.92 218.911 48.83 218.151 48.83C217.011 48.83 216.161 49 215.601 49.34C215.061 49.68 214.791 50.11 214.791 50.63C214.791 51.11 214.971 51.47 215.331 51.71C215.691 51.95 216.161 52.14 216.741 52.28C217.321 52.42 217.961 52.54 218.661 52.64C219.381 52.72 220.091 52.85 220.791 53.03C221.491 53.21 222.131 53.46 222.711 53.78C223.311 54.08 223.791 54.51 224.151 55.07C224.511 55.63 224.691 56.36 224.691 57.26C224.691 58.26 224.391 59.13 223.791 59.87C223.211 60.61 222.381 61.19 221.301 61.61C220.221 62.01 218.931 62.21 217.431 62.21ZM240.832 62V44.3H233.872V41H251.692V44.3H244.732V62H240.832ZM256.803 62L250.923 45.98H254.463L259.503 60.11H257.823L263.103 45.98H266.253L271.383 60.11H269.733L274.923 45.98H278.253L272.343 62H268.743L264.063 49.49H265.173L260.403 62H256.803ZM280.831 62V45.98H284.581V62H280.831ZM282.721 43.34C282.021 43.34 281.441 43.12 280.981 42.68C280.541 42.24 280.321 41.71 280.321 41.09C280.321 40.45 280.541 39.92 280.981 39.5C281.441 39.06 282.021 38.84 282.721 38.84C283.421 38.84 283.991 39.05 284.431 39.47C284.891 39.87 285.121 40.38 285.121 41C285.121 41.66 284.901 42.22 284.461 42.68C284.021 43.12 283.441 43.34 282.721 43.34ZM298.593 45.8C299.873 45.8 301.013 46.05 302.013 46.55C303.033 47.05 303.833 47.82 304.413 48.86C304.993 49.88 305.283 51.2 305.283 52.82V62H301.533V53.3C301.533 51.88 301.193 50.82 300.513 50.12C299.853 49.42 298.923 49.07 297.723 49.07C296.843 49.07 296.063 49.25 295.383 49.61C294.703 49.97 294.173 50.51 293.793 51.23C293.433 51.93 293.253 52.82 293.253 53.9V62H289.503V45.98H293.073V50.3L292.443 48.98C293.003 47.96 293.813 47.18 294.873 46.64C295.953 46.08 297.193 45.8 298.593 45.8ZM314.99 62.21C313.65 62.21 312.36 62.04 311.12 61.7C309.9 61.34 308.93 60.91 308.21 60.41L309.65 57.56C310.37 58.02 311.23 58.4 312.23 58.7C313.23 59 314.23 59.15 315.23 59.15C316.41 59.15 317.26 58.99 317.78 58.67C318.32 58.35 318.59 57.92 318.59 57.38C318.59 56.94 318.41 56.61 318.05 56.39C317.69 56.15 317.22 55.97 316.64 55.85C316.06 55.73 315.41 55.62 314.69 55.52C313.99 55.42 313.28 55.29 312.56 55.13C311.86 54.95 311.22 54.7 310.64 54.38C310.06 54.04 309.59 53.59 309.23 53.03C308.87 52.47 308.69 51.73 308.69 50.81C308.69 49.79 308.98 48.91 309.56 48.17C310.14 47.41 310.95 46.83 311.99 46.43C313.05 46.01 314.3 45.8 315.74 45.8C316.82 45.8 317.91 45.92 319.01 46.16C320.11 46.4 321.02 46.74 321.74 47.18L320.3 50.03C319.54 49.57 318.77 49.26 317.99 49.1C317.23 48.92 316.47 48.83 315.71 48.83C314.57 48.83 313.72 49 313.16 49.34C312.62 49.68 312.35 50.11 312.35 50.63C312.35 51.11 312.53 51.47 312.89 51.71C313.25 51.95 313.72 52.14 314.3 52.28C314.88 52.42 315.52 52.54 316.22 52.64C316.94 52.72 317.65 52.85 318.35 53.03C319.05 53.21 319.69 53.46 320.27 53.78C320.87 54.08 321.35 54.51 321.71 55.07C322.07 55.63 322.25 56.36 322.25 57.26C322.25 58.26 321.95 59.13 321.35 59.87C320.77 60.61 319.94 61.19 318.86 61.61C317.78 62.01 316.49 62.21 314.99 62.21Z" fill="#161616"/>
<defs>
<linearGradient id="paint0_linear_55_39" x1="65.7277" y1="26.8399" x2="65.7277" y2="62.7028" gradientUnits="userSpaceOnUse">
<stop/>
<stop offset="1" stop-color="#666666"/>
</linearGradient>
<linearGradient id="paint1_linear_55_39" x1="23.3786" y1="3.15393" x2="23.3786" y2="57.5557" gradientUnits="userSpaceOnUse">
<stop/>
<stop offset="1" stop-color="#666666"/>
</linearGradient>
<linearGradient id="paint2_linear_55_39" x1="47.6451" y1="11.2823" x2="47.6451" y2="62.7025" gradientUnits="userSpaceOnUse">
<stop/>
<stop offset="1" stop-color="#666666"/>
</linearGradient>
<linearGradient id="paint3_linear_55_39" x1="28.1518" y1="34.4576" x2="28.1518" y2="62.1383" gradientUnits="userSpaceOnUse">
<stop/>
<stop offset="1" stop-color="#666666"/>
</linearGradient>
</defs>
</svg>
