<svg width="78" height="60" viewBox="0 0 78 60" fill="none" xmlns="http://www.w3.org/2000/svg">
<mask id="mask0_87_39" style="mask-type:luminance" maskUnits="userSpaceOnUse" x="54" y="23" width="24" height="37">
<path d="M54.0298 23.5822H77.3134V60H54.0298V23.5822Z" fill="white"/>
</mask>
<g mask="url(#mask0_87_39)">
<mask id="mask1_87_39" style="mask-type:luminance" maskUnits="userSpaceOnUse" x="54" y="23" width="24" height="37">
<path d="M61.2849 59.7028L54.3108 39.8043L54.3691 39.6737L61.6324 23.84L77.1443 59.7028H61.2849Z" fill="white"/>
</mask>
<g mask="url(#mask1_87_39)">
<path d="M54.3108 23.84V59.7028H77.1443V23.84H54.3108Z" fill="url(#paint0_linear_87_39)"/>
</g>
</g>
<mask id="mask2_87_39" style="mask-type:luminance" maskUnits="userSpaceOnUse" x="0" y="0" width="47" height="55">
<path d="M0 0H46.8656V54.6268H0V0Z" fill="white"/>
</mask>
<g mask="url(#mask2_87_39)">
<mask id="mask3_87_39" style="mask-type:luminance" maskUnits="userSpaceOnUse" x="0" y="0" width="47" height="55">
<path d="M0.132812 54.5557L29.053 0.525899C29.1755 0.297354 29.4133 0.153931 29.6734 0.153931H34.4227C34.7049 0.153931 34.9602 0.321841 35.0722 0.581869L46.6242 27.2878L40.6435 36.8832L32.0696 17.0581L17.5582 54.5557H0.132812Z" fill="white"/>
</mask>
<g mask="url(#mask3_87_39)">
<path d="M0.132812 0.153931V54.5557H46.6242V0.153931H0.132812Z" fill="url(#paint1_linear_87_39)"/>
</g>
</g>
<mask id="mask4_87_39" style="mask-type:luminance" maskUnits="userSpaceOnUse" x="26" y="8" width="43" height="52">
<path d="M26.5671 8.05969H68.6567V60H26.5671V8.05969Z" fill="white"/>
</mask>
<g mask="url(#mask4_87_39)">
<mask id="mask5_87_39" style="mask-type:luminance" maskUnits="userSpaceOnUse" x="26" y="8" width="43" height="52">
<path d="M27.0628 59.7026L26.7712 59.1382L57.9256 9.15455C58.2638 8.61234 58.8584 8.28235 59.4974 8.28235H67.6632C68.1786 8.28235 68.5191 8.8164 68.3046 9.28281L45.1854 59.7026H27.0628Z" fill="white"/>
</mask>
<g mask="url(#mask5_87_39)">
<path d="M26.7712 8.28235V59.7026H68.5191V8.28235H26.7712Z" fill="url(#paint2_linear_87_39)"/>
</g>
</g>
<mask id="mask6_87_39" style="mask-type:luminance" maskUnits="userSpaceOnUse" x="20" y="31" width="16" height="29">
<path d="M20.2986 31.3433H35.821V59.4029H20.2986V31.3433Z" fill="white"/>
</mask>
<g mask="url(#mask6_87_39)">
<mask id="mask7_87_39" style="mask-type:luminance" maskUnits="userSpaceOnUse" x="20" y="31" width="16" height="29">
<path d="M26.7713 59.1382L20.5015 46.9507L26.4961 31.4575L35.8023 44.649L26.7713 59.1382Z" fill="white"/>
</mask>
<g mask="url(#mask7_87_39)">
<path d="M20.5015 31.4575V59.1382H35.8023V31.4575H20.5015Z" fill="url(#paint3_linear_87_39)"/>
</g>
</g>
<defs>
<linearGradient id="paint0_linear_87_39" x1="65.7275" y1="23.84" x2="65.7275" y2="59.7028" gradientUnits="userSpaceOnUse">
<stop stop-color="#0475C7"/>
<stop offset="1" stop-color="#F9F9F9"/>
</linearGradient>
<linearGradient id="paint1_linear_87_39" x1="23.3785" y1="0.153931" x2="23.3785" y2="54.5557" gradientUnits="userSpaceOnUse">
<stop stop-color="#0475C7"/>
<stop offset="1" stop-color="#F9F9F9"/>
</linearGradient>
<linearGradient id="paint2_linear_87_39" x1="47.6452" y1="8.28235" x2="47.6452" y2="59.7026" gradientUnits="userSpaceOnUse">
<stop stop-color="#0475C7"/>
<stop offset="1" stop-color="#F9F9F9"/>
</linearGradient>
<linearGradient id="paint3_linear_87_39" x1="28.1519" y1="31.4575" x2="28.1519" y2="59.1382" gradientUnits="userSpaceOnUse">
<stop stop-color="#0475C7"/>
<stop offset="1" stop-color="#F9F9F9"/>
</linearGradient>
</defs>
</svg>
