<svg width="52" height="70" viewBox="0 0 52 70" fill="none" xmlns="http://www.w3.org/2000/svg">
<path d="M15.0739 0.0634766C15.0739 0.0634766 -0.19609 0.264682 0.00190901 14.1046C0.199908 27.9453 2.97751 40.1836 7.53871 47.0038C12.0999 53.8231 23.7979 71.6768 37.0855 69.8723C37.0855 69.8723 43.6299 68.4679 48.5863 65.2574L32.5243 52.6191C32.5243 52.6191 27.7651 55.6292 24.7903 51.6163C21.8155 47.6042 12.4959 28.9498 12.4959 28.9498C12.4959 28.9498 9.91791 22.9312 15.6687 20.3235L15.0739 0.0634766Z" fill="black"/>
<path d="M16.8591 0.0637964C16.8591 0.0637964 18.0487 -0.336211 20.2291 0.867017C22.4095 2.06944 22.4103 3.07146 22.4103 3.07146L22.6091 16.9138C22.6091 16.9138 22.0135 17.717 21.2215 18.5178C20.4279 19.3202 17.8499 20.5251 17.4531 19.7219C17.0571 18.9202 16.8591 0.0637964 16.8591 0.0637964Z" fill="black"/>
<path d="M33.8599 51.1406L38.2752 48.8087C38.2752 48.8087 39.2668 48.6091 40.8524 49.6103C42.4388 50.6155 50.7676 57.2361 50.7676 57.2361C50.7676 57.2361 52.156 58.4393 51.7592 59.843C51.3624 61.2474 50.3716 64.2567 50.3716 64.2567L33.8599 51.1406Z" fill="black"/>
</svg>
