<svg width="69" height="70" viewBox="0 0 69 70" fill="none" xmlns="http://www.w3.org/2000/svg">
<path d="M51.0854 6.73389L46.838 10.9813L34.4203 23.5084L17.6458 6.73389H8.38721V33.9646L17.7552 41.4805V19.6966L34.4203 35.8167L51.0854 19.6966V41.4805L60.4534 33.9646V6.73389H51.0854Z" fill="black"/>
<path d="M68.0786 69.0393H0.761963L31.5893 44.4227C33.2226 43.1156 35.618 43.1156 37.3607 44.4227L68.0786 69.0393Z" fill="#D3D6DE"/>
<mask id="mask0_36_1504" style="mask-type:luminance" maskUnits="userSpaceOnUse" x="0" y="0" width="69" height="70">
<path d="M0 0H68.95V70H0V0Z" fill="white"/>
</mask>
<g mask="url(#mask0_36_1504)">
<path d="M68.8406 68.93V27.8651C68.8406 27.7557 68.8406 27.7557 68.8406 27.6482C68.8406 27.4294 68.7313 27.3201 68.5143 27.2125L61.3247 21.4393V6.73385C61.3247 6.29818 60.9984 5.8625 60.4534 5.8625C54.899 5.8625 47.3831 5.8625 41.8268 5.8625L34.856 0.30625C34.5297 0.0893229 34.094 0.0893229 33.8753 0.30625L26.9044 5.8625C20.4786 5.8625 14.9224 5.8625 8.38724 5.8625H8.27787C7.84219 5.97188 7.51589 6.29818 7.51589 6.73385V21.4393L7.18958 21.7656L0.21875 27.3201L0.109375 27.4294C0 27.5388 0 27.6482 0 27.7557C0 27.7557 0 27.8651 0 27.9745V69.1487V69.2563V69.3656C0 69.475 0.109375 69.5844 0.109375 69.5844L0.21875 69.6938C0.21875 69.6938 0.326302 69.8013 0.435677 69.8013C0.654427 69.9107 0.654427 69.9107 0.761979 69.9107H68.0787C68.188 69.9107 68.2956 69.9107 68.405 69.8013C68.5143 69.8013 68.5143 69.6938 68.6237 69.6938C68.8406 69.5844 68.95 69.3656 68.95 69.0393C68.8406 69.0393 68.8406 69.0393 68.8406 68.93ZM66.7716 27.8651L61.4341 32.2219V23.6177L65.7909 27.1031L66.7716 27.8651ZM34.4203 2.05078L39.3221 5.97188H29.5185L34.4203 2.05078ZM41.3911 7.60521C41.7193 7.71458 40.1935 7.60521 49.1258 7.60521L34.4203 22.4182L19.7148 7.60521H41.3911ZM17.3195 7.60521L33.8753 24.1628C34.2034 24.4891 34.7466 24.4891 35.0747 24.1628L51.4135 7.60521H59.582V33.6383C59.4727 33.7477 51.4135 40.1734 51.8492 39.7378V19.6966C51.8492 19.3685 51.6305 19.0422 51.3042 18.9328C51.1948 18.9328 51.0854 18.8253 50.9779 18.8253C50.7591 18.8253 50.5422 18.9328 50.4328 19.0422L34.4203 34.619L18.3003 19.1516C18.0815 18.9328 17.7552 18.8253 17.4289 19.0422C17.1008 19.1516 16.8839 19.4779 16.8839 19.8042V39.8471C16.7745 39.7378 11.982 35.926 12.199 36.143L9.14922 33.6383V7.60521H17.3195ZM42.2625 47.4724L37.7964 43.8776C35.8367 42.3518 33.0039 42.3518 31.0443 43.8776L26.5781 47.4724L18.5172 41.0448V21.6563L33.8753 36.4711C34.2034 36.7974 34.7466 36.7974 34.9654 36.4711L50.3234 21.6563V41.0448L42.2625 47.4724ZM7.51589 23.6177V32.2219L2.17839 27.8651L7.51589 23.6177ZM25.1617 48.4531L1.63333 67.406V29.6078C1.41641 29.3909 24.726 48.125 25.1617 48.4531ZM3.15911 68.2774C3.26849 68.168 32.2419 45.0753 32.1326 45.0753C33.4396 43.987 35.5104 43.987 36.8175 45.0753C36.925 45.1846 42.6982 49.7602 42.3719 49.432L65.7909 68.168H3.15911V68.2774ZM43.5695 48.4531C43.6789 48.3438 67.4242 29.3909 67.2073 29.4984V67.2966L43.5695 48.4531Z" fill="#010101"/>
</g>
</svg>
