<svg xmlns="http://www.w3.org/2000/svg" xmlns:xlink="http://www.w3.org/1999/xlink" width="500" zoomAndPan="magnify" viewBox="0 0 375 374.999991" height="500" preserveAspectRatio="xMidYMid meet" version="1.0"><defs><clipPath id="b3365c9c1f"><path d="M 112.5 112.5 L 262.5 112.5 L 262.5 262.5 L 112.5 262.5 Z M 112.5 112.5 " clip-rule="nonzero"/></clipPath><clipPath id="d80b336db8"><path d="M 262.5 224.433594 C 262.5 225.257812 262.472656 227.027344 262.421875 228.417969 C 262.292969 231.78125 262.039062 236.121094 261.625 238.097656 C 261.011719 241.078125 260.109375 243.878906 258.902344 246.214844 C 257.492188 248.988281 255.695312 251.457031 253.535156 253.585938 C 251.402344 255.71875 248.9375 257.515625 246.164062 258.929688 C 243.828125 260.136719 241 261.035156 237.996094 261.652344 C 236.042969 262.039062 231.730469 262.320312 228.390625 262.421875 C 227.003906 262.472656 225.230469 262.5 224.410156 262.5 L 150.539062 262.5 C 149.71875 262.5 147.945312 262.472656 146.558594 262.421875 C 143.195312 262.292969 138.851562 262.039062 136.875 261.625 C 133.894531 261.011719 131.097656 260.109375 128.757812 258.902344 C 125.984375 257.492188 123.519531 255.695312 121.386719 253.535156 C 119.253906 251.402344 117.457031 248.9375 116.042969 246.164062 C 114.835938 243.828125 113.9375 241 113.320312 237.996094 C 112.9375 236.042969 112.652344 231.730469 112.550781 228.390625 C 112.527344 227.027344 112.5 225.257812 112.5 224.433594 L 112.5 150.566406 C 112.5 149.742188 112.527344 147.972656 112.578125 146.582031 C 112.707031 143.21875 112.960938 138.878906 113.375 136.902344 C 113.988281 133.921875 114.890625 131.121094 116.097656 128.785156 C 117.507812 126.011719 119.304688 123.542969 121.4375 121.414062 C 123.570312 119.28125 126.035156 117.484375 128.808594 116.070312 C 131.148438 114.863281 133.972656 113.964844 136.976562 113.347656 C 138.929688 112.960938 143.246094 112.679688 146.582031 112.578125 C 147.972656 112.527344 149.742188 112.5 150.566406 112.5 L 224.433594 112.5 C 225.257812 112.5 227.027344 112.527344 228.417969 112.578125 C 231.78125 112.707031 236.121094 112.960938 238.097656 113.375 C 241.078125 113.988281 243.878906 114.890625 246.214844 116.097656 C 248.988281 117.507812 251.457031 119.304688 253.585938 121.464844 C 255.71875 123.597656 257.515625 126.0625 258.929688 128.835938 C 260.136719 131.171875 261.035156 134 261.652344 137.003906 C 262.039062 138.957031 262.320312 143.269531 262.421875 146.609375 C 262.472656 147.996094 262.5 149.769531 262.5 150.589844 Z M 262.5 224.433594 " clip-rule="evenodd"/></clipPath><linearGradient x1="292.022" gradientTransform="matrix(0.256849, 0, 0, 0.256849, 112.500002, 112.499997)" y1="583.999938" x2="292.022" gradientUnits="userSpaceOnUse" y2="-0.0000171175" id="0918720367"><stop stop-opacity="1" stop-color="black" offset="0"/><stop stop-opacity="1" stop-color="black" offset="0.015625"/><stop stop-opacity="1" stop-color="black" offset="0.03125"/><stop stop-opacity="1" stop-color="black" offset="0.046875"/><stop stop-opacity="1" stop-color="black" offset="0.0625"/><stop stop-opacity="1" stop-color="black" offset="0.078125"/><stop stop-opacity="1" stop-color="black" offset="0.09375"/><stop stop-opacity="1" stop-color="black" offset="0.109375"/><stop stop-opacity="1" stop-color="black" offset="0.125"/><stop stop-opacity="1" stop-color="black" offset="0.140625"/><stop stop-opacity="1" stop-color="black" offset="0.15625"/><stop stop-opacity="1" stop-color="black" offset="0.171875"/><stop stop-opacity="1" stop-color="black" offset="0.1875"/><stop stop-opacity="1" stop-color="black" offset="0.203125"/><stop stop-opacity="1" stop-color="black" offset="0.21875"/><stop stop-opacity="1" stop-color="black" offset="0.234375"/><stop stop-opacity="1" stop-color="black" offset="0.25"/><stop stop-opacity="1" stop-color="black" offset="0.265625"/><stop stop-opacity="1" stop-color="black" offset="0.28125"/><stop stop-opacity="1" stop-color="black" offset="0.296875"/><stop stop-opacity="1" stop-color="black" offset="0.3125"/><stop stop-opacity="1" stop-color="black" offset="0.328125"/><stop stop-opacity="1" stop-color="black" offset="0.34375"/><stop stop-opacity="1" stop-color="black" offset="0.359375"/><stop stop-opacity="1" stop-color="black" offset="0.375"/><stop stop-opacity="1" stop-color="black" offset="0.390625"/><stop stop-opacity="1" stop-color="black" offset="0.40625"/><stop stop-opacity="1" stop-color="black" offset="0.421875"/><stop stop-opacity="1" stop-color="black" offset="0.4375"/><stop stop-opacity="1" stop-color="black" offset="0.453125"/><stop stop-opacity="1" stop-color="black" offset="0.46875"/><stop stop-opacity="1" stop-color="black" offset="0.484375"/><stop stop-opacity="1" stop-color="black" offset="0.5"/><stop stop-opacity="1" stop-color="black" offset="0.515625"/><stop stop-opacity="1" stop-color="black" offset="0.53125"/><stop stop-opacity="1" stop-color="black" offset="0.546875"/><stop stop-opacity="1" stop-color="black" offset="0.5625"/><stop stop-opacity="1" stop-color="black" offset="0.578125"/><stop stop-opacity="1" stop-color="black" offset="0.59375"/><stop stop-opacity="1" stop-color="black" offset="0.609375"/><stop stop-opacity="1" stop-color="black" offset="0.625"/><stop stop-opacity="1" stop-color="black" offset="0.640625"/><stop stop-opacity="1" stop-color="black" offset="0.65625"/><stop stop-opacity="1" stop-color="black" offset="0.671875"/><stop stop-opacity="1" stop-color="black" offset="0.6875"/><stop stop-opacity="1" stop-color="black" offset="0.703125"/><stop stop-opacity="1" stop-color="black" offset="0.71875"/><stop stop-opacity="1" stop-color="black" offset="0.734375"/><stop stop-opacity="1" stop-color="black" offset="0.75"/><stop stop-opacity="1" stop-color="black" offset="0.765625"/><stop stop-opacity="1" stop-color="black" offset="0.78125"/><stop stop-opacity="1" stop-color="black" offset="0.796875"/><stop stop-opacity="1" stop-color="black" offset="0.8125"/><stop stop-opacity="1" stop-color="black" offset="0.828125"/><stop stop-opacity="1" stop-color="black" offset="0.84375"/><stop stop-opacity="1" stop-color="black" offset="0.859375"/><stop stop-opacity="1" stop-color="black" offset="0.875"/><stop stop-opacity="1" stop-color="black" offset="0.890625"/><stop stop-opacity="1" stop-color="black" offset="0.90625"/><stop stop-opacity="1" stop-color="black" offset="0.921875"/><stop stop-opacity="1" stop-color="black" offset="0.9375"/><stop stop-opacity="1" stop-color="black" offset="0.953125"/><stop stop-opacity="1" stop-color="black" offset="0.96875"/><stop stop-opacity="1" stop-color="black" offset="0.984375"/><stop stop-opacity="1" stop-color="rgb(37.815857%, 99.058533%, 48.822021%)" offset="1"/></linearGradient></defs><g clip-path="url(#b3365c9c1f)"><g clip-path="url(#d80b336db8)"><path fill="url(#0918720367)" d="M 112.5 112.5 L 112.5 262.5 L 262.5 262.5 L 262.5 112.5 Z M 112.5 112.5 " fill-rule="nonzero"/></g></g><path fill="#ffffff" d="M 226.953125 148.40625 C 216.859375 138.3125 203.425781 132.738281 189.117188 132.738281 C 159.632812 132.738281 135.667969 156.730469 135.640625 186.191406 C 135.640625 195.617188 138.109375 204.8125 142.78125 212.902344 L 135.207031 240.617188 L 163.5625 233.195312 C 171.371094 237.457031 180.152344 239.691406 189.117188 239.691406 L 189.144531 239.691406 C 218.605469 239.691406 242.59375 215.703125 242.621094 186.242188 C 242.621094 171.933594 237.046875 158.5 226.953125 148.40625 Z M 189.144531 230.652344 C 181.15625 230.652344 173.320312 228.492188 166.515625 224.460938 L 164.898438 223.511719 L 148.074219 227.929688 L 152.570312 211.542969 L 151.515625 209.871094 C 147.070312 202.808594 144.707031 194.613281 144.707031 186.214844 C 144.707031 161.710938 164.667969 141.78125 189.167969 141.78125 C 201.035156 141.78125 212.207031 146.402344 220.582031 154.804688 C 228.980469 163.203125 233.605469 174.375 233.578125 186.242188 C 233.554688 210.71875 213.621094 230.652344 189.144531 230.652344 Z M 213.519531 197.390625 C 212.183594 196.722656 205.609375 193.484375 204.402344 193.046875 C 203.167969 192.609375 202.292969 192.378906 201.394531 193.714844 C 200.496094 195.050781 197.953125 198.054688 197.15625 198.957031 C 196.386719 199.855469 195.589844 199.957031 194.253906 199.289062 C 192.917969 198.621094 188.605469 197.207031 183.519531 192.664062 C 179.539062 189.117188 176.867188 184.75 176.097656 183.417969 C 175.324219 182.082031 176.019531 181.359375 176.6875 180.695312 C 177.277344 180.101562 178.023438 179.125 178.691406 178.355469 C 179.359375 177.585938 179.589844 177.019531 180.027344 176.121094 C 180.460938 175.222656 180.257812 174.453125 179.921875 173.785156 C 179.589844 173.117188 176.917969 166.542969 175.8125 163.871094 C 174.734375 161.277344 173.628906 161.609375 172.808594 161.582031 C 172.039062 161.53125 171.140625 161.53125 170.238281 161.53125 C 169.339844 161.53125 167.902344 161.867188 166.667969 163.203125 C 165.4375 164.539062 161.996094 167.773438 161.996094 174.347656 C 161.996094 180.925781 166.773438 187.269531 167.441406 188.167969 C 168.109375 189.066406 176.867188 202.550781 190.273438 208.332031 C 193.457031 209.71875 195.949219 210.539062 197.902344 211.15625 C 201.113281 212.183594 204.015625 212.027344 206.328125 211.695312 C 208.894531 211.308594 214.238281 208.457031 215.34375 205.351562 C 216.445312 202.242188 216.445312 199.546875 216.113281 199.007812 C 215.726562 198.390625 214.855469 198.054688 213.519531 197.390625 Z M 213.519531 197.390625 " fill-opacity="1" fill-rule="evenodd"/></svg>