<svg xmlns="http://www.w3.org/2000/svg" xmlns:xlink="http://www.w3.org/1999/xlink" width="150" zoomAndPan="magnify" viewBox="0 0 112.5 112.499997" height="150" preserveAspectRatio="xMidYMid meet" version="1.0"><defs><clipPath id="22d008acf7"><path d="M 2.757812 2.757812 L 109.535156 2.757812 L 109.535156 109.535156 L 2.757812 109.535156 Z M 2.757812 2.757812 " clip-rule="nonzero"/></clipPath></defs><g clip-path="url(#22d008acf7)"><path fill="#000000" d="M 34.035156 3.132812 C 28.355469 3.402344 24.476562 4.308594 21.085938 5.640625 C 17.574219 7.007812 14.601562 8.84375 11.640625 11.8125 C 8.679688 14.785156 6.859375 17.761719 5.5 21.277344 C 4.183594 24.675781 3.296875 28.558594 3.042969 34.242188 C 2.792969 39.925781 2.738281 41.75 2.765625 56.25 C 2.792969 70.746094 2.855469 72.5625 3.132812 78.261719 C 3.402344 83.9375 4.308594 87.816406 5.640625 91.210938 C 7.007812 94.71875 8.84375 97.691406 11.816406 100.652344 C 14.785156 103.613281 17.761719 105.433594 21.285156 106.792969 C 24.679688 108.105469 28.5625 109 34.246094 109.25 C 39.929688 109.5 41.757812 109.554688 56.25 109.527344 C 70.746094 109.5 72.570312 109.4375 78.265625 109.164062 C 83.957031 108.894531 87.816406 107.984375 91.210938 106.660156 C 94.71875 105.285156 97.695312 103.457031 100.652344 100.484375 C 103.613281 97.511719 105.433594 94.53125 106.792969 91.015625 C 108.105469 87.621094 109 83.738281 109.246094 78.058594 C 109.496094 72.359375 109.554688 70.539062 109.527344 56.042969 C 109.5 41.546875 109.433594 39.730469 109.164062 34.039062 C 108.894531 28.34375 107.988281 24.476562 106.65625 21.082031 C 105.285156 17.574219 103.453125 14.601562 100.484375 11.640625 C 97.511719 8.675781 94.53125 6.855469 91.015625 5.503906 C 87.617188 4.1875 83.738281 3.292969 78.054688 3.046875 C 72.371094 2.800781 70.542969 2.738281 56.042969 2.765625 C 41.546875 2.792969 39.730469 2.855469 34.035156 3.132812 M 34.660156 99.644531 C 29.453125 99.417969 26.628906 98.554688 24.742188 97.828125 C 22.25 96.867188 20.472656 95.707031 18.597656 93.847656 C 16.71875 91.988281 15.566406 90.207031 14.589844 87.71875 C 13.859375 85.832031 12.980469 83.011719 12.734375 77.804688 C 12.472656 72.179688 12.414062 70.488281 12.382812 56.238281 C 12.355469 41.984375 12.410156 40.296875 12.65625 34.667969 C 12.878906 29.464844 13.746094 26.636719 14.46875 24.753906 C 15.429688 22.257812 16.589844 20.484375 18.453125 18.609375 C 20.316406 16.730469 22.09375 15.578125 24.582031 14.601562 C 26.464844 13.867188 29.289062 12.996094 34.492188 12.746094 C 40.121094 12.480469 41.808594 12.425781 56.058594 12.394531 C 70.3125 12.363281 72.003906 12.417969 77.636719 12.664062 C 82.835938 12.890625 85.667969 13.753906 87.546875 14.480469 C 90.042969 15.441406 91.816406 16.597656 93.695312 18.460938 C 95.570312 20.328125 96.726562 22.101562 97.699219 24.597656 C 98.4375 26.472656 99.308594 29.292969 99.554688 34.5 C 99.824219 40.132812 99.882812 41.820312 99.910156 56.070312 C 99.933594 70.320312 99.886719 72.011719 99.636719 77.636719 C 99.410156 82.84375 98.546875 85.671875 97.824219 87.558594 C 96.863281 90.050781 95.703125 91.828125 93.839844 93.703125 C 91.976562 95.578125 90.199219 96.734375 87.707031 97.707031 C 85.828125 98.441406 83 99.316406 77.804688 99.5625 C 72.171875 99.828125 70.484375 99.882812 56.230469 99.914062 C 41.972656 99.945312 40.289062 99.886719 34.660156 99.644531 M 78.183594 27.613281 C 78.183594 28.035156 78.222656 28.449219 78.308594 28.863281 C 78.390625 29.273438 78.511719 29.675781 78.671875 30.0625 C 78.835938 30.453125 79.035156 30.820312 79.269531 31.171875 C 79.503906 31.519531 79.769531 31.84375 80.066406 32.140625 C 80.363281 32.4375 80.6875 32.703125 81.039062 32.933594 C 81.386719 33.167969 81.757812 33.363281 82.148438 33.527344 C 82.535156 33.6875 82.9375 33.808594 83.351562 33.886719 C 83.761719 33.96875 84.179688 34.007812 84.601562 34.007812 C 85.019531 34.007812 85.4375 33.964844 85.847656 33.882812 C 86.261719 33.800781 86.664062 33.679688 87.050781 33.515625 C 87.4375 33.355469 87.808594 33.15625 88.15625 32.921875 C 88.507812 32.6875 88.828125 32.421875 89.125 32.125 C 89.421875 31.824219 89.6875 31.503906 89.921875 31.152344 C 90.15625 30.800781 90.351562 30.433594 90.511719 30.042969 C 90.671875 29.652344 90.792969 29.253906 90.875 28.839844 C 90.957031 28.425781 90.996094 28.011719 90.996094 27.589844 C 90.996094 27.167969 90.953125 26.753906 90.871094 26.339844 C 90.785156 25.929688 90.664062 25.527344 90.503906 25.140625 C 90.339844 24.75 90.144531 24.382812 89.910156 24.03125 C 89.675781 23.683594 89.40625 23.359375 89.109375 23.0625 C 88.8125 22.765625 88.488281 22.5 88.136719 22.269531 C 87.785156 22.035156 87.417969 21.839844 87.027344 21.679688 C 86.640625 21.519531 86.238281 21.398438 85.824219 21.316406 C 85.414062 21.234375 84.996094 21.195312 84.574219 21.195312 C 84.15625 21.195312 83.738281 21.238281 83.328125 21.320312 C 82.914062 21.402344 82.515625 21.527344 82.125 21.6875 C 81.738281 21.851562 81.367188 22.046875 81.019531 22.28125 C 80.671875 22.515625 80.347656 22.78125 80.050781 23.082031 C 79.753906 23.378906 79.488281 23.703125 79.253906 24.050781 C 79.023438 24.402344 78.824219 24.773438 78.664062 25.160156 C 78.503906 25.550781 78.382812 25.949219 78.304688 26.363281 C 78.222656 26.777344 78.179688 27.191406 78.183594 27.613281 M 28.734375 56.199219 C 28.765625 71.339844 41.058594 83.585938 56.199219 83.558594 C 71.335938 83.527344 83.589844 71.234375 83.5625 56.09375 C 83.53125 40.953125 71.234375 28.703125 56.09375 28.734375 C 40.953125 28.761719 28.707031 41.0625 28.734375 56.199219 M 38.351562 56.179688 C 38.347656 55.597656 38.375 55.015625 38.433594 54.4375 C 38.488281 53.855469 38.574219 53.28125 38.683594 52.707031 C 38.796875 52.136719 38.9375 51.570312 39.105469 51.011719 C 39.273438 50.457031 39.46875 49.90625 39.691406 49.367188 C 39.914062 48.828125 40.160156 48.300781 40.433594 47.789062 C 40.707031 47.273438 41.007812 46.773438 41.328125 46.289062 C 41.652344 45.800781 42 45.335938 42.367188 44.882812 C 42.738281 44.433594 43.125 44 43.539062 43.585938 C 43.949219 43.171875 44.378906 42.78125 44.828125 42.410156 C 45.28125 42.039062 45.746094 41.691406 46.230469 41.367188 C 46.714844 41.042969 47.214844 40.742188 47.726562 40.46875 C 48.238281 40.191406 48.765625 39.941406 49.304688 39.71875 C 49.84375 39.492188 50.390625 39.296875 50.945312 39.125 C 51.503906 38.957031 52.070312 38.8125 52.640625 38.699219 C 53.210938 38.582031 53.789062 38.496094 54.367188 38.4375 C 54.945312 38.378906 55.527344 38.351562 56.113281 38.347656 C 56.695312 38.347656 57.277344 38.375 57.855469 38.429688 C 58.4375 38.488281 59.011719 38.570312 59.582031 38.683594 C 60.15625 38.796875 60.722656 38.9375 61.277344 39.105469 C 61.835938 39.273438 62.386719 39.46875 62.925781 39.691406 C 63.464844 39.914062 63.988281 40.160156 64.503906 40.433594 C 65.019531 40.707031 65.519531 41.007812 66.003906 41.328125 C 66.488281 41.652344 66.957031 41.996094 67.410156 42.367188 C 67.859375 42.734375 68.292969 43.125 68.707031 43.535156 C 69.117188 43.949219 69.511719 44.378906 69.882812 44.828125 C 70.25 45.277344 70.597656 45.746094 70.925781 46.230469 C 71.25 46.714844 71.550781 47.210938 71.824219 47.726562 C 72.101562 48.238281 72.351562 48.765625 72.574219 49.300781 C 72.796875 49.839844 72.996094 50.386719 73.167969 50.945312 C 73.335938 51.503906 73.480469 52.066406 73.59375 52.640625 C 73.707031 53.210938 73.796875 53.785156 73.855469 54.367188 C 73.910156 54.945312 73.941406 55.527344 73.941406 56.109375 C 73.945312 56.691406 73.917969 57.273438 73.859375 57.855469 C 73.804688 58.433594 73.71875 59.011719 73.609375 59.582031 C 73.496094 60.15625 73.355469 60.71875 73.1875 61.277344 C 73.019531 61.835938 72.824219 62.382812 72.601562 62.921875 C 72.378906 63.460938 72.132812 63.988281 71.859375 64.503906 C 71.585938 65.019531 71.285156 65.519531 70.964844 66.003906 C 70.640625 66.488281 70.292969 66.957031 69.925781 67.40625 C 69.558594 67.859375 69.167969 68.292969 68.753906 68.703125 C 68.34375 69.117188 67.914062 69.507812 67.464844 69.878906 C 67.015625 70.25 66.546875 70.597656 66.0625 70.921875 C 65.578125 71.246094 65.082031 71.546875 64.566406 71.824219 C 64.054688 72.101562 63.527344 72.347656 62.988281 72.574219 C 62.453125 72.796875 61.902344 72.996094 61.347656 73.164062 C 60.789062 73.335938 60.222656 73.476562 59.652344 73.59375 C 59.082031 73.707031 58.507812 73.792969 57.925781 73.851562 C 57.347656 73.910156 56.765625 73.941406 56.183594 73.941406 C 55.597656 73.941406 55.015625 73.914062 54.4375 73.859375 C 53.855469 73.804688 53.28125 73.71875 52.710938 73.605469 C 52.136719 73.496094 51.574219 73.355469 51.015625 73.1875 C 50.457031 73.019531 49.90625 72.824219 49.367188 72.601562 C 48.828125 72.378906 48.304688 72.132812 47.789062 71.859375 C 47.273438 71.585938 46.773438 71.285156 46.289062 70.960938 C 45.804688 70.640625 45.335938 70.292969 44.882812 69.925781 C 44.433594 69.554688 44 69.167969 43.585938 68.753906 C 43.175781 68.34375 42.78125 67.914062 42.410156 67.464844 C 42.039062 67.011719 41.691406 66.546875 41.367188 66.0625 C 41.042969 65.578125 40.742188 65.078125 40.46875 64.566406 C 40.191406 64.050781 39.941406 63.527344 39.71875 62.988281 C 39.492188 62.449219 39.296875 61.902344 39.125 61.34375 C 38.957031 60.789062 38.8125 60.222656 38.699219 59.652344 C 38.585938 59.082031 38.496094 58.503906 38.4375 57.925781 C 38.382812 57.34375 38.351562 56.765625 38.351562 56.179688 " fill-opacity="1" fill-rule="nonzero"/></g></svg>