<svg width="60" height="60" viewBox="0 0 60 60" fill="none" xmlns="http://www.w3.org/2000/svg">
<rect width="60" height="60" rx="30" fill="black"/>
<path d="M23.2525 12.1223C21.3904 12.2107 20.1189 12.5078 19.0078 12.9444C17.8566 13.3929 16.8822 13.9944 15.9115 14.9679C14.9417 15.9423 14.3438 16.9175 13.899 18.0696C13.4679 19.1843 13.1762 20.4567 13.0942 22.3198C13.0112 24.1828 12.993 24.7817 13.0021 29.5341C13.0112 34.2864 13.0322 34.8816 13.1224 36.7492C13.2118 38.6104 13.508 39.8819 13.9446 40.9939C14.3939 42.1442 14.9946 43.1186 15.969 44.0893C16.9424 45.06 17.9177 45.6561 19.0725 46.1018C20.1863 46.532 21.4587 46.8255 23.3218 46.9066C25.1839 46.9887 25.7836 47.0078 30.5351 46.9987C35.2857 46.9896 35.8836 46.9686 37.7503 46.8802C39.617 46.7909 40.8812 46.4928 41.9941 46.058C43.1444 45.6078 44.1196 45.008 45.0894 44.0337C46.0592 43.0593 46.6562 42.0831 47.1019 40.9301C47.5331 39.8172 47.8256 38.5439 47.9068 36.6827C47.9879 34.8151 48.007 34.2181 47.9979 29.4666C47.9888 24.7151 47.9678 24.119 47.8794 22.2533C47.791 20.3866 47.4939 19.1196 47.0582 18.0067C46.6079 16.8565 46.0082 15.8821 45.0338 14.9114C44.0604 13.9398 43.0833 13.3427 41.9303 12.8989C40.8165 12.4687 39.545 12.1752 37.6819 12.094C35.8189 12.0138 35.2191 11.9929 30.4668 12.002C25.7144 12.0111 25.1192 12.0321 23.2525 12.1223ZM23.4567 43.7584C21.7504 43.6846 20.8243 43.4011 20.2073 43.1641C19.3897 42.8488 18.8073 42.4678 18.1911 41.8589C17.5759 41.2491 17.1985 40.6649 16.8786 39.8491C16.6389 39.2312 16.3509 38.306 16.2707 36.5997C16.1841 34.7558 16.1658 34.2017 16.1558 29.5295C16.1458 24.8573 16.1631 24.305 16.2442 22.4592C16.3171 20.7548 16.6024 19.8269 16.8394 19.2099C17.1539 18.3914 17.5339 17.8098 18.1446 17.1955C18.7553 16.5803 19.3377 16.202 20.1544 15.8821C20.7715 15.6415 21.6966 15.3553 23.402 15.2741C25.2477 15.1866 25.801 15.1693 30.4722 15.1593C35.1435 15.1484 35.6977 15.1666 37.5443 15.2477C39.2487 15.3215 40.1766 15.6041 40.7937 15.8429C41.6113 16.1574 42.1937 16.5356 42.808 17.1472C43.4233 17.7597 43.8024 18.3403 44.1214 19.1588C44.363 19.7731 44.6492 20.6983 44.7294 22.4055C44.8178 24.2503 44.8369 24.8035 44.8461 29.4748C44.8543 34.1461 44.8379 34.7012 44.7567 36.5451C44.682 38.2513 44.3994 39.1783 44.1616 39.7963C43.8471 40.6138 43.467 41.1963 42.8563 41.8106C42.2447 42.4258 41.6632 42.8041 40.8456 43.1231C40.2295 43.3637 39.3034 43.6509 37.599 43.732C35.7533 43.8186 35.2009 43.8368 30.5278 43.8477C25.8538 43.8578 25.3033 43.8386 23.4576 43.7584M37.7239 20.1469C37.7239 20.2854 37.7375 20.4212 37.7649 20.557C37.7913 20.6919 37.8314 20.8232 37.8843 20.9508C37.9381 21.0784 38.0028 21.1987 38.0793 21.3135C38.1559 21.4275 38.2434 21.5341 38.3409 21.6316C38.4384 21.7282 38.5451 21.8157 38.6599 21.8914C38.7748 21.968 38.896 22.0327 39.0236 22.0855C39.1512 22.1375 39.2825 22.1776 39.4174 22.204C39.5532 22.2305 39.689 22.2441 39.8275 22.2441C39.9652 22.2432 40.1019 22.2296 40.2368 22.2022C40.3717 22.1758 40.5029 22.1357 40.6305 22.0828C40.7581 22.029 40.8784 21.9643 40.9933 21.8878C41.1081 21.8112 41.2139 21.7237 41.3114 21.6262C41.4089 21.5286 41.4955 21.422 41.5721 21.3071C41.6477 21.1923 41.7124 21.0711 41.7653 20.9435C41.8182 20.8159 41.8574 20.6846 41.8838 20.5497C41.9102 20.4139 41.9239 20.2772 41.9239 20.1396C41.923 20.0019 41.9093 19.8652 41.882 19.7303C41.8555 19.5945 41.8154 19.4633 41.7626 19.3366C41.7088 19.209 41.6441 19.0877 41.5675 18.9738C41.491 18.8589 41.4035 18.7532 41.3059 18.6557C41.2075 18.5582 41.1018 18.4716 40.9869 18.395C40.8721 18.3194 40.7508 18.2546 40.6232 18.2018C40.4956 18.1498 40.3644 18.1097 40.2295 18.0833C40.0937 18.0569 39.957 18.0432 39.8193 18.0441C39.6817 18.0441 39.545 18.0578 39.4101 18.0851C39.2743 18.1115 39.143 18.1516 39.0163 18.2054C38.8887 18.2583 38.7684 18.323 38.6536 18.3996C38.5387 18.4761 38.433 18.5636 38.3355 18.6612C38.2388 18.7587 38.1513 18.8653 38.0757 18.9802C37.9991 19.095 37.9344 19.2162 37.8815 19.3438C37.8296 19.4705 37.7895 19.6027 37.7631 19.7376C37.7366 19.8725 37.7229 20.0092 37.7239 20.1469ZM21.5152 29.5176C21.5243 34.4806 25.5549 38.4947 30.5169 38.4856C35.4789 38.4765 39.4967 34.4459 39.4866 29.483C39.4775 24.5201 35.4461 20.5041 30.4832 20.5142C25.5202 20.5242 21.5052 24.5556 21.5152 29.5176ZM24.6671 29.5113C24.6662 29.3208 24.6753 29.1303 24.6935 28.9398C24.7127 28.7493 24.74 28.5606 24.7765 28.3728C24.8138 28.186 24.8594 28.001 24.915 27.8178C24.9697 27.6346 25.0335 27.455 25.1064 27.2782C25.1793 27.1013 25.2605 26.9291 25.3507 26.7605C25.44 26.5918 25.5375 26.4278 25.6433 26.2683C25.7499 26.1097 25.8629 25.9565 25.9842 25.808C26.1045 25.6603 26.233 25.519 26.367 25.3832C26.5019 25.2483 26.6431 25.1198 26.7908 24.9977C26.9385 24.8765 27.0916 24.7625 27.2502 24.6559C27.4088 24.5492 27.5719 24.4508 27.7406 24.3606C27.9083 24.2703 28.0814 24.1883 28.2574 24.1154C28.4342 24.0416 28.6137 23.9768 28.796 23.9212C28.9783 23.8656 29.1634 23.8182 29.3511 23.7809C29.538 23.7435 29.7266 23.7152 29.9171 23.6961C30.1076 23.677 30.2981 23.6669 30.4886 23.6669C30.68 23.666 30.8705 23.6751 31.061 23.6934C31.2506 23.7116 31.4393 23.7399 31.6271 23.7763C31.8148 23.8137 31.9998 23.8593 32.183 23.9139C32.3653 23.9695 32.5458 24.0333 32.7217 24.1063C32.8985 24.1792 33.0717 24.2603 33.2403 24.3496C33.409 24.4399 33.573 24.5374 33.7316 24.6431C33.8911 24.7488 34.0443 24.8628 34.1919 24.9831C34.3405 25.1043 34.4818 25.2319 34.6176 25.3668C34.7525 25.5017 34.881 25.643 35.0022 25.7907C35.1244 25.9374 35.2383 26.0905 35.344 26.2491C35.4507 26.4077 35.5491 26.5718 35.6393 26.7395C35.7305 26.9081 35.8116 27.0804 35.8854 27.2572C35.9593 27.4331 36.024 27.6127 36.0796 27.7959C36.1352 27.9782 36.1817 28.1632 36.2199 28.351C36.2573 28.5378 36.2856 28.7265 36.3047 28.917C36.3238 29.1066 36.3339 29.2971 36.3339 29.4885C36.3348 29.6799 36.3257 29.8704 36.3074 30.06C36.2883 30.2505 36.261 30.4391 36.2245 30.6269C36.1871 30.8138 36.1416 30.9997 36.086 31.182C36.0313 31.3652 35.9675 31.5447 35.8945 31.7216C35.8216 31.8984 35.7405 32.0707 35.6503 32.2393C35.5609 32.4079 35.4634 32.572 35.3577 32.7315C35.251 32.8901 35.138 33.0441 35.0168 33.1918C34.8965 33.3394 34.768 33.4816 34.634 33.6165C34.4991 33.7523 34.3578 33.8808 34.2101 34.0021C34.0625 34.1233 33.9094 34.2372 33.7508 34.3439C33.5922 34.4505 33.429 34.5489 33.2604 34.6392C33.0927 34.7294 32.9195 34.8114 32.7436 34.8853C32.5668 34.9582 32.3872 35.0229 32.2049 35.0785C32.0226 35.135 31.8376 35.1815 31.6498 35.2189C31.463 35.2572 31.2734 35.2854 31.0838 35.3046C30.8933 35.3237 30.7028 35.3328 30.5123 35.3337C30.3209 35.3337 30.1304 35.3246 29.9399 35.3064C29.7503 35.2881 29.5608 35.2608 29.3739 35.2234C29.1861 35.187 29.0011 35.1405 28.8179 35.0858C28.6347 35.0311 28.4551 34.9664 28.2783 34.8944C28.1024 34.8215 27.9292 34.7404 27.7606 34.6501C27.592 34.5608 27.4279 34.4633 27.2693 34.3566C27.1098 34.2509 26.9567 34.1379 26.8081 34.0166C26.6605 33.8963 26.5192 33.7678 26.3834 33.6329C26.2485 33.498 26.12 33.3577 25.9978 33.21C25.8766 33.0623 25.7627 32.9092 25.656 32.7506C25.5494 32.592 25.4519 32.4289 25.3607 32.2603C25.2705 32.0916 25.1884 31.9194 25.1155 31.7434C25.0417 31.5666 24.977 31.3871 24.9214 31.2048C24.8658 31.0216 24.8184 30.8365 24.781 30.6497C24.7437 30.4619 24.7154 30.2733 24.6963 30.0837C24.6771 29.8932 24.6671 29.7027 24.6671 29.5113Z" fill="white"/>
</svg>
