<svg width="50" height="40" viewBox="0 0 50 40" fill="none" xmlns="http://www.w3.org/2000/svg">
<path d="M4.75712 39.4737C3.42782 39.4737 2.30264 39.0131 1.38158 38.0921C0.460527 37.171 0 36.0458 0 34.7165V4.75712C0 3.42782 0.460527 2.30264 1.38158 1.38158C2.30264 0.460527 3.42782 0 4.75712 0H45.2429C46.5722 0 47.6974 0.460527 48.6184 1.38158C49.5395 2.30264 50 3.42782 50 4.75712V34.7165C50 36.0458 49.5395 37.171 48.6184 38.0921C47.6974 39.0131 46.5722 39.4737 45.2429 39.4737H4.75712ZM46.0527 7.74278L26.2803 20.3997C26.0779 20.5144 25.8687 20.6047 25.6528 20.6704C25.4369 20.7362 25.2193 20.7691 25 20.7691C24.7807 20.7691 24.5631 20.7362 24.3472 20.6704C24.1312 20.6047 23.9221 20.5144 23.7197 20.3997L3.94731 7.74278V34.7165C3.94731 34.9527 4.02323 35.1467 4.17508 35.2986C4.32692 35.4504 4.52093 35.5263 4.75712 35.5263H45.2429C45.4791 35.5263 45.6731 35.4504 45.8249 35.2986C45.9768 35.1467 46.0527 34.9527 46.0527 34.7165V7.74278ZM25 17.1052L45.6478 3.94731H4.35218L25 17.1052ZM3.94731 8.35002V5.34153V5.41995V5.33646V8.35002Z" fill="black"/>
</svg>
