<svg width="60" height="60" viewBox="0 0 60 60" fill="none" xmlns="http://www.w3.org/2000/svg">
<rect width="60" height="60" rx="30" fill="black"/>
<mask id="mask0_37_49" style="mask-type:luminance" maskUnits="userSpaceOnUse" x="13" y="12" width="35" height="36">
<path d="M13 12H48V47.1759H13V12Z" fill="white"/>
</mask>
<g mask="url(#mask0_37_49)">
<path fill-rule="evenodd" clip-rule="evenodd" d="M42.9004 17.1078C39.6109 13.8156 35.235 12.0018 30.5733 12C20.9677 12 13.1493 19.8129 13.1466 29.4166C13.1447 32.4863 13.9481 35.4826 15.4724 38.1236L13 47.1502L22.2382 44.7282C24.7839 46.116 27.6502 46.847 30.566 46.8479H30.5733C40.1779 46.8479 47.9963 39.0341 48 29.4304C48.0018 24.776 46.1908 20.401 42.9004 17.1087V17.1078ZM30.5733 43.9065H30.5678C27.969 43.9056 25.4197 43.2067 23.1955 41.8885L22.666 41.5743L17.1835 43.0116L18.6474 37.6692L18.3029 37.1214C16.8529 34.8167 16.0871 32.1519 16.0889 29.4176C16.0916 21.4361 22.5891 14.9414 30.5797 14.9414C34.4481 14.9432 38.0848 16.451 40.8201 19.1872C43.5545 21.9234 45.0595 25.561 45.0577 29.4285C45.0549 37.4109 38.5566 43.9056 30.5733 43.9056V43.9065ZM38.5181 33.0643C38.083 32.8463 35.9422 31.7938 35.5428 31.649C35.1434 31.5034 34.8539 31.431 34.5635 31.867C34.2741 32.3031 33.4387 33.2832 33.1849 33.5727C32.9312 33.864 32.6765 33.8997 32.2414 33.6817C31.8063 33.4637 30.4029 33.0038 28.7394 31.5217C27.445 30.3675 26.5711 28.943 26.3174 28.507C26.0627 28.071 26.2908 27.8356 26.5079 27.6194C26.703 27.4233 26.943 27.111 27.161 26.8563C27.3791 26.6026 27.4514 26.4212 27.5962 26.1308C27.7418 25.8404 27.6694 25.5867 27.5604 25.3687C27.4514 25.1506 26.5812 23.008 26.2175 22.1369C25.8639 21.2886 25.5048 21.4041 25.2383 21.3903C24.9845 21.3775 24.6941 21.3747 24.4038 21.3747C24.1125 21.3747 23.6416 21.4837 23.2422 21.9198C22.8428 22.3549 21.7179 23.4083 21.7179 25.55C21.7179 27.6908 23.278 29.7611 23.496 30.0524C23.714 30.3428 26.5665 34.7379 30.9342 36.624C31.973 37.072 32.7846 37.3404 33.4176 37.541C34.46 37.8726 35.409 37.8259 36.1593 37.7132C36.9956 37.5886 38.7361 36.6607 39.0989 35.6439C39.4607 34.628 39.4607 33.7559 39.3526 33.5745C39.2436 33.3932 38.9532 33.2842 38.5181 33.0661V33.0643Z" fill="white"/>
</g>
</svg>
