<svg xmlns="http://www.w3.org/2000/svg" xmlns:xlink="http://www.w3.org/1999/xlink" width="150" zoomAndPan="magnify" viewBox="0 0 112.5 112.499997" height="150" preserveAspectRatio="xMidYMid meet" version="1.0"><defs><clipPath id="851d944093"><path d="M 2.832031 2.832031 L 108.863281 2.832031 L 108.863281 108.863281 L 2.832031 108.863281 Z M 2.832031 2.832031 " clip-rule="nonzero"/></clipPath><clipPath id="f73ed34fc4"><path d="M 109.164062 82.183594 C 109.164062 82.765625 109.148438 84.019531 109.109375 85.003906 C 109.019531 87.390625 108.839844 90.464844 108.546875 91.867188 C 108.109375 93.980469 107.472656 95.964844 106.617188 97.621094 C 105.617188 99.589844 104.339844 101.335938 102.8125 102.847656 C 101.300781 104.359375 99.550781 105.632812 97.585938 106.636719 C 95.929688 107.492188 93.925781 108.128906 91.796875 108.566406 C 90.410156 108.839844 87.351562 109.039062 84.984375 109.109375 C 84.003906 109.148438 82.746094 109.164062 82.164062 109.164062 L 29.800781 109.164062 C 29.214844 109.164062 27.960938 109.148438 26.976562 109.109375 C 24.589844 109.019531 21.515625 108.839844 20.113281 108.546875 C 18 108.109375 16.015625 107.472656 14.359375 106.617188 C 12.394531 105.617188 10.644531 104.339844 9.132812 102.8125 C 7.621094 101.300781 6.347656 99.550781 5.347656 97.585938 C 4.492188 95.929688 3.851562 93.925781 3.417969 91.796875 C 3.144531 90.410156 2.941406 87.351562 2.871094 84.984375 C 2.851562 84.019531 2.832031 82.765625 2.832031 82.183594 L 2.832031 29.816406 C 2.832031 29.234375 2.851562 27.976562 2.886719 26.996094 C 2.980469 24.609375 3.160156 21.53125 3.453125 20.132812 C 3.890625 18.019531 4.527344 16.035156 5.382812 14.378906 C 6.382812 12.410156 7.660156 10.664062 9.171875 9.152344 C 10.679688 7.640625 12.429688 6.367188 14.394531 5.363281 C 16.050781 4.507812 18.054688 3.871094 20.183594 3.433594 C 21.570312 3.160156 24.628906 2.960938 26.996094 2.886719 C 27.976562 2.851562 29.234375 2.832031 29.816406 2.832031 L 82.183594 2.832031 C 82.765625 2.832031 84.019531 2.851562 85.003906 2.886719 C 87.390625 2.980469 90.464844 3.160156 91.867188 3.453125 C 93.980469 3.890625 95.964844 4.527344 97.621094 5.382812 C 99.589844 6.382812 101.335938 7.660156 102.847656 9.1875 C 104.359375 10.699219 105.632812 12.449219 106.636719 14.414062 C 107.492188 16.070312 108.128906 18.074219 108.566406 20.203125 C 108.839844 21.585938 109.039062 24.644531 109.109375 27.011719 C 109.148438 27.996094 109.164062 29.253906 109.164062 29.835938 Z M 109.164062 82.183594 " clip-rule="evenodd"/></clipPath></defs><g clip-path="url(#851d944093)"><g clip-path="url(#f73ed34fc4)"><path fill="#000000" d="M 2.832031 2.832031 L 2.832031 108.863281 L 108.863281 108.863281 L 108.863281 2.832031 Z M 2.832031 2.832031 " fill-opacity="1" fill-rule="nonzero"/></g></g><path fill="#ffffff" d="M 83.964844 28.289062 C 76.8125 21.132812 67.289062 17.179688 57.148438 17.179688 C 36.246094 17.179688 19.257812 34.1875 19.238281 55.070312 C 19.238281 61.753906 20.988281 68.273438 24.300781 74.007812 L 18.929688 93.652344 L 39.03125 88.390625 C 44.566406 91.414062 50.792969 92.996094 57.148438 92.996094 L 57.164062 92.996094 C 78.050781 92.996094 95.054688 75.992188 95.074219 55.109375 C 95.074219 44.964844 91.121094 35.445312 83.964844 28.289062 Z M 57.164062 86.589844 C 51.503906 86.589844 45.949219 85.058594 41.125 82.199219 L 39.976562 81.527344 L 28.050781 84.660156 L 31.238281 73.042969 L 30.492188 71.859375 C 27.339844 66.851562 25.664062 61.042969 25.664062 55.089844 C 25.664062 37.71875 39.8125 23.589844 57.183594 23.589844 C 65.59375 23.589844 73.515625 26.867188 79.449219 32.820312 C 85.40625 38.777344 88.683594 46.695312 88.664062 55.109375 C 88.644531 72.460938 74.515625 86.589844 57.164062 86.589844 Z M 74.445312 63.007812 C 73.496094 62.535156 68.835938 60.242188 67.980469 59.933594 C 67.105469 59.625 66.488281 59.460938 65.851562 60.40625 C 65.210938 61.351562 63.410156 63.484375 62.847656 64.121094 C 62.300781 64.757812 61.734375 64.832031 60.789062 64.355469 C 59.839844 63.882812 56.78125 62.882812 53.175781 59.660156 C 50.355469 57.148438 48.460938 54.050781 47.914062 53.105469 C 47.371094 52.15625 47.859375 51.648438 48.335938 51.175781 C 48.753906 50.757812 49.28125 50.0625 49.753906 49.519531 C 50.226562 48.972656 50.390625 48.570312 50.703125 47.933594 C 51.011719 47.296875 50.863281 46.75 50.628906 46.277344 C 50.390625 45.804688 48.5 41.140625 47.714844 39.25 C 46.949219 37.410156 46.167969 37.648438 45.585938 37.628906 C 45.039062 37.59375 44.402344 37.59375 43.765625 37.59375 C 43.128906 37.59375 42.105469 37.828125 41.234375 38.777344 C 40.359375 39.722656 37.917969 42.015625 37.917969 46.675781 C 37.917969 51.339844 41.304688 55.835938 41.78125 56.472656 C 42.253906 57.109375 48.460938 66.667969 57.964844 70.765625 C 60.222656 71.75 61.988281 72.332031 63.375 72.769531 C 65.648438 73.496094 67.707031 73.386719 69.347656 73.152344 C 71.167969 72.878906 74.953125 70.855469 75.738281 68.652344 C 76.519531 66.449219 76.519531 64.539062 76.28125 64.15625 C 76.011719 63.71875 75.390625 63.484375 74.445312 63.007812 Z M 74.445312 63.007812 " fill-opacity="1" fill-rule="evenodd"/></svg>