<svg width="60" height="60" viewBox="0 0 60 60" fill="none" xmlns="http://www.w3.org/2000/svg">
<rect width="60" height="60" rx="30" fill="black"/>
<mask id="mask0_37_52" style="mask-type:luminance" maskUnits="userSpaceOnUse" x="13" y="17" width="35" height="25">
<path d="M13 17H48V41.5H13V17Z" fill="white"/>
</mask>
<g mask="url(#mask0_37_52)">
<path d="M26.9327 34.4208V24.0803L36.0482 29.251L26.9327 34.4208ZM47.2099 20.8264C46.8089 19.3206 45.6267 18.1348 44.1264 17.732C41.4067 17.001 30.4992 17.001 30.4992 17.001C30.4992 17.001 19.5927 17.001 16.8729 17.732C15.3727 18.1348 14.1905 19.3206 13.7895 20.8264C13.0603 23.5562 13.0603 29.2501 13.0603 29.2501C13.0603 29.2501 13.0603 34.9449 13.7895 37.6747C14.1905 39.1804 15.3727 40.3662 16.8729 40.7691C19.5927 41.5001 30.4992 41.5001 30.4992 41.5001C30.4992 41.5001 41.4067 41.5001 44.1264 40.7691C45.6267 40.3662 46.8089 39.1804 47.2099 37.6747C47.9391 34.9449 47.9391 29.2501 47.9391 29.2501C47.9391 29.2501 47.9391 23.5562 47.2099 20.8264Z" fill="white"/>
</g>
</svg>
