<svg xmlns="http://www.w3.org/2000/svg" xmlns:xlink="http://www.w3.org/1999/xlink" width="150" zoomAndPan="magnify" viewBox="0 0 112.5 112.499997" height="150" preserveAspectRatio="xMidYMid meet" version="1.0"><defs><clipPath id="64df1e716f"><path d="M 2.242188 18.273438 L 109.765625 18.273438 L 109.765625 93.6875 L 2.242188 93.6875 Z M 2.242188 18.273438 " clip-rule="nonzero"/></clipPath></defs><g clip-path="url(#64df1e716f)"><path fill="#000000" d="M 107.300781 30.054688 C 106.070312 25.417969 102.441406 21.765625 97.835938 20.527344 C 89.484375 18.273438 55.996094 18.273438 55.996094 18.273438 C 55.996094 18.273438 22.507812 18.273438 14.15625 20.527344 C 9.550781 21.765625 5.921875 25.417969 4.691406 30.054688 C 2.453125 38.460938 2.453125 56 2.453125 56 C 2.453125 56 2.453125 73.535156 4.691406 81.941406 C 5.921875 86.578125 9.550781 90.230469 14.15625 91.46875 C 22.507812 93.722656 55.996094 93.722656 55.996094 93.722656 C 55.996094 93.722656 89.484375 93.722656 97.835938 91.46875 C 102.441406 90.230469 106.070312 86.578125 107.300781 81.941406 C 109.539062 73.535156 109.539062 56 109.539062 56 C 109.539062 56 109.539062 38.460938 107.300781 30.054688 " fill-opacity="1" fill-rule="nonzero"/></g><path fill="#ffffff" d="M 45.042969 71.921875 L 73.03125 56 L 45.042969 40.074219 Z M 45.042969 71.921875 " fill-opacity="1" fill-rule="nonzero"/></svg>